<svg width="83" height="83" viewBox="0 0 83 83" fill="none" xmlns="http://www.w3.org/2000/svg">
<g clip-path="url(#clip0_282_689)">
<path d="M71.5846 9.35509C71.2101 8.97995 70.7854 8.68636 70.3324 8.47119C69.8795 8.68636 69.4548 8.98058 69.0797 9.35509C67.3238 11.111 67.3238 13.9578 69.0797 15.7143C69.4548 16.0888 69.8795 16.383 70.3324 16.5975C70.7854 16.383 71.2101 16.0888 71.5846 15.7143C73.3411 13.9578 73.3411 11.111 71.5846 9.35509Z" fill="#FF5D5D"/>
<path d="M16.9992 66.5102C16.6241 66.1357 16.1994 65.8415 15.7465 65.627C15.2935 65.8415 14.8688 66.1357 14.4943 66.5102C12.7378 68.2667 12.7378 71.1135 14.4943 72.8694C14.8688 73.2446 15.2935 73.5381 15.7465 73.7533C16.1994 73.5381 16.6241 73.2439 16.9992 72.8694C18.7551 71.1135 18.7551 68.2667 16.9992 66.5102Z" fill="#FF5D5D"/>
<path d="M13.8193 63.5875C12.8532 63.5875 11.9223 63.812 11.0836 64.2336C6.00036 57.6354 3.2119 49.4733 3.2119 41.1123C3.2119 20.2136 20.2136 3.2119 41.1123 3.2119C43.7753 3.2119 46.4339 3.48918 49.0147 4.03683C49.8829 4.22064 50.7348 3.66608 50.9186 2.79912C51.1031 1.9309 50.5485 1.079 49.6809 0.894564C46.8818 0.301116 43.9986 0 41.1123 0C30.131 0 19.8065 4.27647 12.0415 12.0415C4.27647 19.8065 0 30.131 0 41.1123C0 50.2625 3.07891 59.1949 8.68781 66.3872C8.05672 67.3633 7.71671 68.5 7.71671 69.6901C7.71671 71.3198 8.35157 72.8524 9.50459 74.0054C10.657 75.1578 12.1895 75.7927 13.8193 75.7927C15.4497 75.7927 16.9823 75.1578 18.1347 74.0054C19.2877 72.8524 19.9219 71.3198 19.9219 69.6901C19.9219 68.0603 19.2871 66.5277 18.1347 65.3747C16.9823 64.2223 15.4497 63.5875 13.8193 63.5875ZM15.8638 71.7339C14.7365 72.8612 12.9028 72.8612 11.7755 71.7339C11.2297 71.1881 10.9286 70.4623 10.9286 69.6901C10.9286 68.9178 11.2297 68.192 11.7755 67.6456C12.3388 67.0823 13.0791 66.8006 13.8193 66.8006C14.5596 66.8006 15.2998 67.0823 15.8638 67.6456C16.4095 68.1914 16.71 68.9178 16.71 69.6901C16.71 70.4623 16.4095 71.1881 15.8638 71.7339Z" fill="#3B3B3B"/>
<path d="M73.5368 15.8376C74.1679 14.8615 74.5079 13.7248 74.5079 12.5347C74.5079 10.905 73.8731 9.3724 72.7201 8.21938C71.5677 7.06698 70.0351 6.43213 68.4053 6.43213C66.7749 6.43213 65.2424 7.06698 64.09 8.21938C62.9376 9.3724 62.3027 10.905 62.3027 12.5347C62.3027 14.1645 62.9376 15.6971 64.09 16.8501C65.2424 18.0025 66.7749 18.6373 68.4053 18.6373C69.3714 18.6373 70.3024 18.4128 71.1417 17.9912C76.2243 24.5894 79.0127 32.7515 79.0127 41.1125C79.0127 62.0112 62.011 79.0129 41.1123 79.0129C38.864 79.0129 36.6119 78.8147 34.4175 78.4238C33.5449 78.2683 32.71 78.8498 32.555 79.723C32.3988 80.5963 32.981 81.43 33.8542 81.5856C36.2336 82.0096 38.6758 82.2248 41.1123 82.2248C52.0936 82.2248 62.4181 77.9483 70.1832 70.1833C77.9482 62.4183 82.2247 52.0938 82.2247 41.1125C82.2247 31.9623 79.1457 23.0299 73.5368 15.8376ZM66.3615 14.5786C65.2342 13.4519 65.2342 11.6182 66.3615 10.4909C66.9073 9.94452 67.6331 9.64403 68.4053 9.64403C69.1776 9.64403 69.9034 9.94452 70.4491 10.4909C70.9955 11.0367 71.296 11.7625 71.296 12.5347C71.296 13.307 70.9955 14.0328 70.4491 14.5786C69.9034 15.125 69.1776 15.4254 68.4053 15.4254C67.6331 15.4254 66.9073 15.125 66.3615 14.5786Z" fill="#3B3B3B"/>
<path d="M27.0013 76.2988L26.3953 77.7862L26.9969 76.2969C26.1745 75.9651 25.2385 76.3616 24.906 77.184C24.5736 78.0064 24.9706 78.9424 25.7931 79.2749L25.8426 79.2949C26.0321 79.3671 26.2272 79.4016 26.4191 79.4016C27.0659 79.4016 27.6769 79.0101 27.9216 78.3715C28.239 77.5428 27.83 76.6163 27.0013 76.2988Z" fill="#3B3B3B"/>
<path d="M55.2798 5.94805L55.298 5.95558C55.495 6.03525 55.6988 6.07288 55.8989 6.07288C56.5344 6.07288 57.136 5.69335 57.3888 5.06854C57.7207 4.24612 57.3236 3.31015 56.5012 2.97767L56.4723 2.96638C55.6493 2.63703 54.7146 3.03726 54.3852 3.86094C54.0552 4.68462 54.4561 5.6187 55.2798 5.94805Z" fill="#3B3B3B"/>
<path d="M41.1123 67.0943H55.1563C58.1302 67.0943 60.1534 64.0772 59.025 61.3261L47.5897 33.4527C46.9061 31.7867 46.5546 30.0036 46.5546 28.2031V20.8358C46.5546 19.7676 46.9791 18.7436 47.7341 17.9882C48.2156 17.5071 48.4859 16.854 48.4859 16.1737V15.1299H33.7392V16.1737C33.7392 16.854 34.0095 17.5071 34.4909 17.9882C35.246 18.7436 35.6701 19.7676 35.6701 20.8358V28.2031C35.6701 30.0036 35.3186 31.7871 34.6354 33.4527L23.2001 61.3261C22.0713 64.0772 24.0945 67.0943 27.0683 67.0943H41.1123Z" fill="white"/>
<path d="M50.8619 41.4292H38.1468L29.854 61.6432C28.9439 63.8616 30.0834 66.2517 32.1178 67.0946H55.1563C58.1302 67.0946 60.1534 64.0774 59.025 61.3264L50.8619 41.4292Z" fill="#FFC448"/>
<path d="M60.002 60.9252L48.5667 33.0521C47.9325 31.5058 47.6107 29.8745 47.6107 28.2031V20.8354C47.6107 20.042 47.9198 19.2961 48.4809 18.735C49.1649 18.0509 49.542 17.1412 49.542 16.1737V15.1299C49.542 14.5465 49.0688 14.0737 48.4858 14.0737H33.7392C33.1558 14.0737 32.683 14.5465 32.683 15.1299V16.1737C32.683 17.1412 33.0597 18.0509 33.7437 18.735C34.3048 19.2961 34.6138 20.042 34.6138 20.8358V28.2031C34.6138 29.8745 34.2924 31.5058 33.6579 33.0521L30.5158 40.7111C30.5145 40.714 30.5133 40.7169 30.512 40.7198L22.2226 60.9252C21.5588 62.5437 21.744 64.3776 22.7185 65.8302C23.693 67.2833 25.319 68.1506 27.0683 68.1506H55.1563C56.9056 68.1506 58.532 67.2833 59.5065 65.8302C60.4805 64.3772 60.6658 62.5437 60.002 60.9252ZM35.6123 33.8537C36.3516 32.052 36.7262 30.1509 36.7262 28.2031V20.8354C36.7262 19.478 36.1977 18.2015 35.2377 17.2415C34.9555 16.9593 34.7987 16.5847 34.7954 16.1861H47.4296C47.4263 16.5847 47.2695 16.9589 46.9869 17.2415C46.0273 18.2015 45.4984 19.4776 45.4984 20.8354V28.2027C45.4984 30.1505 45.8734 32.0516 46.6123 33.8533L49.1624 40.0692H33.0622L35.6123 33.8537ZM57.7518 64.6536C57.1618 65.5336 56.2158 66.0382 55.1563 66.0382H27.0683C26.0092 66.0382 25.0632 65.5336 24.4728 64.6536C24.0276 63.9898 23.8576 63.2199 23.9732 62.4608H25.7134C26.2964 62.4608 26.7696 61.9875 26.7696 61.4046C26.7696 60.8212 26.2964 60.3484 25.7134 60.3484H24.743L25.956 57.3911H27.7375C28.3209 57.3911 28.7937 56.9178 28.7937 56.3349C28.7937 55.7515 28.3209 55.2787 27.7375 55.2787H26.8228L28.0358 52.3214H29.8676C30.451 52.3214 30.9238 51.8481 30.9238 51.2652C30.9238 50.6818 30.451 50.209 29.8676 50.209H28.9026L30.116 47.2517H31.9973C32.5807 47.2517 33.0535 46.7784 33.0535 46.1955C33.0535 45.6121 32.5807 45.1393 31.9973 45.1393H30.9824L32.1958 42.1819H50.0288L58.0476 61.7272C58.4494 62.7071 58.3418 63.774 57.7518 64.6536Z" fill="#3B3B3B"/>
<path d="M54.7862 60.991C54.5651 60.4509 53.9487 60.1926 53.4086 60.4134C52.869 60.6345 52.6103 61.2509 52.831 61.7909L52.8368 61.8041C53.0043 62.213 53.3983 62.4605 53.8146 62.4605C53.9479 62.4605 54.0832 62.4354 54.2144 62.3817C54.754 62.1606 55.0127 61.5438 54.7916 61.0042L54.7862 60.991Z" fill="#3B3B3B"/>
<path d="M53.2936 57.3521L49.5111 48.1328C49.2899 47.5931 48.6732 47.3349 48.1331 47.5564C47.5934 47.7775 47.3356 48.3948 47.5567 48.9344L51.3392 58.1538C51.5067 58.5626 51.9007 58.8094 52.317 58.8094C52.4503 58.8094 52.586 58.7842 52.7172 58.7301C53.2568 58.509 53.5151 57.8918 53.2936 57.3521Z" fill="#3B3B3B"/>
<path fill-rule="evenodd" clip-rule="evenodd" d="M60.6545 55.2988C61.1908 54.577 62.2107 54.4267 62.9325 54.963L73.8731 63.093C74.5949 63.6293 74.7452 64.6492 74.2089 65.371C73.6725 66.0928 72.6526 66.2431 71.9309 65.7067L60.9902 57.5768C60.2685 57.0405 60.1181 56.0205 60.6545 55.2988Z" fill="#3B3B3B"/>
<path fill-rule="evenodd" clip-rule="evenodd" d="M7.59633 20.6075C8.14257 19.8932 9.16445 19.7569 9.87877 20.3032L29.0181 34.9392C29.7324 35.4854 29.8686 36.5073 29.3224 37.2216C28.7762 37.9359 27.7543 38.0722 27.04 37.5259L7.90065 22.8899C7.18634 22.3437 7.05009 21.3218 7.59633 20.6075Z" fill="#3B3B3B"/>
</g>
<defs>
<clipPath id="clip0_282_689">
<rect width="82.2246" height="82.2246" fill="white"/>
</clipPath>
</defs>
</svg>
