<svg width="18" height="19" viewBox="0 0 18 19" fill="none" xmlns="http://www.w3.org/2000/svg">
<path fill-rule="evenodd" clip-rule="evenodd" d="M3.6 8.1999C5 10.9999 7.4 13.2999 10.2 14.7999L12.4 12.5999C12.7 12.2999 13.1 12.1999 13.4 12.3999C14.5 12.7999 15.7 12.9999 17 12.9999C17.6 12.9999 18 13.3999 18 13.9999V17.3999C18 17.9999 17.6 18.3999 17 18.3999C7.6 18.3999 0 10.7999 0 1.3999C0 0.799902 0.4 0.399902 1 0.399902H4.5C5.1 0.399902 5.5 0.799902 5.5 1.3999C5.5 2.5999 5.7 3.7999 6.1 4.9999C6.2 5.2999 6.1 5.6999 5.9 5.9999L3.6 8.1999Z" fill="#FFC448"/>
</svg>
