<svg width="23" height="24" viewBox="0 0 23 24" fill="none" xmlns="http://www.w3.org/2000/svg">
<path d="M11.4 2.77892C14.3867 2.77892 14.76 2.77892 15.9733 2.87225C19.0533 2.96559 20.4533 4.45892 20.5467 7.44559C20.64 8.65892 20.64 8.93892 20.64 11.9256C20.64 14.9123 20.64 15.2856 20.5467 16.4056C20.4533 19.3923 18.96 20.8856 15.9733 20.9789C14.76 21.0723 14.48 21.0723 11.4 21.0723C8.41335 21.0723 8.04001 21.0723 6.92001 20.9789C3.84001 20.8856 2.44001 19.3923 2.34668 16.4056C2.25335 15.1923 2.25335 14.9123 2.25335 11.9256C2.25335 8.93892 2.25335 8.56559 2.34668 7.44559C2.44001 4.45892 3.93335 2.96559 6.92001 2.87225C8.04001 2.77892 8.41335 2.77892 11.4 2.77892ZM11.4 0.725586C8.32001 0.725586 7.94668 0.725586 6.82668 0.818919C2.72001 1.00559 0.480012 3.24559 0.293346 7.35225C0.200012 8.47225 0.200012 8.84559 0.200012 11.9256C0.200012 15.0056 0.200012 15.3789 0.293346 16.4989C0.480012 20.6056 2.72001 22.8456 6.82668 23.0323C7.94668 23.1256 8.32001 23.1256 11.4 23.1256C14.48 23.1256 14.8533 23.1256 15.9733 23.0323C20.08 22.8456 22.32 20.6056 22.5067 16.4989C22.6 15.3789 22.6 15.0056 22.6 11.9256C22.6 8.84559 22.6 8.47225 22.5067 7.35225C22.32 3.24559 20.08 1.00559 15.9733 0.818919C14.8533 0.725586 14.48 0.725586 11.4 0.725586ZM11.4 6.13892C8.22668 6.13892 5.61335 8.75225 5.61335 11.9256C5.61335 15.0989 8.22668 17.7123 11.4 17.7123C14.5733 17.7123 17.1867 15.0989 17.1867 11.9256C17.1867 8.75225 14.5733 6.13892 11.4 6.13892ZM11.4 15.6589C9.34668 15.6589 7.66668 13.9789 7.66668 11.9256C7.66668 9.87225 9.34668 8.19225 11.4 8.19225C13.4533 8.19225 15.1333 9.87225 15.1333 11.9256C15.1333 13.9789 13.4533 15.6589 11.4 15.6589ZM17.3733 4.64559C16.6267 4.64559 16.0667 5.20559 16.0667 5.95225C16.0667 6.69892 16.6267 7.25892 17.3733 7.25892C18.12 7.25892 18.68 6.69892 18.68 5.95225C18.68 5.20559 18.12 4.64559 17.3733 4.64559Z" fill="#FFC448"/>
</svg>
