<svg width="42" height="42" viewBox="0 0 42 42" fill="none" xmlns="http://www.w3.org/2000/svg">
<g clip-path="url(#clip0_455_6436)">
<path d="M25.5934 20.9554C24.8315 22.476 23.219 21.1941 23.0194 20.4343C22.8104 18.9752 24.2578 17.933 25.0343 16.9377C25.6519 17.6933 25.7951 19.0357 25.792 20.0852C25.7933 20.3866 25.7253 20.6843 25.5934 20.9554Z" fill="#3B3B3B"/>
<path d="M19.4253 32.1778C19.4305 32.0934 19.4305 32.009 19.4431 31.9267C19.5546 31.1534 19.7222 30.3892 19.9447 29.6401C20.1801 28.8472 20.4931 28.0792 20.879 27.3472C21.4241 26.3055 22.1465 25.3661 23.014 24.5708C23.6164 24.0235 24.2802 23.5475 24.9923 23.1524C25.0268 23.1336 25.0602 23.1159 25.0968 23.0992C25.1063 23.0936 25.1169 23.0899 25.1278 23.0884C25.1388 23.0869 25.1499 23.0876 25.1606 23.0904C25.1713 23.0932 25.1813 23.0981 25.1901 23.1048C25.1989 23.1115 25.2062 23.1199 25.2117 23.1294L25.2264 23.1482C25.5193 23.5798 25.7593 24.0448 25.9412 24.5333C25.9464 24.5555 25.9495 24.5782 25.9506 24.601L25.9872 24.7053L26.0614 25.0638C26.1681 25.5428 26.221 26.0322 26.2192 26.5229C26.2192 26.6688 26.193 26.8126 26.1836 26.9575C26.1636 27.1944 26.1209 27.4289 26.0561 27.6578C25.8537 28.4005 25.4686 29.0811 24.9359 29.638C24.63 29.9622 24.2894 30.252 23.9201 30.502C23.3021 30.9202 22.6353 31.2618 21.9345 31.5192C21.2815 31.7656 20.6098 31.9597 19.9259 32.0997C19.7616 32.1402 19.5941 32.1663 19.4253 32.1778Z" fill="#3B3B3B"/>
<path d="M30.3292 14.8544C30.3522 14.7617 30.5382 14.103 30.4254 14.1312C30.3989 14.1369 30.372 14.14 30.3449 14.1405C29.6834 14.1718 28.2621 14.4605 28.3593 13.7403C28.3185 13.313 28.2956 12.5345 28.1869 12.6231C27.7093 13.1734 27.169 13.7695 26.4207 13.9383C25.9285 14.0155 26.0821 13.6903 26.1532 13.3995C26.2108 13.1337 26.2147 12.8591 26.1647 12.5918C25.9557 11.6705 25.8355 12.2792 25.384 12.5199C24.1018 13.3537 23.8165 13.7883 24.27 15.0212C24.0067 15.0743 23.8656 15.0691 23.8154 14.8128C23.573 12.9107 25.1364 12.2958 25.4603 11.9561C25.6453 11.8352 25.7268 11.6038 25.9578 11.5673C26.2201 11.6069 26.4228 12.1114 26.4719 12.2427C26.8001 13.2745 26.2473 13.6674 26.8126 13.3599C28.3133 12.3792 28.4471 10.6617 28.746 13.6486C28.6749 14.0217 30.3136 13.7143 30.4076 13.732C30.58 13.7122 30.8434 13.634 30.881 13.8581C30.8929 14.4589 30.7385 15.0514 30.4348 15.5704C28.4753 18.2895 24.3912 15.1807 23.3483 16.9316C23.3201 17.0431 23.6555 16.942 23.7548 16.9316C24.3536 16.8649 25.3705 16.9472 24.5846 17.6423C24.0903 18.2322 23.6628 18.8648 23.4277 19.5944C23.0891 20.6814 23.7161 21.1723 24.5699 21.4599C26.2128 21.9956 26.1825 19.6694 26.0915 18.6314C26.0769 18.4116 26.05 18.1927 26.0111 17.9758C26.0074 17.9484 26.0093 17.9206 26.0165 17.8939C26.0238 17.8672 26.0363 17.8422 26.0533 17.8204C26.0703 17.7986 26.0915 17.7803 26.1157 17.7668C26.1398 17.7532 26.1664 17.7446 26.194 17.7413C26.2487 17.7345 26.3039 17.7495 26.3476 17.783C26.8314 18.1426 27.1888 18.7273 27.61 19.165C29.6385 21.6298 31.6335 25.2046 30.7128 28.3364C30.0857 30.4875 28.4471 31.4244 27.3822 32.5052C24.9984 34.7647 23.0661 38.0163 23.2082 41.1773C23.225 41.243 23.3033 41.2294 23.3859 41.2211C24.0838 41.1439 24.7767 41.0274 25.4614 40.872C37.3541 38.2029 44.1406 25.9945 40.4192 14.6325C38.8198 9.79987 35.4641 5.7396 31.0128 3.25122C26.5615 0.762837 21.3373 0.026683 16.369 1.18773C11.4006 2.34877 7.04824 5.32286 4.16887 9.52433C1.2895 13.7258 0.0918384 18.8501 0.811743 23.8883C2.10761 32.9971 9.39998 40.0424 18.3979 41.1888C20.5925 41.4077 20.0606 41.4619 19.9508 40.6416C19.4994 38.3155 19.259 35.9517 19.4367 33.5786C19.4649 33.0211 19.5767 33.0992 19.1231 33.0367C14.8457 32.4218 11.7169 27.7027 9.98312 24.5719C7.93586 20.6658 8.31103 21.142 8.98405 21.1243C11.4849 21.289 11.6489 21.6736 11.9029 21.6392C10.7533 18.1905 7.64743 15.5944 7.81254 15.4047C7.81254 15.213 9.12199 14.7408 10.0657 14.8305C11.3511 14.9003 12.0001 15.4641 12.0513 15.3714C11.7493 13.2474 10.5286 10.9306 9.10841 9.67991C8.33612 8.97746 7.76134 8.72734 7.81777 8.52619C7.87107 8.23854 9.27144 8.50639 9.8922 8.56892C19.7941 10.2135 20.4827 17.6955 17.079 25.4797C16.8972 25.9299 16.6056 26.3541 16.5325 26.7804C20.6416 25.0086 22.2238 21.609 22.4945 21.7059C22.5028 21.6986 22.7808 21.7267 22.6147 22.0185C22.39 22.4667 22.0096 22.8304 21.8559 22.992C20.511 24.4166 18.4595 26.5354 16.2054 27.3077C15.8302 27.3869 15.9002 27.1337 16.0789 26.7533C21.6323 15.3922 17.3664 9.68304 8.79489 8.80654C8.63082 8.80654 8.73742 8.88888 8.89208 9.01498C10.049 9.94671 10.8986 11.1223 11.5214 12.4543C11.7879 12.9118 12.7201 15.6778 12.4097 15.9581C12.044 16.1436 11.3939 15.0045 9.43237 15.2369C8.79594 15.2922 8.15741 15.4381 8.42076 15.6809C10.0343 17.4214 11.2487 18.9962 12.2362 21.4391C12.6386 22.5303 12.1871 22.2259 11.7409 22.0165C11.1139 21.6809 8.8043 21.3911 8.91925 21.5568C10.7429 25.8976 14.5625 32.0362 19.0751 32.6824C19.6937 32.8397 19.4753 32.5698 19.5746 32.1998C19.8306 30.4124 20.3385 28.6855 21.231 27.1264C22.1329 25.5433 23.431 24.2205 24.9984 23.2869C25.2137 23.1827 25.6798 22.82 25.8136 22.9503C27.2913 24.8262 27.7783 27.6714 26.3089 29.7246C25.1729 31.365 23.1602 32.4082 21.4808 32.9095C20.466 33.193 19.9027 33.0273 19.8265 33.2128C19.3886 38.6 20.7785 41.5869 20.4535 41.6672C20.2021 41.7233 19.9426 41.7339 19.6875 41.6984C18.2819 41.5786 16.9254 41.3858 15.5783 41.0127C-4.11358 35.2681 -4.87543 8.87325 13.6481 1.61431C25.9849 -2.95783 38.6374 4.59188 41.3044 16.4667C43.8532 27.956 36.402 39.1763 24.8824 41.3587C24.0464 41.5244 23.1372 41.6713 22.9418 41.5796C22.4192 39.4358 23.8092 36.1769 25.4551 34.0935C27.3258 31.6412 28.5809 31.217 29.581 29.8205C32.1936 26.0925 29.1828 21.4703 26.6182 18.5449C26.5211 18.4407 26.4479 18.3938 26.4416 18.4698C26.6799 20.4917 26.2326 22.8346 23.8186 21.536C22.2729 20.6595 23.0295 18.8951 24.1948 17.4975C24.2679 17.4047 24.2993 17.3526 24.269 17.3203C23.3107 17.1379 22.9543 17.7122 22.8059 17.4339C22.7887 17.3995 22.7787 17.3621 22.7763 17.3238C22.774 17.2854 22.7794 17.247 22.7923 17.2109C23.4883 15.1973 25.9651 16.2729 26.8941 16.3062C28.1367 16.4563 30.0533 16.3479 30.3292 14.8544ZM26.473 24.9774C26.4636 24.9409 26.473 24.8992 26.4364 24.8731C26.2654 24.3371 26.0089 23.8321 25.6767 23.3776C25.6087 23.3359 25.6014 23.3599 25.5115 23.4026C25.0895 23.6329 24.6841 23.8924 24.2982 24.179C21.6637 26.0696 20.0355 29.6495 19.9205 32.7334C21.4264 32.748 22.8613 32.0706 24.108 31.2743C26.519 29.7433 27.3822 27.4474 26.473 24.9794V24.9774Z" fill="#3B3B3B"/>
<path d="M20.0147 41.9683C19.8977 41.9683 19.7806 41.961 19.6657 41.9485C17.9999 41.8057 16.7197 41.591 15.5105 41.2544C10.8298 39.8901 6.915 37.2596 4.18219 33.6463C1.6542 30.2966 0.216213 26.2633 0.0218333 21.9799C-0.0748921 19.8855 0.136358 17.7882 0.648864 15.7548C1.16868 13.6976 2.00036 11.7316 3.11519 9.92473C5.49791 6.06858 9.10647 3.11081 13.5511 1.36929C16.4685 0.270944 19.5924 -0.17451 22.7015 0.0644527C25.6202 0.291453 28.4577 1.13181 31.0275 2.5303C41.2544 8.03209 45.0719 20.7615 39.5541 30.9605C38.0664 33.7108 35.9815 36.0949 33.4517 37.9388C30.9219 39.7826 28.011 41.0397 24.9317 41.6181C23.1551 41.9683 22.9367 41.8682 22.8322 41.8192L22.7162 41.7671L22.6859 41.6431C22.1414 39.4003 23.5637 36.0673 25.2494 33.9308C26.0236 32.9125 26.9117 31.9856 27.8965 31.1679C28.4577 30.6812 28.9416 30.2623 29.369 29.6692C31.7099 26.3342 29.3303 22.1529 26.7564 19.1055C26.7929 20.0435 26.6811 21.3733 25.8597 21.9299C25.3142 22.2967 24.5858 22.2425 23.6943 21.7652H23.6891C23.1405 21.4525 22.8134 21.0221 22.7151 20.4791C22.526 19.4369 23.2554 18.2676 23.8198 17.5516C23.6236 17.5654 23.4314 17.6126 23.2512 17.6912C23.0767 17.76 22.7517 17.8882 22.5782 17.5589C22.544 17.493 22.5236 17.4208 22.5184 17.3468C22.5132 17.2727 22.5232 17.1984 22.5479 17.1284C23.175 15.3223 25.0561 15.7037 26.1878 15.9309C26.4237 15.99 26.6649 16.0249 26.9079 16.0352H26.9298C27.5987 16.129 29.8027 16.2738 30.0733 14.8074V14.7918C30.0764 14.7731 30.081 14.7546 30.0869 14.7366C30.1246 14.598 30.1496 14.4937 30.1664 14.4166L29.9573 14.4364C29.3125 14.4979 28.581 14.5688 28.2497 14.228C28.1887 14.1641 28.1429 14.0875 28.1155 14.0036C28.0882 13.9197 28.0802 13.8308 28.0919 13.7434C28.0836 13.6496 28.0752 13.5443 28.0668 13.4307C28.0616 13.3557 28.0554 13.2629 28.047 13.1701C27.5997 13.6475 27.1159 14.0487 26.4794 14.1957H26.4606C26.3676 14.2103 26.0844 14.254 25.9151 14.0644C25.7458 13.8747 25.8106 13.6318 25.8701 13.439C25.8785 13.4078 25.8869 13.3775 25.8942 13.3484C25.944 13.1183 25.9479 12.8806 25.9057 12.649C25.889 12.5782 25.8743 12.5209 25.8618 12.476C25.7609 12.5823 25.6455 12.6738 25.519 12.7481C24.2806 13.5547 24.1301 13.883 24.5158 14.9367L24.6203 15.2243L24.3193 15.2837C24.173 15.3242 24.0183 15.3242 23.872 15.2837C23.7864 15.2497 23.7118 15.1928 23.6565 15.1192C23.6012 15.0457 23.5673 14.9584 23.5585 14.8668V14.8491C23.3422 13.1503 24.4311 12.3843 25.0163 11.9747C25.1065 11.9155 25.1924 11.85 25.2734 11.7788L25.2943 11.7569L25.3194 11.7402C25.3676 11.7036 25.4111 11.6613 25.449 11.6141C25.5633 11.4586 25.7311 11.3506 25.9203 11.3109L25.9611 11.3046L26.0018 11.3109C26.377 11.3682 26.6142 11.8643 26.7229 12.155V12.1665C26.8128 12.4411 26.8545 12.7292 26.8462 13.018C27.1532 12.7763 27.4334 12.5028 27.6823 12.2019C27.9676 11.8757 28.1734 11.6402 28.4546 11.7298C28.7534 11.8257 28.858 12.1707 28.999 13.5651C29.161 13.5964 29.5362 13.5745 30.1172 13.5026C30.2719 13.4838 30.3451 13.4745 30.3952 13.4745L30.4433 13.4672C30.553 13.4451 30.6657 13.4413 30.7767 13.4557C30.8691 13.4681 30.955 13.5103 31.0211 13.576C31.0871 13.6418 31.1298 13.7272 31.1424 13.8194L31.1497 13.8403V13.8611C31.1497 14.3468 31.0641 15.0628 30.6607 15.7121L30.6502 15.7267C29.4568 17.3692 27.5537 17.0503 26.029 16.7939C25.3455 16.6751 24.7185 16.5709 24.2451 16.6511C24.5868 16.6688 24.9714 16.7553 25.0968 17.0336C25.2013 17.2702 25.0968 17.5349 24.776 17.8225C24.219 18.4885 23.871 19.0732 23.6818 19.6714C23.4394 20.4478 23.7215 20.8939 24.6568 21.2097C24.9704 21.3139 25.2139 21.2941 25.3884 21.1524C25.775 20.847 25.8378 18.6511 25.8378 18.6511V18.6313C25.8305 18.4822 25.8127 18.3339 25.7845 18.1873C25.774 18.1206 25.7636 18.0581 25.7562 17.9997C25.746 17.9074 25.7629 17.8142 25.8051 17.7314C25.8472 17.6487 25.9127 17.58 25.9935 17.5338C26.0733 17.4876 26.1651 17.466 26.2572 17.472C26.3493 17.4779 26.4376 17.5111 26.5108 17.5672C26.8431 17.8132 27.1117 18.1456 27.3719 18.4666C27.5203 18.649 27.6603 18.822 27.8066 18.9752L27.8202 18.9898C28.6563 19.9997 29.7964 21.5828 30.5196 23.3889C31.2563 25.2274 31.4079 26.9105 30.971 28.3915C30.4673 30.1038 29.3638 31.0679 28.3908 31.9194C28.0972 32.1757 27.8202 32.4175 27.5746 32.6666L27.5684 32.6739C24.9557 35.1502 23.432 38.2132 23.4686 40.9136C24.1199 40.8364 24.7666 40.7251 25.4061 40.5801C31.04 39.3169 35.7041 35.8902 38.5414 30.9209C40.5687 27.3558 41.4542 23.2577 41.0792 19.1764C40.7042 15.095 39.0865 11.2256 36.4433 8.08737C33.8001 4.94911 30.2577 2.69207 26.2913 1.61904C22.325 0.546019 18.1245 0.708344 14.2534 2.08424C5.26172 5.29527 -0.284367 14.4468 1.06898 23.8381C2.33662 32.7312 9.47537 39.7442 18.4294 40.8917C18.6927 40.9177 18.9174 40.9438 19.1076 40.9625C19.3846 40.9917 19.6239 41.0178 19.7785 41.0261C19.74 40.9028 19.7114 40.7767 19.6928 40.6488C19.1839 38.0225 19.0146 35.6953 19.1755 33.5379C19.1755 33.4337 19.1891 33.3513 19.1954 33.2867L19.0857 33.2732C15.7875 32.799 12.645 29.911 9.74813 24.6886V24.6823C8.16697 21.6714 8.05933 21.3243 8.24848 21.0346C8.37807 20.8345 8.60798 20.847 8.79295 20.8564C8.85422 20.8595 8.91561 20.8595 8.97688 20.8564H9.00196C10.4086 20.9491 11.0994 21.1128 11.4787 21.2337C10.6249 19.0753 9.05944 17.3129 8.18891 16.3353C7.99244 16.1133 7.83569 15.9382 7.73014 15.8048C7.64131 15.6923 7.48455 15.4922 7.56502 15.3129C7.58678 15.2484 7.62495 15.1906 7.67579 15.1451C7.97677 14.8658 9.20157 14.4906 10.0867 14.574C10.6473 14.6023 11.1978 14.7334 11.7107 14.9606C11.3251 13.0545 10.2215 11.0211 8.93299 9.88721C8.67093 9.65357 8.39712 9.43338 8.11262 9.22749C7.73745 8.94818 7.48559 8.76267 7.55979 8.47919C7.6528 8.04251 8.307 8.10921 9.4482 8.26241C9.62481 8.28639 9.79098 8.30931 9.91743 8.32182H9.96968C13.966 8.98153 16.704 10.623 18.1085 13.2004C19.7702 16.2478 19.4964 20.4958 17.3174 25.4785C17.2495 25.6484 17.168 25.811 17.0896 25.9684C17.0541 26.0382 17.0196 26.107 16.9851 26.1768C19.5883 24.8907 21.0326 22.97 21.7506 22.0153C22.1163 21.5286 22.2731 21.3243 22.4915 21.3702C22.5849 21.3793 22.6735 21.4155 22.7465 21.4744C22.8092 21.5265 22.9963 21.7235 22.8061 22.0685C22.6117 22.4234 22.3651 22.7473 22.0745 23.0294L22.0139 23.093C20.7598 24.4176 18.6593 26.6364 16.2943 27.4462L16.263 27.4546C16.0341 27.5025 15.8648 27.4608 15.7614 27.3305C15.5942 27.1221 15.7091 26.8365 15.8471 26.5385C18.5004 21.1065 19.0062 16.6303 17.3101 13.5912C15.9766 11.2014 13.2856 9.67564 9.50254 9.15558C10.4648 10.0467 11.2402 11.1193 11.7839 12.3114C11.9406 12.5865 12.2395 13.4109 12.459 14.1654C12.9366 15.8111 12.7234 16.0028 12.6095 16.106L12.5834 16.129L12.5531 16.1446C12.297 16.2749 12.0546 16.13 11.7724 15.9622C11.3397 15.7058 10.6866 15.3202 9.50986 15.4557H9.4597C9.4597 15.4557 8.96643 15.5474 8.72816 15.6131C10.3229 17.3431 11.5132 18.9252 12.4903 21.3327V21.341C12.6743 21.8392 12.7453 22.1873 12.5311 22.3832C12.3169 22.5791 12.0274 22.4384 11.7494 22.303L11.6365 22.2509L11.624 22.2446C11.2133 22.0247 9.91534 21.8142 9.31025 21.7725C11.3032 26.3884 15.0152 31.8276 19.1139 32.4123L19.1431 32.4175C19.2017 32.4332 19.2477 32.4425 19.2801 32.4478C19.2809 32.3425 19.2936 32.2376 19.3177 32.1351C19.603 30.1549 20.1537 28.4645 21.0044 26.9824C21.9278 25.36 23.258 24.0046 24.8648 23.0492L24.8836 23.0388C24.9286 23.0169 24.9975 22.9752 25.0707 22.9293C25.3905 22.7334 25.7541 22.5124 25.9997 22.7511L26.0217 22.7761C26.8057 23.7742 27.2933 24.9715 27.4294 26.2321C27.5673 27.5869 27.2548 28.8376 26.5233 29.8621C25.1062 31.91 22.5793 32.8417 21.5572 33.146C21.1387 33.2631 20.7081 33.3316 20.2739 33.3503L20.0764 33.3649C19.8814 35.8148 20.064 38.2801 20.6177 40.6749C20.6825 40.9698 20.7337 41.2033 20.7546 41.369C20.8163 41.8359 20.5916 41.8901 20.5184 41.9099C20.3537 41.9504 20.1844 41.97 20.0147 41.9683ZM19.6166 32.9115C19.6338 32.9269 19.6489 32.9444 19.6615 32.9636V32.8761L19.6301 32.9022L19.6166 32.9115ZM25.5734 23.6901C25.1891 23.9056 24.8191 24.1455 24.4656 24.4082C22.1383 26.0757 20.416 29.368 20.2091 32.4853C21.344 32.43 22.5814 31.9642 23.9776 31.07C26.2767 29.6109 27.1012 27.4223 26.239 25.0836L26.2317 25.0606V25.0471L26.2244 25.0419L26.2004 24.9627C26.0558 24.5098 25.8445 24.081 25.5734 23.6901ZM12.0807 21.8861L12.1037 21.8965V21.883L12.0807 21.8861ZM26.2934 18.081C26.2945 18.093 26.2966 18.1048 26.2997 18.1164C26.3049 18.1519 26.3122 18.1873 26.3174 18.2269C26.3338 18.216 26.3513 18.207 26.3697 18.1998C26.383 18.195 26.3966 18.1912 26.4104 18.1883C26.3739 18.1508 26.3352 18.1154 26.2944 18.0841L26.2934 18.081ZM24.5116 17.242C24.5282 17.2724 24.5389 17.3056 24.5429 17.34C24.5621 17.3181 24.5795 17.2947 24.5952 17.2702C24.5688 17.2577 24.5411 17.2483 24.5126 17.242H24.5116ZM23.1258 17.0847C23.1112 17.1159 23.0966 17.1493 23.083 17.1837L23.177 17.1472L23.1656 17.1357C23.1509 17.1201 23.138 17.103 23.1269 17.0847H23.1258ZM12.1423 15.6329L12.2071 15.6683C12.2071 15.6464 12.2071 15.6224 12.2071 15.5953C12.1876 15.6111 12.1657 15.6238 12.1423 15.6329ZM26.3676 13.6391C26.3676 13.6569 26.3582 13.6746 26.3551 13.6923H26.376C26.3892 13.6908 26.4022 13.6876 26.4146 13.6829C26.3977 13.6693 26.382 13.6543 26.3676 13.6381V13.6391ZM28.2612 12.3645C28.2816 12.3681 28.3015 12.3737 28.3208 12.3812C28.3156 12.3583 28.3093 12.3385 28.3041 12.3197C28.288 12.3313 28.2736 12.3449 28.2612 12.3604V12.3645ZM8.23699 8.66054L8.42092 8.79811L8.44913 8.81895C8.45097 8.79292 8.45661 8.76729 8.46585 8.74287C8.47452 8.71812 8.48647 8.69463 8.50138 8.67304C8.40628 8.66575 8.31536 8.66158 8.23699 8.66054Z" fill="#3B3B3B"/>
<path d="M30.3136 14.1614C30.2363 14.3829 30.1058 14.5823 29.9335 14.742C29.7611 14.9016 29.5522 15.0168 29.325 15.0775L29.2288 15.1014C28.8584 15.1869 28.4771 15.2151 28.0981 15.1848C27.6461 15.1602 27.2008 15.0653 26.7782 14.9034C26.5868 14.8315 26.3863 14.7866 26.1825 14.77C25.9928 14.7576 25.8023 14.773 25.6171 14.8159C25.3874 14.8595 25.1643 14.9328 24.9535 15.0337C24.8553 15.0796 24.7612 15.1379 24.664 15.1869C24.6261 15.207 24.5871 15.2247 24.547 15.2401C24.5376 15.1973 24.4812 15.1786 24.4644 15.1358C24.4111 15.0076 24.4247 14.8482 24.3923 14.719C24.3445 14.543 24.321 14.3614 24.3223 14.1791C24.3278 13.8719 24.4119 13.5713 24.5669 13.3057C24.7256 13.0455 24.9303 12.816 25.1709 12.6283C25.2242 12.5844 25.28 12.5437 25.3381 12.5064C25.5707 12.3572 25.7872 12.1843 25.984 11.9905C25.9914 11.9833 26.0013 11.9792 26.0116 11.9792C26.022 11.9792 26.0319 11.9833 26.0393 11.9905C26.0694 12.0316 26.0967 12.0748 26.1209 12.1197C26.1534 12.1866 26.1796 12.2564 26.1992 12.3281C26.2338 12.4478 26.2555 12.5708 26.264 12.695C26.2757 12.9282 26.2503 13.1617 26.1888 13.387C26.1721 13.4426 26.1574 13.4989 26.1449 13.5559C26.1405 13.5792 26.1409 13.6032 26.146 13.6264C26.1511 13.6496 26.1608 13.6716 26.1745 13.691C26.1883 13.7104 26.2058 13.7269 26.226 13.7395C26.2462 13.7521 26.2687 13.7605 26.2922 13.7643C26.3797 13.7741 26.4683 13.7659 26.5525 13.7403C26.7989 13.6704 27.0305 13.5564 27.2359 13.4037C27.3615 13.3159 27.4797 13.218 27.5892 13.1108C27.7769 12.9141 27.9515 12.7052 28.1117 12.4855C28.1179 12.4772 28.1848 12.4918 28.1974 12.4855C28.2003 12.4916 28.2027 12.4979 28.2047 12.5043C28.2505 12.688 28.2778 12.8758 28.2862 13.065C28.2862 13.2734 28.3019 13.4662 28.3259 13.6757C28.3321 13.7485 28.3657 13.8163 28.42 13.8654C28.4724 13.9176 28.5388 13.9538 28.6112 13.9696C28.7249 13.9979 28.8411 14.0143 28.9582 14.0186C29.0825 14.0186 29.2069 14.0259 29.3302 14.0186C29.5852 13.9977 29.8402 13.9905 30.0931 13.954C30.1656 13.9457 30.2386 13.9425 30.3115 13.9446C30.3209 13.9446 30.3376 13.9613 30.3397 13.9727C30.3449 14.002 30.3449 14.032 30.3397 14.0613C30.3333 14.0952 30.3246 14.1287 30.3136 14.1614Z" fill="#3B3B3B"/>
</g>
<defs>
<clipPath id="clip0_455_6436">
<rect width="42" height="42" fill="white"/>
</clipPath>
</defs>
</svg>
