<svg width="67" height="93" viewBox="0 0 67 93" fill="none" xmlns="http://www.w3.org/2000/svg">
<path d="M19.6002 93.0001C18.7847 93.0132 17.9785 92.8276 17.2525 92.4595C16.4628 92.022 15.712 91.5191 15.0079 90.9561C14.3158 90.4105 13.6918 89.9671 13.1561 89.621C12.5721 89.2668 11.944 88.9897 11.2876 88.7968C10.477 88.5637 9.63568 88.4526 8.79178 88.4671C7.43075 88.4671 6.87669 88.5215 6.65207 88.5693C6.51371 88.5973 6.37014 88.5849 6.23874 88.5337C6.10733 88.4825 5.99372 88.3947 5.91165 88.2808C5.82359 88.1593 5.76224 88.0208 5.73157 87.8743C5.70091 87.7277 5.7016 87.5765 5.73362 87.4303L9.46065 70.5904C8.86028 70.9732 8.34691 71.4756 7.9532 72.0657C7.35588 72.9674 7.05139 74.0932 7.05139 75.4152C7.05139 76.1998 7.14457 76.4768 7.18616 76.5575C7.39082 76.9795 7.43408 77.1048 7.43408 77.2565V77.8334H6.85173C5.73196 77.8334 4.86509 77.5812 4.27609 77.0867C3.66046 76.5674 3.34766 75.7416 3.34766 74.6306C3.34766 73.2262 3.90005 71.9157 4.98821 70.7371C6.11094 69.555 7.48289 68.6325 9.00642 68.0354C10.5472 67.3935 12.2001 67.0575 13.8715 67.0464C14.2209 67.0464 14.4822 67.0563 14.6718 67.0761L15.3124 67.1453L11.409 85.3533C11.821 85.3896 12.2297 85.4557 12.632 85.5511C13.1168 85.6668 13.595 85.8082 14.0645 85.9747L17.953 67.9596C18.0087 67.7053 18.1504 67.4774 18.3546 67.3138C18.5588 67.1501 18.8134 67.0604 19.0761 67.0596H21.8497C22.021 67.0595 22.1901 67.0974 22.3448 67.1704C22.4994 67.2435 22.6355 67.3499 22.7432 67.4819C22.8509 67.6139 22.9274 67.7681 22.9671 67.9332C23.0069 68.0983 23.0088 68.2701 22.9728 68.436L18.7433 87.9841C19.363 88.2384 20.0231 88.3823 20.6933 88.4094C21.5901 88.4094 22.2873 88.2792 22.7631 88.0204L23.7265 87.4978L23.6217 88.5808C23.4819 90.0462 23.1225 91.1144 22.5086 91.843C21.8663 92.6111 20.888 93.0001 19.6002 93.0001ZM17.8032 91.4391C18.3609 91.7195 18.9799 91.8594 19.6052 91.8463C20.5419 91.8463 21.2008 91.604 21.6168 91.1078C21.9495 90.7188 22.1808 90.1452 22.3339 89.3984C21.7969 89.5155 21.2481 89.5708 20.6983 89.5633C19.883 89.5633 18.9496 89.3358 17.8465 88.8677L17.4022 88.683L21.8297 68.2134H19.0894L14.9197 87.5292L14.2825 87.2836C13.6586 87.0356 13.0182 86.8307 12.3657 86.6704C11.8201 86.5459 11.2618 86.4834 10.7019 86.4841H9.9831L13.8948 68.1871H13.8699C12.3507 68.1978 10.8485 68.5048 9.449 69.0904C8.08342 69.622 6.85333 70.446 5.84676 71.5036C4.94662 72.4762 4.51568 73.4949 4.51568 74.6174C4.51568 75.374 4.69038 75.9048 5.03314 76.1933C5.31121 76.4076 5.64102 76.5463 5.98985 76.5955C5.91543 76.2021 5.88198 75.8022 5.89002 75.402C5.89002 73.8509 6.25773 72.5108 6.98317 71.4195C7.73131 70.3059 8.80966 69.4495 10.0696 68.9684L11.0912 68.5612L6.93159 87.3528C7.36919 87.3149 7.97483 87.2968 8.78346 87.2968C9.74891 87.2852 10.7105 87.4191 11.6353 87.694C12.3905 87.9182 13.1126 88.2396 13.7833 88.6501C14.354 89.0127 15.0079 89.4841 15.73 90.0512C16.3799 90.5716 17.0734 91.0359 17.8032 91.4391Z" fill="#3B3B3B"/>
<path d="M31.8112 87.8423C30.8794 87.8423 30.1157 87.5703 29.5417 87.0346C29.2448 86.756 29.0096 86.4192 28.8512 86.0456C28.4586 86.5296 27.9756 86.9343 27.4286 87.2374C26.7036 87.6316 25.8912 87.8411 25.0643 87.8473C24.0327 87.8473 23.1808 87.5176 22.5335 86.8582C21.8863 86.1989 21.5602 85.2527 21.5602 84.0197C21.5781 83.3889 21.6572 82.7613 21.7964 82.1455L23.5951 73.7388C23.6405 73.5301 23.7565 73.343 23.9238 73.2084C24.0911 73.0739 24.2997 72.9999 24.5152 72.9987H27.7148C27.855 72.9986 27.9935 73.0296 28.1201 73.0893C28.2467 73.149 28.3582 73.236 28.4465 73.3439C28.5349 73.4518 28.5978 73.5779 28.6306 73.7129C28.6635 73.848 28.6655 73.9886 28.6365 74.1245L26.7547 82.8922C26.7109 83.1022 26.6875 83.3158 26.6848 83.5302C26.6848 84.0626 26.8229 84.0626 26.9228 84.0626C27.0912 84.0621 27.2571 84.0228 27.4076 83.9478C27.558 83.8729 27.6888 83.7643 27.7896 83.6307C28.1425 83.1828 28.3985 82.6677 28.5417 82.1175L30.3353 73.7355C30.3808 73.5268 30.4967 73.3397 30.664 73.2051C30.8313 73.0706 31.04 72.9966 31.2554 72.9954H34.455C34.5952 72.9952 34.7337 73.0262 34.8602 73.0859C34.9867 73.1457 35.0982 73.2327 35.1864 73.3406C35.2746 73.4486 35.3374 73.5747 35.37 73.7098C35.4027 73.8448 35.4044 73.9854 35.3751 74.1212L33.4933 82.9219C33.4332 83.1562 33.4036 83.3972 33.4051 83.639C33.3914 83.7564 33.4135 83.8752 33.4684 83.9802C33.4684 83.9802 33.5682 84.0626 33.9426 84.0626C34.3602 84.0626 34.9093 83.9489 35.1256 83.6999L36.0107 84.45C35.3968 85.1621 34.2753 85.2214 33.9426 85.2214C33.3868 85.2214 32.9792 85.0978 32.693 84.8456C32.4068 84.5934 32.2404 84.1747 32.2404 83.6439C32.2384 83.307 32.2804 82.9712 32.3652 82.645L34.1788 74.1542H31.4368L29.6665 82.4192C29.601 82.6389 29.5295 82.8466 29.4518 83.0422L29.5067 82.9549L29.6864 84.6313C29.7613 85.3335 29.9809 85.8593 30.3403 86.194C30.6997 86.5286 31.1723 86.6885 31.8112 86.6885C32.6298 86.6885 33.8744 86.2154 34.841 85.5346L35.5066 86.4775C34.5465 87.1583 33.0275 87.8423 31.8112 87.8423ZM24.6899 74.1492L22.9312 82.3779C22.811 82.9171 22.7419 83.4662 22.7249 84.0181C22.7249 84.9379 22.9395 85.622 23.3638 86.0489C23.7881 86.4758 24.3471 86.6885 25.0643 86.6885C25.7006 86.6813 26.3251 86.517 26.8812 86.2104C27.4286 85.922 27.9727 85.3681 28.5001 84.5621C28.2948 84.7698 28.0492 84.9344 27.7782 85.046C27.5072 85.1576 27.2163 85.2139 26.9228 85.2115C26.59 85.2115 25.5201 85.0895 25.5201 83.5252C25.5226 83.2328 25.5538 82.9413 25.6133 82.6549L27.4336 74.1443L24.6899 74.1492Z" fill="#3B3B3B"/>
<path d="M45.869 87.8422C44.5879 87.8422 43.6178 87.4795 42.9856 86.7658C42.3668 86.0568 42.0375 85.1444 42.0621 84.2075C42.0676 83.7396 42.1172 83.2733 42.2102 82.8146C42.3017 82.3349 42.3982 81.8602 42.4997 81.4036C42.6012 80.947 42.6661 80.6651 42.7094 80.5201C42.8525 79.8986 42.9872 79.2805 43.112 78.6788C43.2162 78.2284 43.2764 77.7692 43.2917 77.3074C43.2917 76.5029 43.0405 76.5029 42.8907 76.5029C42.7077 76.5029 42.4248 76.5524 42.0937 76.9727C41.7398 77.4485 41.4791 77.9859 41.325 78.5568L39.5331 86.9405C39.4873 87.1489 39.3712 87.3356 39.2039 87.4698C39.0367 87.6041 38.8282 87.6779 38.613 87.679H35.4134C35.2732 87.6791 35.1348 87.6481 35.0082 87.5884C34.8817 87.5287 34.7702 87.4416 34.682 87.3337C34.5938 87.2258 34.5311 87.0996 34.4984 86.9646C34.4657 86.8295 34.464 86.6889 34.4933 86.5531L37.2353 73.7353C37.2808 73.5264 37.397 73.3391 37.5646 73.2045C37.7323 73.0699 37.9413 72.996 38.1571 72.9952H41.355C41.4954 72.995 41.634 73.0259 41.7607 73.0859C41.8874 73.1458 41.999 73.2331 42.0871 73.3414C42.1492 73.4174 42.1992 73.5024 42.2352 73.5936C42.9685 73.1271 43.8229 72.8819 44.6943 72.8881C45.7709 72.8881 46.6477 73.1946 47.3033 73.7996C47.9588 74.4046 48.3016 75.3326 48.3016 76.5227C48.2943 77.1465 48.2264 77.768 48.0986 78.3788C47.9705 79.025 47.7841 79.8228 47.5462 80.7508C47.4031 81.2997 47.2716 81.8437 47.1535 82.3695C47.0599 82.7411 47.0042 83.121 46.9871 83.5036C46.9733 83.6692 47.0129 83.8349 47.1003 83.9767C47.1269 84.0097 47.24 84.0624 47.4963 84.0624C47.66 84.0716 47.8236 84.0425 47.9739 83.9775C48.1242 83.9125 48.2569 83.8134 48.3615 83.6882C48.738 83.1852 49.0374 82.6297 49.25 82.0399L50.3132 79.4025L50.408 83.8531C50.408 84.3229 50.0653 85.8427 48.9588 86.6899C47.9854 87.4597 46.9422 87.8422 45.869 87.8422ZM43.8608 86.0042C44.2634 86.4575 44.9373 86.6883 45.869 86.6883C46.6893 86.6883 47.4713 86.3949 48.2567 85.7932C48.6205 85.4844 48.8964 85.0866 49.057 84.6394C48.6329 85.0194 48.078 85.2241 47.5063 85.2113C46.9239 85.2113 46.488 85.0465 46.2101 84.702C45.9451 84.3574 45.8114 83.9313 45.8324 83.4987C45.8467 83.0323 45.9109 82.5687 46.0238 82.1157C46.1436 81.5767 46.2783 81.0195 46.4247 80.4591C46.6577 79.5541 46.8391 78.7761 46.9638 78.1513C47.0756 77.6137 47.1358 77.0667 47.1435 76.5178C47.1435 75.6606 46.9306 75.0342 46.5096 74.6386C46.0887 74.243 45.4764 74.037 44.6943 74.037C43.6378 74.037 42.7343 74.4688 41.9323 75.3557L40.4765 76.9793L41.0805 74.1474H38.3368L35.6896 86.5251H38.4349L40.2053 78.2535C40.3996 77.5339 40.7305 76.8576 41.1803 76.2606C41.6578 75.6557 42.2352 75.3491 42.8941 75.3491C43.3649 75.3491 44.4597 75.5403 44.4597 77.3074C44.4453 77.8473 44.3773 78.3845 44.2567 78.9112C44.1286 79.5261 43.9905 80.1574 43.8441 80.7904L43.8358 80.8217C43.8142 80.8992 43.7609 81.1085 43.6411 81.6459C43.5413 82.0893 43.4465 82.5525 43.3566 83.0223C43.2783 83.4105 43.236 83.805 43.2302 84.2009C43.2053 84.8576 43.4317 85.4993 43.8641 85.9976L43.8608 86.0042Z" fill="#3B3B3B"/>
<path d="M60.1699 87.8867C59.7631 87.9008 59.3576 87.8352 58.9764 87.6938C58.5953 87.5524 58.246 87.3378 57.9487 87.0625C57.6527 86.7771 57.4149 86.438 57.2482 86.0636C56.165 87.2735 54.8805 87.8768 53.4213 87.8768C52.8608 87.8895 52.3036 87.7868 51.7852 87.5751C51.2668 87.3635 50.7985 87.0475 50.4098 86.6471C49.6111 85.8361 49.2068 84.5899 49.2068 82.9432C49.2276 81.4385 49.5119 79.9487 50.047 78.5404C50.577 77.0452 51.4482 75.6913 52.5927 74.5843C53.147 74.0392 53.8053 73.609 54.5292 73.3186C55.253 73.0283 56.028 72.8836 56.8089 72.893C57.6841 72.893 58.338 73.0579 58.8056 73.376L58.8538 73.409C58.9414 73.2912 59.0557 73.1954 59.1875 73.1292C59.3192 73.0631 59.4648 73.0285 59.6125 73.0282H62.8088C62.949 73.0281 63.0875 73.0591 63.2141 73.1188C63.3407 73.1786 63.4522 73.2655 63.5405 73.3734C63.6289 73.4813 63.6918 73.6074 63.7246 73.7424C63.7575 73.8775 63.7595 74.0181 63.7306 74.154L61.8487 82.9547C61.7872 83.1888 61.7569 83.4299 61.7589 83.6718C61.745 83.7889 61.7676 83.9074 61.8238 84.0113C61.8238 84.0113 61.9219 84.0954 62.2963 84.0954C62.4554 84.0945 62.6121 84.1331 62.7522 84.2077C62.8923 84.2823 63.0113 84.3905 63.0983 84.5223C63.1841 84.6518 63.2357 84.8005 63.2485 84.9549C63.2613 85.1092 63.2348 85.2643 63.1715 85.4059C62.9274 86.0073 62.5937 86.569 62.1815 87.0724C61.7106 87.618 61.0318 87.8867 60.1699 87.8867ZM57.3214 84.7037C57.3772 84.7039 57.4329 84.7088 57.4878 84.7185C57.6534 84.7483 57.8079 84.8217 57.9349 84.931C58.062 85.0404 58.157 85.1816 58.2099 85.3399C58.3144 85.677 58.5013 85.9833 58.754 86.2317C58.9448 86.4029 59.1682 86.5348 59.411 86.6197C59.6538 86.7046 59.9112 86.7408 60.1682 86.7262C60.689 86.7262 61.0651 86.5911 61.3163 86.3108C61.5856 85.9848 61.8094 85.6244 61.9818 85.2394C61.6419 85.2205 61.317 85.094 61.0551 84.8784C60.7556 84.613 60.6025 84.2091 60.6025 83.6784C60.6006 83.3409 60.6426 83.0046 60.7273 82.6778L62.5426 74.1886H59.7972L58.4395 80.6651V80.5283L58.0352 82.419C57.8893 83.1917 57.5125 83.9032 56.9537 84.4614C56.398 84.9888 55.8073 85.2575 55.1983 85.2575C54.9445 85.2625 54.6921 85.2173 54.4561 85.1244C54.2202 85.0316 54.0052 84.893 53.824 84.7168C53.433 84.3427 53.25 83.6602 53.25 82.574C53.2745 81.4635 53.4468 80.3611 53.7624 79.2953C54.0615 78.1543 54.5507 77.0707 55.21 76.0892C55.9055 75.0887 56.7274 74.5826 57.6558 74.5826C57.9215 74.578 58.1852 74.6291 58.4295 74.7326C58.4117 74.6499 58.3769 74.5717 58.3274 74.5028C58.2779 74.434 58.2147 74.3758 58.1417 74.332C57.962 74.2084 57.5826 74.0584 56.8106 74.0584C56.18 74.0483 55.5538 74.1643 54.9695 74.3994C54.3852 74.6344 53.8546 74.9838 53.4097 75.4266C52.3935 76.411 51.6197 77.6141 51.1485 78.9426C50.6598 80.2253 50.3992 81.5822 50.3781 82.9531C50.3781 84.2883 50.671 85.2608 51.25 85.8526C51.5304 86.1425 51.8692 86.3706 52.2444 86.5223C52.6197 86.6739 53.0229 86.7457 53.428 86.7328C54.6426 86.7328 55.6758 86.1856 56.5893 85.0564C56.6773 84.9475 56.7887 84.8594 56.9153 84.7984C57.0419 84.7374 57.1806 84.705 57.3214 84.7037ZM57.6542 75.7381C57.1251 75.7381 56.6392 76.0678 56.1683 76.7453C55.5831 77.6203 55.149 78.5857 54.8839 79.6019C54.5933 80.5708 54.4333 81.5734 54.408 82.5838C54.408 83.6784 54.6176 83.891 54.626 83.9025C54.7003 83.9751 54.7888 84.0318 54.8861 84.0693C54.9834 84.1067 55.0874 84.124 55.1917 84.1201C55.4895 84.1201 55.809 83.9553 56.1401 83.6454C56.5303 83.2453 56.7916 82.7392 56.8905 82.1915L58.1849 76.1552C58.1626 76.0495 58.1134 75.9514 58.0418 75.87C58.0235 75.8255 57.9503 75.7381 57.6558 75.7381H57.6542Z" fill="#3B3B3B"/>
<path d="M40.7477 33.1441C39.5348 35.549 36.9675 33.5215 36.6497 32.3199C36.3169 30.0121 38.6213 28.3638 39.8576 26.7896C40.8409 27.9846 41.0689 30.1077 41.0639 31.7677C41.0659 32.2444 40.9578 32.7152 40.7477 33.1441V33.1441Z" fill="#3B3B3B"/>
<path d="M30.9276 50.8937C30.9359 50.7602 30.9359 50.6267 30.9559 50.4964C31.1334 49.2734 31.4004 48.0647 31.7545 46.8799C32.1294 45.6258 32.6276 44.4111 33.242 43.2535C34.11 41.6058 35.2602 40.12 36.6413 38.8622C37.6003 37.9965 38.6572 37.2437 39.791 36.6187C39.8459 36.5891 39.8991 36.561 39.9573 36.5347C39.9725 36.5258 39.9893 36.52 40.0067 36.5176C40.0242 36.5152 40.0419 36.5163 40.0589 36.5207C40.0759 36.5252 40.0919 36.5329 40.1059 36.5435C40.1199 36.5541 40.1316 36.5673 40.1404 36.5825C40.1404 36.5825 40.1404 36.5825 40.1404 36.5825L40.1637 36.6121C40.63 37.2947 41.0121 38.0302 41.3017 38.8028C41.31 38.838 41.315 38.8739 41.3167 38.91L41.3749 39.0748L41.4931 39.6419C41.6629 40.3995 41.7472 41.1735 41.7443 41.9496C41.7443 42.1804 41.7027 42.4078 41.6877 42.637C41.6559 43.0118 41.5879 43.3827 41.4848 43.7447C41.1624 44.9194 40.5494 45.9959 39.7011 46.8766C39.2142 47.3894 38.6718 47.8477 38.0838 48.2431C37.0999 48.9046 36.0383 49.4448 34.9225 49.8519C33.8829 50.2417 32.8135 50.5487 31.7246 50.7701C31.4631 50.8342 31.1964 50.8755 30.9276 50.8937Z" fill="#3B3B3B"/>
<path d="M48.2883 23.4945C48.3249 23.3478 48.6211 22.306 48.4414 22.3505C48.3993 22.3596 48.3563 22.3645 48.3133 22.3654C47.26 22.4148 44.9972 22.8714 45.1519 21.7324C45.087 21.0566 45.0504 19.8252 44.8774 19.9653C44.117 20.8357 43.2568 21.7786 42.0655 22.0456C41.2818 22.1676 41.5264 21.6533 41.6395 21.1934C41.7313 20.773 41.7375 20.3387 41.6578 19.9159C41.3251 18.4587 41.1337 19.4214 40.4149 19.8021C38.3734 21.1208 37.9192 21.8082 38.6413 23.7583C38.222 23.8423 37.9974 23.8341 37.9175 23.4286C37.5315 20.4203 40.0206 19.4477 40.5364 18.9104C40.8309 18.7192 40.9607 18.3532 41.3284 18.2955C41.746 18.3582 42.0688 19.156 42.147 19.3637C42.6695 20.9956 41.7893 21.617 42.6894 21.1307C45.0787 19.5796 45.2917 16.8631 45.7676 21.5873C45.6544 22.1775 48.2633 21.6912 48.4131 21.7192C48.6876 21.6879 49.1069 21.5643 49.1668 21.9187C49.1857 22.869 48.9399 23.806 48.4564 24.627C45.3366 28.9276 38.8343 24.0105 37.1738 26.7797C37.1288 26.9561 37.6629 26.7962 37.821 26.7797C38.7744 26.6742 40.3933 26.8045 39.1421 27.9039C38.3551 28.8369 37.6746 29.8375 37.3002 30.9913C36.7611 32.7106 37.7594 33.487 39.1188 33.942C41.7344 34.7892 41.6861 31.11 41.5414 29.4682C41.518 29.1206 41.4753 28.7744 41.4133 28.4314C41.4074 28.3881 41.4104 28.344 41.4219 28.3018C41.4335 28.2596 41.4534 28.2201 41.4805 28.1856C41.5076 28.1511 41.5413 28.1222 41.5798 28.1008C41.6182 28.0793 41.6606 28.0656 41.7044 28.0605C41.7916 28.0497 41.8795 28.0734 41.949 28.1265C42.7194 28.6952 43.2884 29.6199 43.959 30.3122C47.1885 34.2106 50.3648 39.8646 48.8989 44.818C47.9006 48.2202 45.2917 49.7021 43.5962 51.4115C39.801 54.9852 36.7245 60.1281 36.9508 65.1277C36.9774 65.2315 37.1022 65.2101 37.2337 65.1969C38.3448 65.0748 39.448 64.8905 40.5381 64.6447C59.4727 60.4232 70.2778 41.1141 64.3528 23.1434C61.8064 15.5 56.4636 9.07819 49.3766 5.14248C42.2896 1.20677 33.9721 0.0424468 26.0619 1.87879C18.1516 3.71513 11.2221 8.41905 6.63776 15.0642C2.05344 21.7094 0.146618 29.8142 1.2928 37.7827C3.35597 52.1895 14.9663 63.3326 29.2921 65.1458C32.7862 65.492 31.9393 65.5777 31.7646 64.2804C31.0458 60.6012 30.6631 56.8627 30.946 53.1093C30.9909 52.2274 31.1689 52.3511 30.4468 52.2522C23.6367 51.2796 18.6551 43.8158 15.8948 38.864C12.6353 32.6859 13.2326 33.4392 14.3041 33.4112C18.2857 33.6716 18.5469 34.2799 18.9513 34.2255C17.121 28.771 12.1761 24.6649 12.4389 24.3649C12.4389 24.0616 14.5237 23.3148 16.0262 23.4566C18.0727 23.567 19.106 24.4588 19.1875 24.3121C18.7067 20.9527 16.7633 17.2884 14.5021 15.3103C13.2725 14.1993 12.3574 13.8037 12.4473 13.4855C12.5321 13.0306 14.7617 13.4542 15.75 13.5531C31.515 16.1543 32.6115 27.988 27.1923 40.2998C26.9028 41.0119 26.4386 41.6827 26.3221 42.3569C32.8644 39.5547 35.3835 34.1777 35.8144 34.331C35.8277 34.3194 36.2703 34.3639 36.0057 34.8255C35.648 35.5343 35.0424 36.1096 34.7978 36.3651C32.6564 38.6184 29.3903 41.9696 25.8013 43.191C25.204 43.3163 25.3155 42.9157 25.6 42.3141C34.4417 24.3451 27.6499 15.3152 14.003 13.929C13.7417 13.929 13.9114 14.0592 14.1577 14.2586C15.9996 15.7323 17.3523 17.5917 18.344 19.6983C18.7682 20.4219 20.2524 24.7967 19.7582 25.2401C19.1759 25.5336 18.141 23.7319 15.0179 24.0995C14.0046 24.1868 12.988 24.4176 13.4073 24.8017C15.9763 27.5545 17.9097 30.0452 19.482 33.909C20.1226 35.6348 19.4038 35.1535 18.6934 34.8222C17.6951 34.2914 14.0179 33.8332 14.201 34.0952C17.1044 40.9608 23.1858 50.6697 30.3703 51.6917C31.3553 51.9406 31.0075 51.5137 31.1656 50.9285C31.5732 48.1015 32.3819 45.3702 33.8028 42.9042C35.2388 40.4004 37.3054 38.3081 39.801 36.8316C40.1437 36.6667 40.8858 36.0931 41.0988 36.2991C43.4515 39.2662 44.2268 43.7663 41.8875 47.0136C40.0789 49.6082 36.8743 51.2582 34.2005 52.0511C32.5849 52.4994 31.688 52.2373 31.5666 52.5307C30.8694 61.0512 33.0824 65.7755 32.5649 65.9024C32.1646 65.9912 31.7515 66.008 31.3453 65.9519C29.1074 65.7623 26.9477 65.4573 24.803 64.8672C-6.54894 55.7813 -7.76189 14.0345 21.7299 2.55349C41.3717 -4.67796 61.5159 7.26291 65.7621 26.0446C69.8202 44.2163 57.9569 61.9628 39.6163 65.4145C38.2852 65.6766 36.8377 65.909 36.5265 65.7639C35.6946 62.3732 37.9075 57.2187 40.5281 53.9236C43.5064 50.045 45.5047 49.3741 47.097 47.1653C51.2566 41.269 46.4631 33.9584 42.38 29.3314C42.2252 29.1666 42.1088 29.0924 42.0988 29.2127C42.4781 32.4106 41.766 36.1162 37.9225 34.0623C35.4617 32.676 36.6663 29.8853 38.5215 27.6748C38.638 27.5281 38.6879 27.4457 38.6396 27.3946C37.1139 27.1061 36.5465 28.0144 36.3102 27.5743C36.2829 27.5199 36.2669 27.4607 36.2631 27.4001C36.2594 27.3395 36.2681 27.2787 36.2886 27.2215C37.3967 24.0368 41.3401 25.738 42.8192 25.7907C44.7975 26.0281 47.849 25.8566 48.2883 23.4945ZM42.1487 39.5052C42.1337 39.4475 42.1487 39.3816 42.0904 39.3404C41.8182 38.4926 41.4098 37.6939 40.8808 36.975C40.7727 36.909 40.761 36.9469 40.6179 37.0145C39.946 37.3788 39.3005 37.7892 38.6862 38.2426C34.4916 41.2327 31.8994 46.8949 31.7163 51.7725C34.1139 51.7956 36.3984 50.7241 38.3834 49.4648C42.2219 47.0433 43.5962 43.4119 42.1487 39.5085V39.5052Z" fill="#3B3B3B"/>
<path d="M31.866 66.3789C31.6797 66.3789 31.4933 66.3673 31.3103 66.3475C28.6581 66.1217 26.6199 65.7821 24.6948 65.2497C17.2424 63.092 11.0096 58.9315 6.65865 53.2165C2.63379 47.9186 0.344328 41.5394 0.0348513 34.7646C-0.119148 31.452 0.217189 28.1349 1.03316 24.9188C1.86077 21.665 3.18492 18.5555 4.95985 15.6977C8.75344 9.59873 14.4987 4.92063 21.5751 2.16618C26.22 0.429005 31.1936 -0.27554 36.1438 0.102411C40.7906 0.461443 45.3082 1.79058 49.3997 4.00248C65.6821 12.7043 71.7602 32.8376 62.9751 48.9687C60.6065 53.3185 57.2871 57.0894 53.2593 60.0057C49.2315 62.922 44.5971 64.9102 39.6944 65.825C36.8659 66.3789 36.5181 66.2206 36.3518 66.1431L36.1671 66.0607L36.1188 65.8646C35.252 62.3173 37.5165 57.0457 40.2002 53.6665C41.4329 52.056 42.8469 50.5899 44.4148 49.2967C45.3083 48.5269 46.0786 47.8642 46.7592 46.9263C50.4862 41.6515 46.6976 35.0382 42.5995 30.2183C42.6578 31.7019 42.4797 33.8052 41.1719 34.6854C40.3034 35.2657 39.1437 35.18 37.7244 34.425H37.7161C36.8426 33.9305 36.3218 33.2497 36.1654 32.3909C35.8642 30.7425 37.0256 28.893 37.9241 27.7606C37.6119 27.7824 37.3057 27.8571 37.019 27.9815C36.7411 28.0903 36.2236 28.293 35.9474 27.7721C35.8929 27.6679 35.8604 27.5538 35.8521 27.4367C35.8438 27.3196 35.8598 27.2021 35.8992 27.0914C36.8975 24.2347 39.8924 24.838 41.6944 25.1974C42.0699 25.2907 42.454 25.346 42.8408 25.3622H42.8757C43.9406 25.5106 47.4497 25.7397 47.8806 23.4204V23.3957C47.8855 23.366 47.8927 23.3368 47.9022 23.3083C47.9621 23.0891 48.0021 22.9242 48.0287 22.8023L47.6959 22.8336C46.6693 22.9308 45.5046 23.0429 44.9772 22.5039C44.88 22.4029 44.807 22.2816 44.7635 22.149C44.72 22.0163 44.7072 21.8757 44.7259 21.7374C44.7126 21.5891 44.6993 21.4226 44.686 21.2429C44.6777 21.1242 44.6677 20.9775 44.6544 20.8308C43.9423 21.5858 43.1719 22.2204 42.1586 22.4528H42.1287C41.9806 22.4759 41.5297 22.5451 41.2601 22.2451C40.9906 21.9451 41.0937 21.561 41.1886 21.2561C41.2019 21.2066 41.2152 21.1588 41.2268 21.1127C41.3061 20.7487 41.3123 20.3729 41.2451 20.0066C41.2185 19.8945 41.1952 19.8039 41.1753 19.733C41.0146 19.901 40.8309 20.0458 40.6295 20.1632C38.6579 21.4391 38.4183 21.9583 39.0322 23.6248L39.1986 24.0798L38.7194 24.1737C38.4864 24.2378 38.2403 24.2378 38.0073 24.1737C37.871 24.1199 37.7523 24.0298 37.6642 23.9135C37.5762 23.7972 37.5222 23.6591 37.5081 23.5144V23.4863C37.1637 20.7995 38.8975 19.5879 39.8292 18.9401C39.9727 18.8464 40.1095 18.7428 40.2385 18.6302L40.2718 18.5956L40.3117 18.5692C40.3885 18.5113 40.4577 18.4443 40.518 18.3698C40.7 18.1238 40.9672 17.9529 41.2684 17.8901L41.3333 17.8802L41.3982 17.8901C41.9955 17.9808 42.3732 18.7654 42.5463 19.2253V19.2434C42.6894 19.6778 42.7558 20.1334 42.7426 20.5901C43.2313 20.2079 43.6775 19.7753 44.0737 19.2995C44.5279 18.7835 44.8557 18.411 45.3033 18.5527C45.7791 18.7044 45.9455 19.25 46.1701 21.4555C46.428 21.505 47.0254 21.4704 47.9505 21.3566C48.1967 21.327 48.3132 21.3121 48.3931 21.3121L48.4696 21.3006C48.6443 21.2657 48.8236 21.2596 49.0004 21.2825C49.1476 21.302 49.2843 21.3689 49.3895 21.4728C49.4947 21.5767 49.5625 21.7119 49.5827 21.8577L49.5944 21.8907V21.9237C49.5944 22.6918 49.4579 23.8243 48.8157 24.8512L48.799 24.8743C46.8989 27.4721 43.869 26.9677 41.4415 26.5622C40.3533 26.3743 39.355 26.2095 38.6013 26.3364C39.1454 26.3644 39.7577 26.5012 39.9573 26.9413C40.1237 27.3155 39.9573 27.7342 39.4465 28.1892C38.5597 29.2425 38.0056 30.1672 37.7045 31.1134C37.3185 32.3414 37.7677 33.047 39.2568 33.5464C39.756 33.7112 40.1437 33.6799 40.4215 33.4558C41.0372 32.9728 41.137 29.4996 41.137 29.4996V29.4683C41.1254 29.2326 41.0971 28.9979 41.0521 28.7661C41.0355 28.6606 41.0189 28.5617 41.0072 28.4694C40.9908 28.3235 41.0179 28.176 41.085 28.0451C41.1521 27.9142 41.2563 27.8056 41.3849 27.7326C41.512 27.6594 41.6581 27.6253 41.8048 27.6347C41.9515 27.6441 42.092 27.6965 42.2085 27.7853C42.7376 28.1743 43.1652 28.7002 43.5795 29.2079C43.8158 29.4963 44.0388 29.77 44.2717 30.0123L44.2933 30.0354C45.6244 31.6326 47.4397 34.1365 48.5911 36.9932C49.7641 39.9009 50.0053 42.5631 49.3098 44.9054C48.5079 47.6137 46.7508 49.1384 45.2018 50.4852C44.7342 50.8907 44.2933 51.2731 43.9023 51.6671L43.8923 51.6786C39.7327 55.5952 37.3068 60.4397 37.365 64.7107C38.4019 64.5887 39.4316 64.4126 40.4498 64.1832C49.4197 62.1854 56.8454 56.7655 61.3628 48.906C64.5905 43.2674 66.0004 36.7856 65.4033 30.3304C64.8062 23.8752 62.2307 17.7553 58.0223 12.7917C53.814 7.82815 48.174 4.25833 41.8592 2.5612C35.5443 0.864072 28.8566 1.12081 22.6932 3.29697C8.37741 8.37564 -0.452657 22.8501 1.70203 37.7036C3.72028 51.7693 15.0861 62.8612 29.3419 64.6761C29.7612 64.7173 30.119 64.7585 30.4218 64.7882C30.8627 64.8343 31.2437 64.8755 31.49 64.8887C31.4286 64.6937 31.383 64.4942 31.3535 64.292C30.5432 60.1381 30.2737 56.4573 30.5299 53.0451C30.5299 52.8803 30.5516 52.7501 30.5615 52.6479L30.3868 52.6264C25.1357 51.8764 20.1325 47.3087 15.5203 39.0487V39.0388C13.0029 34.2766 12.8315 33.7277 13.1327 33.2695C13.339 32.953 13.7051 32.9728 13.9996 32.9876C14.0971 32.9926 14.1949 32.9926 14.2924 32.9876H14.3323C16.5719 33.1343 17.6717 33.3931 18.2757 33.5843C16.9163 30.1705 14.4238 27.3831 13.0379 25.8369C12.7251 25.4858 12.4755 25.2089 12.3074 24.9979C12.166 24.8199 11.9164 24.5034 12.0445 24.2199C12.0792 24.1178 12.14 24.0264 12.2209 23.9545C12.7001 23.5127 14.6501 22.9193 16.0594 23.0512C16.9519 23.096 17.8284 23.3033 18.645 23.6627C18.0311 20.6478 16.2741 17.4318 14.2225 15.6384C13.8053 15.2689 13.3693 14.9206 12.9164 14.595C12.3191 14.1532 11.9181 13.8598 12.0362 13.4114C12.1843 12.7208 13.2259 12.8263 15.0428 13.0686C15.324 13.1065 15.5885 13.1428 15.7899 13.1625H15.8731C22.2356 14.206 26.5949 16.8022 28.8311 20.8786C31.4767 25.6985 31.0407 32.4173 27.5716 40.2982C27.4635 40.5669 27.3337 40.824 27.2089 41.0729C27.1523 41.1834 27.0974 41.2922 27.0425 41.4026C31.1872 39.3685 33.4866 36.3305 34.6297 34.8206C35.212 34.0508 35.4616 33.7277 35.8093 33.8003C35.958 33.8147 36.0992 33.872 36.2153 33.9651C36.3152 34.0475 36.613 34.3591 36.3102 34.9047C36.0007 35.4661 35.6081 35.9783 35.1455 36.4245L35.049 36.525C33.0523 38.6201 29.708 42.1295 25.9427 43.4103L25.8928 43.4235C25.5284 43.4993 25.2589 43.4334 25.0941 43.2274C24.8279 42.8977 25.0109 42.446 25.2306 41.9746C29.4551 33.3832 30.2604 26.3034 27.56 21.4967C25.4369 17.717 21.1525 15.3038 15.1293 14.4812C16.6613 15.8907 17.8959 17.5872 18.7615 19.4725C19.0111 19.9077 19.4869 21.2116 19.8364 22.405C20.5967 25.0078 20.2573 25.3111 20.076 25.4743L20.0344 25.5106L19.9861 25.5353C19.5785 25.7413 19.1924 25.5122 18.7432 25.2468C18.0544 24.8413 17.0145 24.2314 15.141 24.4457H15.0611C15.0611 24.4457 14.2758 24.5908 13.8964 24.6946C16.4354 27.4309 18.3306 29.9332 19.8863 33.7409V33.7541C20.1791 34.542 20.2923 35.0926 19.9512 35.4025C19.6101 35.7124 19.1492 35.4899 18.7066 35.2756L18.5269 35.1931L18.5069 35.1833C17.853 34.8354 15.7865 34.5025 14.8232 34.4365C17.9961 41.7372 23.9061 50.3401 30.4318 51.2649L30.4784 51.2731C30.5715 51.2978 30.6447 51.3127 30.6963 51.3209C30.6977 51.1544 30.7178 50.9885 30.7562 50.8264C31.2105 47.6945 32.0873 45.0208 33.4417 42.6768C34.9118 40.1106 37.0298 37.9669 39.5879 36.4558L39.6179 36.4393C39.6894 36.4047 39.7993 36.3388 39.9157 36.2662C40.4249 35.9563 41.0039 35.6069 41.3949 35.9844L41.4298 36.0239C42.678 37.6025 43.4545 39.4962 43.671 41.49C43.8907 43.6329 43.3932 45.6109 42.2285 47.2313C39.9723 50.4703 35.9491 51.944 34.3219 52.4253C33.6556 52.6104 32.97 52.7188 32.2786 52.7484L31.9642 52.7715C31.6538 56.6464 31.9444 60.5455 32.8261 64.3332C32.9292 64.7997 33.0107 65.169 33.044 65.431C33.1422 66.1695 32.7845 66.2552 32.668 66.2866C32.4056 66.3506 32.1362 66.3817 31.866 66.3789V66.3789ZM31.2321 52.0544C31.2595 52.0787 31.2835 52.1064 31.3036 52.1369V51.9984L31.2537 52.0396L31.2321 52.0544ZM40.716 37.4696C40.1042 37.8104 39.5151 38.1897 38.9524 38.6053C35.247 41.2427 32.5049 46.4499 32.1755 51.3802C33.9824 51.2929 35.9524 50.5561 38.1753 49.1417C41.8358 46.834 43.1486 43.3724 41.7759 39.6734L41.7643 39.6372V39.6157L41.7526 39.6075L41.7144 39.4822C41.4841 38.766 41.1477 38.0877 40.716 37.4696V37.4696ZM19.234 34.6162L19.2706 34.6327V34.6113L19.234 34.6162ZM41.8624 28.598C41.8641 28.6169 41.8675 28.6357 41.8724 28.654C41.8807 28.7101 41.8924 28.7661 41.9007 28.8287C41.9268 28.8116 41.9547 28.7972 41.9839 28.7859C42.0051 28.7783 42.0268 28.7723 42.0488 28.7678C41.9906 28.7084 41.929 28.6524 41.8641 28.6029L41.8624 28.598ZM39.0256 27.271C39.0521 27.319 39.069 27.3716 39.0755 27.426C39.106 27.3913 39.1338 27.3544 39.1587 27.3155C39.1167 27.2958 39.0726 27.2809 39.0272 27.271H39.0256ZM36.8193 27.0221C36.796 27.0716 36.7727 27.1243 36.7511 27.1787L36.9008 27.121L36.8825 27.1029C36.8593 27.0781 36.8386 27.0511 36.821 27.0221H36.8193ZM19.3322 24.7259L19.4354 24.782C19.4354 24.7474 19.4354 24.7094 19.4354 24.6666C19.4043 24.6915 19.3695 24.7115 19.3322 24.7259V24.7259ZM41.9806 21.5726C41.9806 21.6006 41.9656 21.6286 41.9606 21.6566H41.9939C42.0149 21.6542 42.0356 21.6493 42.0554 21.6418C42.0285 21.6203 42.0034 21.5966 41.9806 21.5709V21.5726ZM44.9955 19.5566C45.0279 19.5623 45.0597 19.5711 45.0903 19.583C45.082 19.5467 45.072 19.5154 45.0637 19.4857C45.0381 19.504 45.0152 19.5256 44.9955 19.55V19.5566ZM13.1144 13.6983L13.4072 13.9158L13.4522 13.9488C13.4551 13.9076 13.4641 13.8671 13.4788 13.8285C13.4926 13.7893 13.5116 13.7522 13.5353 13.718C13.3839 13.7065 13.2392 13.6999 13.1144 13.6983Z" fill="#3B3B3B"/>
<path d="M48.2633 22.3983C48.1402 22.7488 47.9325 23.064 47.6581 23.3166C47.3837 23.5692 47.0511 23.7514 46.6893 23.8473L46.5362 23.8852C45.9465 24.0204 45.3393 24.0649 44.7359 24.0171C44.0163 23.9781 43.3073 23.828 42.6345 23.572C42.3298 23.4582 42.0106 23.3872 41.6861 23.361C41.3841 23.3413 41.0808 23.3658 40.786 23.4335C40.4202 23.5026 40.0651 23.6184 39.7294 23.778C39.573 23.8506 39.4233 23.9429 39.2685 24.0204C39.2082 24.0521 39.1459 24.0801 39.0822 24.1044C39.0672 24.0368 38.9774 24.0072 38.9507 23.9396C38.8659 23.7368 38.8875 23.4846 38.8359 23.2802C38.7598 23.0019 38.7223 22.7147 38.7244 22.4264C38.7331 21.9405 38.8671 21.465 39.1138 21.045C39.3666 20.6334 39.6924 20.2704 40.0755 19.9736C40.1603 19.9042 40.2492 19.8398 40.3417 19.7807C40.7121 19.5447 41.0567 19.2713 41.37 18.9648C41.3818 18.9534 41.3976 18.947 41.4141 18.947C41.4305 18.947 41.4464 18.9534 41.4582 18.9648V18.9648C41.5061 19.0299 41.5494 19.0982 41.5879 19.1692C41.6397 19.275 41.6815 19.3854 41.7127 19.4988C41.7678 19.6881 41.8023 19.8826 41.8159 20.0791C41.8345 20.4479 41.794 20.8173 41.6961 21.1736C41.6695 21.2615 41.6462 21.3505 41.6262 21.4406C41.6193 21.4776 41.6199 21.5155 41.628 21.5523C41.6361 21.589 41.6516 21.6237 41.6734 21.6544C41.6953 21.6851 41.7231 21.7112 41.7553 21.7311C41.7875 21.751 41.8234 21.7643 41.8608 21.7703V21.7703C42.0001 21.7858 42.1411 21.7729 42.2751 21.7324C42.6674 21.6218 43.0362 21.4414 43.3633 21.2C43.5633 21.0612 43.7514 20.9062 43.9257 20.7368C44.2246 20.4256 44.5025 20.0952 44.7576 19.7477C44.7676 19.7346 44.874 19.7576 44.894 19.7477C44.8986 19.7573 44.9025 19.7673 44.9057 19.7774C44.9786 20.068 45.0221 20.3651 45.0354 20.6642C45.0354 20.9939 45.0604 21.2989 45.0987 21.6302C45.1085 21.7454 45.162 21.8526 45.2484 21.9302C45.3319 22.0129 45.4376 22.0701 45.5529 22.095C45.7338 22.1397 45.919 22.1657 46.1053 22.1725C46.3033 22.1725 46.5013 22.1841 46.6976 22.1725C47.1036 22.1395 47.5096 22.128 47.9122 22.0703C48.0276 22.0572 48.1439 22.0522 48.26 22.0555C48.275 22.0555 48.3016 22.0819 48.3049 22.1C48.3132 22.1463 48.3132 22.1938 48.3049 22.2401C48.2947 22.2937 48.2808 22.3466 48.2633 22.3983Z" fill="#3B3B3B"/>
</svg>
