<svg width="58" height="57" viewBox="0 0 58 57" fill="none" xmlns="http://www.w3.org/2000/svg">
<g filter="url(#filter0_d_502_6324)">
<path d="M4 8.47266C4 5.15895 6.68629 2.47266 10 2.47266H48C51.3137 2.47266 54 5.15895 54 8.47266V44.4727C54 47.7864 51.3137 50.4727 48 50.4727H10C6.68629 50.4727 4 47.7864 4 44.4727V8.47266Z" fill="#FFC448"/>
<path d="M23.1172 31.5117L23.1758 30.2617C23.9049 30.0664 25.526 29.474 28.0391 28.4844C30.5521 27.4818 32.1732 26.7005 32.9023 26.1406C31.5872 25.724 29.7839 24.9622 27.4922 23.8555C25.2135 22.7357 23.7161 22.026 23 21.7266L23.293 20.6133C24.6471 21.043 26.5026 21.7786 28.8594 22.8203C31.2161 23.862 33.1628 24.6107 34.6992 25.0664C34.8034 25.5352 34.8555 26.0299 34.8555 26.5508C33.5013 27.3451 32.0951 28.0677 30.6367 28.7188C29.1914 29.3568 28.0391 29.832 27.1797 30.1445C26.3333 30.444 24.9792 30.8997 23.1172 31.5117Z" fill="white"/>
</g>
<defs>
<filter id="filter0_d_502_6324" x="0" y="0.472656" width="58" height="56" filterUnits="userSpaceOnUse" color-interpolation-filters="sRGB">
<feFlood flood-opacity="0" result="BackgroundImageFix"/>
<feColorMatrix in="SourceAlpha" type="matrix" values="0 0 0 0 0 0 0 0 0 0 0 0 0 0 0 0 0 0 127 0" result="hardAlpha"/>
<feOffset dy="2"/>
<feGaussianBlur stdDeviation="2"/>
<feColorMatrix type="matrix" values="0 0 0 0 0 0 0 0 0 0 0 0 0 0 0 0 0 0 0.075 0"/>
<feBlend mode="normal" in2="BackgroundImageFix" result="effect1_dropShadow_502_6324"/>
<feBlend mode="normal" in="SourceGraphic" in2="effect1_dropShadow_502_6324" result="shape"/>
</filter>
</defs>
</svg>
