<svg width="334" height="327" viewBox="0 0 334 327" fill="none" xmlns="http://www.w3.org/2000/svg">
<path d="M145.432 156.8H147.832V168H145.432V163.232H138.888V168H136.488V156.8H138.888V161.504H145.432V156.8ZM149.937 165.152C149.937 164.277 150.294 163.616 151.009 163.168C151.734 162.72 152.625 162.496 153.681 162.496C155.185 162.496 156.774 163.051 158.449 164.16V162.976C158.449 162.176 158.23 161.6 157.793 161.248C157.356 160.896 156.625 160.72 155.601 160.72H150.929L150.913 158.992H156.449C157.974 158.992 159.089 159.328 159.793 160C160.497 160.661 160.849 161.728 160.849 163.2V166.224H162.433V168.016H159.617V168L159.313 168.016C159.078 168.016 158.897 167.92 158.769 167.728C158.641 167.525 158.577 167.312 158.577 167.088C158.577 166.853 158.63 166.544 158.737 166.16C158.854 165.776 158.956 165.52 159.041 165.392L158.561 165.136C158.305 165.712 157.98 166.208 157.585 166.624C157.201 167.029 156.785 167.339 156.337 167.552C155.9 167.765 155.473 167.92 155.057 168.016C154.652 168.112 154.241 168.16 153.825 168.16C152.78 168.16 151.868 167.888 151.089 167.344C150.321 166.8 149.937 166.069 149.937 165.152ZM152.337 165.184C152.337 165.685 152.572 166.08 153.041 166.368C153.521 166.645 154.086 166.784 154.737 166.784C155.164 166.784 155.569 166.72 155.953 166.592C156.337 166.453 156.646 166.293 156.881 166.112C157.116 165.92 157.324 165.733 157.505 165.552C157.686 165.371 157.814 165.216 157.889 165.088L158.001 164.88C157.862 164.795 157.676 164.688 157.441 164.56C157.206 164.421 156.785 164.24 156.177 164.016C155.569 163.792 155.025 163.68 154.545 163.68C154.246 163.68 153.948 163.712 153.649 163.776C153.35 163.84 153.057 163.995 152.769 164.24C152.481 164.475 152.337 164.789 152.337 165.184ZM172.625 158.992V160.88H168.913V168H166.721V160.88H162.913V158.992H172.625ZM182.458 158.992H184.874L181.034 168.128L182.586 172H176.634V170.224H179.546L178.698 167.984C178.239 167.963 177.871 167.867 177.594 167.696C177.316 167.515 177.092 167.221 176.922 166.816L173.226 158.992H175.754L178.906 165.936L178.57 166.848H179.114L182.458 158.992ZM193.412 168.16C192.313 168.16 191.337 167.888 190.484 167.344C189.641 166.789 189.007 166.085 188.58 165.232H188.084L188.836 166.848V172H186.436V158.992H188.836V160.032L188.116 161.104H188.66C189.055 160.475 189.705 159.941 190.612 159.504C191.529 159.067 192.484 158.848 193.476 158.848C194.82 158.848 195.956 159.253 196.884 160.064C197.812 160.875 198.276 162.016 198.276 163.488C198.276 164.971 197.801 166.123 196.852 166.944C195.903 167.755 194.756 168.16 193.412 168.16ZM192.564 160.24C191.433 160.24 190.532 160.517 189.86 161.072C189.188 161.616 188.852 162.341 188.852 163.248C188.852 164.155 189.188 164.928 189.86 165.568C190.532 166.197 191.455 166.512 192.628 166.512C193.716 166.512 194.527 166.229 195.06 165.664C195.604 165.099 195.876 164.325 195.876 163.344C195.876 162.352 195.599 161.589 195.044 161.056C194.489 160.512 193.663 160.24 192.564 160.24ZM199.718 165.152C199.718 164.277 200.075 163.616 200.79 163.168C201.515 162.72 202.406 162.496 203.462 162.496C204.966 162.496 206.555 163.051 208.23 164.16V162.976C208.23 162.176 208.011 161.6 207.574 161.248C207.137 160.896 206.406 160.72 205.382 160.72H200.71L200.694 158.992H206.23C207.755 158.992 208.87 159.328 209.574 160C210.278 160.661 210.63 161.728 210.63 163.2V166.224H212.214V168.016H209.398V168L209.094 168.016C208.859 168.016 208.678 167.92 208.55 167.728C208.422 167.525 208.358 167.312 208.358 167.088C208.358 166.853 208.411 166.544 208.518 166.16C208.635 165.776 208.737 165.52 208.822 165.392L208.342 165.136C208.086 165.712 207.761 166.208 207.366 166.624C206.982 167.029 206.566 167.339 206.118 167.552C205.681 167.765 205.254 167.92 204.838 168.016C204.433 168.112 204.022 168.16 203.606 168.16C202.561 168.16 201.649 167.888 200.87 167.344C200.102 166.8 199.718 166.069 199.718 165.152ZM202.118 165.184C202.118 165.685 202.353 166.08 202.822 166.368C203.302 166.645 203.867 166.784 204.518 166.784C204.945 166.784 205.35 166.72 205.734 166.592C206.118 166.453 206.427 166.293 206.662 166.112C206.897 165.92 207.105 165.733 207.286 165.552C207.467 165.371 207.595 165.216 207.67 165.088L207.782 164.88C207.643 164.795 207.457 164.688 207.222 164.56C206.987 164.421 206.566 164.24 205.958 164.016C205.35 163.792 204.806 163.68 204.326 163.68C204.027 163.68 203.729 163.712 203.43 163.776C203.131 163.84 202.838 163.995 202.55 164.24C202.262 164.475 202.118 164.789 202.118 165.184ZM224.422 168H222.022V160.768H218.454C218.379 161.408 218.305 161.957 218.23 162.416C218.166 162.864 218.075 163.371 217.958 163.936C217.841 164.501 217.718 164.976 217.59 165.36C217.462 165.744 217.302 166.133 217.11 166.528C216.918 166.923 216.705 167.237 216.47 167.472C216.235 167.696 215.958 167.872 215.638 168C215.329 168.139 214.982 168.192 214.598 168.16L213.382 168.096L213.414 166.24L214.15 166.272C214.395 166.283 214.614 166.229 214.806 166.112C214.998 165.995 215.169 165.771 215.318 165.44C215.467 165.109 215.595 164.784 215.702 164.464C215.809 164.133 215.915 163.637 216.022 162.976C216.139 162.315 216.235 161.733 216.31 161.232C216.385 160.731 216.481 160.005 216.598 159.056V158.992H224.39L224.422 168ZM229.466 158.992V162.608H232.938C235.989 162.608 237.514 163.525 237.514 165.36C237.514 166.171 237.157 166.816 236.442 167.296C235.727 167.765 234.773 168 233.578 168H227.066V158.992H229.466ZM233.242 166.416C233.807 166.416 234.266 166.315 234.618 166.112C234.97 165.909 235.146 165.621 235.146 165.248C235.146 164.459 234.399 164.064 232.906 164.064H229.466V166.416H233.242ZM247.84 158.992H250.24V168H247.84V164.384H241.664V168H239.264V158.992H241.664V162.656H247.84V158.992ZM254.479 157.232C254.202 156.965 254.063 156.619 254.063 156.192C254.063 155.765 254.202 155.424 254.479 155.168C254.756 154.912 255.124 154.784 255.583 154.784C256.042 154.784 256.41 154.912 256.687 155.168C256.964 155.424 257.103 155.765 257.103 156.192C257.103 156.619 256.964 156.965 256.687 157.232C256.41 157.488 256.042 157.616 255.583 157.616C255.124 157.616 254.756 157.488 254.479 157.232ZM251.775 168V166.208H254.511V160.72H251.775V158.992H255.231C256.351 158.992 256.911 159.552 256.911 160.672V166.208H259.615V168H251.775ZM274.527 163.792C274.794 163.845 274.933 164.032 274.943 164.352C274.954 164.661 274.885 165.104 274.735 165.68C274.682 165.904 274.645 166.08 274.623 166.208H276.319V168.032H271.551L273.135 164.656H267.567V168H265.375V159.008H267.567V162.752H268.271L273.375 158.992H276.239L271.663 162.432C271.194 162.827 270.234 163.168 268.783 163.456V163.968C269.893 163.691 270.501 163.541 270.607 163.52C271.375 163.403 272.047 163.344 272.623 163.344C273.605 163.344 274.239 163.493 274.527 163.792ZM283.109 158.816C283.802 158.816 284.474 158.917 285.125 159.12C285.786 159.312 286.389 159.595 286.933 159.968C287.487 160.341 287.93 160.843 288.261 161.472C288.591 162.091 288.757 162.784 288.757 163.552C288.757 164.981 288.197 166.123 287.077 166.976C285.957 167.829 284.607 168.256 283.029 168.256C281.439 168.256 280.069 167.824 278.917 166.96C277.775 166.096 277.205 164.96 277.205 163.552C277.205 162.571 277.503 161.712 278.101 160.976C278.709 160.229 279.45 159.685 280.325 159.344C281.21 158.992 282.138 158.816 283.109 158.816ZM279.589 163.52C279.589 164.501 279.909 165.323 280.549 165.984C281.189 166.645 282.005 166.976 282.997 166.976C283.978 166.976 284.783 166.651 285.413 166C286.042 165.339 286.357 164.512 286.357 163.52C286.357 162.571 286.058 161.781 285.461 161.152C284.874 160.512 284.069 160.192 283.045 160.192C281.967 160.192 281.119 160.533 280.501 161.216C279.893 161.888 279.589 162.656 279.589 163.52ZM297.74 168.16C296.641 168.16 295.665 167.888 294.812 167.344C293.969 166.789 293.335 166.085 292.908 165.232H292.412L293.164 166.848V172H290.764V158.992H293.164V160.032L292.444 161.104H292.988C293.383 160.475 294.033 159.941 294.94 159.504C295.857 159.067 296.812 158.848 297.804 158.848C299.148 158.848 300.284 159.253 301.212 160.064C302.14 160.875 302.604 162.016 302.604 163.488C302.604 164.971 302.129 166.123 301.18 166.944C300.231 167.755 299.084 168.16 297.74 168.16ZM296.892 160.24C295.761 160.24 294.86 160.517 294.188 161.072C293.516 161.616 293.18 162.341 293.18 163.248C293.18 164.155 293.516 164.928 294.188 165.568C294.86 166.197 295.783 166.512 296.956 166.512C298.044 166.512 298.855 166.229 299.388 165.664C299.932 165.099 300.204 164.325 300.204 163.344C300.204 162.352 299.927 161.589 299.372 161.056C298.817 160.512 297.991 160.24 296.892 160.24ZM316.126 163.632L313.758 168H309.998L307.614 163.616C307.508 163.243 307.412 162.816 307.326 162.336C307.241 161.845 307.161 161.301 307.086 160.704C307.012 160.096 306.953 159.659 306.91 159.392L306.382 159.456C306.425 159.691 306.505 160.117 306.622 160.736C306.74 161.355 306.836 161.904 306.91 162.384C306.985 162.864 307.028 163.296 307.038 163.68L307.054 168H304.654V158.992H308.366L311.726 167.376H312.03L315.39 158.992H319.102V168H316.702V163.696C316.713 163.312 316.756 162.88 316.83 162.4C316.905 161.909 317.001 161.365 317.118 160.768C317.246 160.16 317.332 159.728 317.374 159.472L316.846 159.424C316.804 159.68 316.74 160.112 316.654 160.72C316.58 161.317 316.5 161.861 316.414 162.352C316.329 162.832 316.233 163.259 316.126 163.632ZM320.984 165.152C320.984 164.277 321.341 163.616 322.056 163.168C322.781 162.72 323.672 162.496 324.728 162.496C326.232 162.496 327.821 163.051 329.496 164.16V162.976C329.496 162.176 329.277 161.6 328.84 161.248C328.402 160.896 327.672 160.72 326.648 160.72H321.976L321.96 158.992H327.496C329.021 158.992 330.136 159.328 330.84 160C331.544 160.661 331.896 161.728 331.896 163.2V166.224H333.48V168.016H330.664V168L330.36 168.016C330.125 168.016 329.944 167.92 329.816 167.728C329.688 167.525 329.624 167.312 329.624 167.088C329.624 166.853 329.677 166.544 329.784 166.16C329.901 165.776 330.002 165.52 330.088 165.392L329.608 165.136C329.352 165.712 329.026 166.208 328.632 166.624C328.248 167.029 327.832 167.339 327.384 167.552C326.946 167.765 326.52 167.92 326.104 168.016C325.698 168.112 325.288 168.16 324.872 168.16C323.826 168.16 322.914 167.888 322.136 167.344C321.368 166.8 320.984 166.069 320.984 165.152ZM323.384 165.184C323.384 165.685 323.618 166.08 324.088 166.368C324.568 166.645 325.133 166.784 325.784 166.784C326.21 166.784 326.616 166.72 327 166.592C327.384 166.453 327.693 166.293 327.928 166.112C328.162 165.92 328.37 165.733 328.552 165.552C328.733 165.371 328.861 165.216 328.936 165.088L329.048 164.88C328.909 164.795 328.722 164.688 328.488 164.56C328.253 164.421 327.832 164.24 327.224 164.016C326.616 163.792 326.072 163.68 325.592 163.68C325.293 163.68 324.994 163.712 324.696 163.776C324.397 163.84 324.104 163.995 323.816 164.24C323.528 164.475 323.384 164.789 323.384 165.184Z" fill="black"/>
<g clip-path="url(#clip0_349_3020)">
<path d="M44.7018 167.609C42.0846 170.226 41.2747 173.116 41.1417 175.421C43.5538 175.705 47.6126 175.484 51.1682 171.928C53.7942 169.302 54.6028 166.417 54.7321 164.117C52.3206 163.832 48.2593 164.051 44.7018 167.609Z" fill="#FFC448"/>
<path d="M44.7018 152.662C42.0846 155.28 41.2747 158.169 41.1417 160.474C43.5538 160.757 47.6126 160.537 51.1682 156.981C53.7942 154.355 54.6028 151.47 54.7321 149.169C52.3206 148.885 48.2593 149.104 44.7018 152.662Z" fill="#FFC448"/>
<path d="M43.8524 135.998C42.094 137.675 40.1343 140.502 40.1343 144.775C40.1343 149.046 42.0928 151.873 43.8512 153.55C45.6089 151.873 47.5674 149.046 47.5674 144.775C47.5674 140.488 45.6102 137.669 43.8524 135.998Z" fill="#FFC448"/>
<path d="M27.1982 164.154C27.3933 166.388 28.2515 169.103 30.7351 171.587C34.4394 175.291 38.6896 175.376 41.0552 175.042C40.8576 172.804 39.9988 170.084 37.5227 167.609C33.8159 163.902 29.5626 163.82 27.1982 164.154Z" fill="#FFC448"/>
<path d="M27.1982 149.208C27.3933 151.441 28.2515 154.157 30.7351 156.64C34.4394 160.345 38.6896 160.429 41.0552 160.095C40.8576 157.857 39.9988 155.138 37.5227 152.662C33.8159 148.955 29.5626 148.873 27.1982 149.208Z" fill="#FFC448"/>
<path d="M71.5846 131.355C71.2101 130.98 70.7854 130.687 70.3325 130.471C69.8796 130.687 69.4549 130.981 69.0797 131.355C67.3238 133.111 67.3238 135.958 69.0797 137.714C69.4549 138.089 69.8796 138.383 70.3325 138.598C70.7854 138.383 71.2101 138.089 71.5846 137.714C73.3411 135.958 73.3411 133.111 71.5846 131.355Z" fill="#FF5D5D"/>
<path d="M16.9993 188.51C16.6241 188.136 16.1994 187.841 15.7465 187.627C15.2936 187.841 14.8689 188.136 14.4944 188.51C12.7379 190.267 12.7379 193.113 14.4944 194.869C14.8689 195.244 15.2936 195.538 15.7465 195.753C16.1994 195.538 16.6241 195.244 16.9993 194.869C18.7552 193.113 18.7552 190.267 16.9993 188.51Z" fill="#FF5D5D"/>
<path d="M23.8258 164.119C23.4073 165.421 21.6082 172.198 27.271 177.861C30.5482 181.138 34.1848 181.92 36.9099 181.92C37.9186 181.92 38.8006 181.813 39.4951 181.685V192.194C39.4951 193.08 40.214 193.8 41.101 193.8C41.9881 193.8 42.707 193.08 42.707 192.194V181.682C43.4046 181.81 44.2947 181.92 45.3148 181.92C48.0392 181.92 51.6771 181.138 54.9536 177.861C60.6165 172.198 58.8173 165.421 58.3989 164.119C58.2571 163.634 57.8926 163.239 57.4089 163.062C57.3111 163.026 56.5194 162.746 55.2898 162.567C60.5431 156.977 58.8085 150.447 58.3989 149.172C58.2571 148.688 57.8926 148.292 57.4089 148.115C57.1831 148.032 53.2517 146.646 48.7726 148.205C49.0254 147.168 49.1734 146.026 49.1734 144.775C49.1734 136.767 43.1091 133.247 41.8921 132.622C41.4492 132.379 40.9116 132.357 40.4448 132.574C40.1437 132.714 33.0688 136.1 33.0688 144.775C33.0688 146.029 33.2174 147.172 33.4709 148.211C28.9836 146.642 25.0415 148.032 24.8157 148.115C24.332 148.292 23.9682 148.688 23.8264 149.172C23.4161 150.447 21.6822 156.977 26.9348 162.567C25.7052 162.746 24.9135 163.026 24.8157 163.062C24.332 163.239 23.9675 163.635 23.8258 164.119ZM52.6827 175.59C48.9765 179.297 44.6812 178.842 42.9686 178.463C42.5953 176.754 42.1436 172.438 45.8373 168.744C47.0186 167.563 48.26 166.805 49.4589 166.332C49.6872 166.259 49.9174 166.178 50.1489 166.088C52.4336 165.376 54.4825 165.636 55.5452 165.871C55.9492 167.712 56.3343 171.939 52.6827 175.59ZM55.5452 150.924C55.9492 152.765 56.3343 156.991 52.6827 160.643C51.5039 161.822 50.2662 162.578 49.0705 163.052C48.8378 163.127 48.6032 163.21 48.3667 163.3C46.0776 164.014 44.0256 163.751 42.9661 163.515C42.8475 162.98 42.7214 162.193 42.7164 161.253C42.7164 161.239 42.717 161.226 42.717 161.212C42.7145 159.326 43.2026 156.832 45.1993 154.488C45.4358 154.253 45.6736 154 45.9095 153.729C49.5944 150.103 53.8395 150.546 55.5452 150.924ZM41.1129 135.878C42.7007 136.894 45.9615 139.61 45.9615 144.775C45.9615 147.844 44.8098 150.046 43.5583 151.534C43.2979 151.795 43.0545 152.058 42.8249 152.322C42.1832 152.946 41.5684 153.391 41.1236 153.675C40.6205 153.352 39.8953 152.82 39.1582 152.051C39.0829 151.968 39.007 151.886 38.9292 151.804C37.5874 150.314 36.28 148.027 36.28 144.775C36.28 139.54 39.6306 136.824 41.1129 135.878ZM26.6788 150.927C28.3939 150.555 32.7005 150.112 36.3873 153.798C36.4111 153.822 36.4319 153.845 36.4551 153.868C36.5962 154.026 36.7374 154.177 36.8785 154.323C38.8006 156.492 39.4022 158.809 39.4951 160.661V161.732C39.4593 162.461 39.3571 163.074 39.2592 163.514C38.1959 163.751 36.142 164.014 33.8529 163.299C33.6208 163.21 33.39 163.128 33.1604 163.055C31.9628 162.581 30.7226 161.824 29.5419 160.643C25.8922 156.993 26.2748 152.77 26.6788 150.927ZM26.6788 165.874C27.7585 165.639 29.8644 165.378 32.1962 166.135C32.3499 166.192 32.5029 166.246 32.6554 166.297C33.8899 166.765 35.1722 167.53 36.3873 168.744C38.7028 171.06 39.3947 173.606 39.4951 175.608V176.679C39.4593 177.408 39.3571 178.021 39.2592 178.461C37.5428 178.842 33.2476 179.296 29.5419 175.59C25.8922 171.941 26.2748 167.717 26.6788 165.874Z" fill="#3B3B3B"/>
<path d="M13.8193 185.587C12.8532 185.587 11.9223 185.812 11.0836 186.234C6.00036 179.635 3.2119 171.473 3.2119 163.112C3.2119 142.214 20.2136 125.212 41.1123 125.212C43.7753 125.212 46.4339 125.489 49.0147 126.037C49.8829 126.221 50.7348 125.666 50.9186 124.799C51.1031 123.931 50.5485 123.079 49.6809 122.895C46.8818 122.301 43.9986 122 41.1123 122C30.131 122 19.8065 126.276 12.0415 134.041C4.27647 141.807 0 152.131 0 163.112C0 172.262 3.07891 181.195 8.68781 188.387C8.05672 189.363 7.71671 190.5 7.71671 191.69C7.71671 193.32 8.35157 194.852 9.50459 196.005C10.657 197.158 12.1895 197.793 13.8193 197.793C15.4497 197.793 16.9823 197.158 18.1347 196.005C19.2877 194.852 19.9219 193.32 19.9219 191.69C19.9219 190.06 19.2871 188.528 18.1347 187.375C16.9823 186.222 15.4497 185.587 13.8193 185.587ZM15.8638 193.734C14.7365 194.861 12.9028 194.861 11.7755 193.734C11.2297 193.188 10.9286 192.462 10.9286 191.69C10.9286 190.918 11.2297 190.192 11.7755 189.646C12.3388 189.082 13.0791 188.801 13.8193 188.801C14.5596 188.801 15.2998 189.082 15.8638 189.646C16.4095 190.191 16.71 190.918 16.71 191.69C16.71 192.462 16.4095 193.188 15.8638 193.734Z" fill="#3B3B3B"/>
<path d="M73.5368 137.837C74.1679 136.861 74.5079 135.725 74.5079 134.535C74.5079 132.905 73.8731 131.372 72.7201 130.219C71.5677 129.067 70.0351 128.432 68.4053 128.432C66.7749 128.432 65.2424 129.067 64.09 130.219C62.9376 131.372 62.3027 132.905 62.3027 134.535C62.3027 136.164 62.9376 137.697 64.09 138.85C65.2424 140.002 66.7749 140.637 68.4053 140.637C69.3714 140.637 70.3024 140.413 71.1417 139.991C76.2243 146.589 79.0128 154.751 79.0128 163.112C79.0128 184.011 62.011 201.013 41.1123 201.013C38.864 201.013 36.6119 200.814 34.4175 200.424C33.5449 200.268 32.71 200.85 32.555 201.723C32.3988 202.596 32.981 203.43 33.8542 203.585C36.2336 204.009 38.6758 204.225 41.1123 204.225C52.0936 204.225 62.4181 199.948 70.1832 192.183C77.9482 184.418 82.2247 174.094 82.2247 163.112C82.2247 153.962 79.1457 145.03 73.5368 137.837ZM66.3615 136.578C65.2342 135.452 65.2342 133.618 66.3615 132.491C66.9073 131.944 67.6331 131.644 68.4053 131.644C69.1776 131.644 69.9034 131.944 70.4491 132.491C70.9955 133.037 71.296 133.762 71.296 134.535C71.296 135.307 70.9955 136.033 70.4491 136.578C69.9034 137.125 69.1776 137.425 68.4053 137.425C67.6331 137.425 66.9073 137.125 66.3615 136.578Z" fill="#3B3B3B"/>
<path d="M27.0012 198.299L26.3952 199.786L26.9968 198.297C26.1744 197.965 25.2385 198.362 24.906 199.184C24.5735 200.007 24.9706 200.942 25.793 201.275L25.8426 201.295C26.032 201.367 26.2271 201.402 26.4191 201.402C27.0659 201.402 27.6769 201.01 27.9215 200.372C28.2389 199.543 27.8299 198.616 27.0012 198.299Z" fill="#3B3B3B"/>
<path d="M55.2798 127.948L55.298 127.956C55.495 128.035 55.6988 128.073 55.8989 128.073C56.5344 128.073 57.136 127.694 57.3888 127.069C57.7207 126.246 57.3236 125.31 56.5012 124.978L56.4723 124.967C55.6493 124.637 54.7146 125.038 54.3852 125.861C54.0552 126.685 54.4561 127.619 55.2798 127.948Z" fill="#3B3B3B"/>
</g>
<path d="M149.392 291.616V290H141.888V291.616H139.488L139.52 288.224H140.112C140.923 288.224 141.653 287.408 142.304 285.776C142.965 284.144 143.499 281.84 143.904 278.864V278.8H150.224L150.24 288.224H151.776L151.792 291.616H149.392ZM144.656 288.224H147.84V280.576H145.68C145.061 284.939 143.755 287.643 141.76 288.688L141.984 289.136C142.005 289.125 142.101 289.072 142.272 288.976C142.443 288.88 142.549 288.827 142.592 288.816C142.635 288.795 142.731 288.747 142.88 288.672C143.04 288.587 143.152 288.533 143.216 288.512C143.28 288.491 143.381 288.453 143.52 288.4C143.669 288.347 143.792 288.315 143.888 288.304C143.995 288.283 144.112 288.267 144.24 288.256C144.379 288.235 144.517 288.224 144.656 288.224ZM158.734 280.816C159.427 280.816 160.099 280.917 160.75 281.12C161.411 281.312 162.014 281.595 162.558 281.968C163.112 282.341 163.555 282.843 163.886 283.472C164.216 284.091 164.382 284.784 164.382 285.552C164.382 286.981 163.822 288.123 162.702 288.976C161.582 289.829 160.232 290.256 158.654 290.256C157.064 290.256 155.694 289.824 154.542 288.96C153.4 288.096 152.83 286.96 152.83 285.552C152.83 284.571 153.128 283.712 153.726 282.976C154.334 282.229 155.075 281.685 155.95 281.344C156.835 280.992 157.763 280.816 158.734 280.816ZM155.214 285.52C155.214 286.501 155.534 287.323 156.174 287.984C156.814 288.645 157.63 288.976 158.622 288.976C159.603 288.976 160.408 288.651 161.038 288C161.667 287.339 161.982 286.512 161.982 285.52C161.982 284.571 161.683 283.781 161.086 283.152C160.499 282.512 159.694 282.192 158.67 282.192C157.592 282.192 156.744 282.533 156.126 283.216C155.518 283.888 155.214 284.656 155.214 285.52ZM177.845 285.632L175.477 290H171.717L169.333 285.616C169.226 285.243 169.13 284.816 169.045 284.336C168.96 283.845 168.88 283.301 168.805 282.704C168.73 282.096 168.672 281.659 168.629 281.392L168.101 281.456C168.144 281.691 168.224 282.117 168.341 282.736C168.458 283.355 168.554 283.904 168.629 284.384C168.704 284.864 168.746 285.296 168.757 285.68L168.773 290H166.373V280.992H170.085L173.445 289.376H173.749L177.109 280.992H180.821V290H178.421V285.696C178.432 285.312 178.474 284.88 178.549 284.4C178.624 283.909 178.72 283.365 178.837 282.768C178.965 282.16 179.05 281.728 179.093 281.472L178.565 281.424C178.522 281.68 178.458 282.112 178.373 282.72C178.298 283.317 178.218 283.861 178.133 284.352C178.048 284.832 177.952 285.259 177.845 285.632ZM182.703 287.152C182.703 286.277 183.06 285.616 183.775 285.168C184.5 284.72 185.391 284.496 186.447 284.496C187.951 284.496 189.54 285.051 191.215 286.16V284.976C191.215 284.176 190.996 283.6 190.559 283.248C190.121 282.896 189.391 282.72 188.367 282.72H183.695L183.679 280.992H189.215C190.74 280.992 191.855 281.328 192.559 282C193.263 282.661 193.615 283.728 193.615 285.2V288.224H195.199V290.016H192.383V290L192.079 290.016C191.844 290.016 191.663 289.92 191.535 289.728C191.407 289.525 191.343 289.312 191.343 289.088C191.343 288.853 191.396 288.544 191.503 288.16C191.62 287.776 191.721 287.52 191.807 287.392L191.327 287.136C191.071 287.712 190.745 288.208 190.351 288.624C189.967 289.029 189.551 289.339 189.103 289.552C188.665 289.765 188.239 289.92 187.823 290.016C187.417 290.112 187.007 290.16 186.591 290.16C185.545 290.16 184.633 289.888 183.855 289.344C183.087 288.8 182.703 288.069 182.703 287.152ZM185.103 287.184C185.103 287.685 185.337 288.08 185.807 288.368C186.287 288.645 186.852 288.784 187.503 288.784C187.929 288.784 188.335 288.72 188.719 288.592C189.103 288.453 189.412 288.293 189.647 288.112C189.881 287.92 190.089 287.733 190.271 287.552C190.452 287.371 190.58 287.216 190.655 287.088L190.767 286.88C190.628 286.795 190.441 286.688 190.207 286.56C189.972 286.421 189.551 286.24 188.943 286.016C188.335 285.792 187.791 285.68 187.311 285.68C187.012 285.68 186.713 285.712 186.415 285.776C186.116 285.84 185.823 285.995 185.535 286.24C185.247 286.475 185.103 286.789 185.103 287.184ZM196.654 280.992H199.054V288.224H202.846V280.992H205.246V288.224H209.038V280.992H211.438V290H196.654V280.992ZM222.512 280.992H224.912V290H222.512V286.384H216.336V290H213.936V280.992H216.336V284.656H222.512V280.992ZM235.903 286.272H238.143C237.962 287.509 237.306 288.48 236.175 289.184C235.055 289.888 233.775 290.24 232.335 290.24C230.778 290.24 229.46 289.824 228.383 288.992C227.316 288.16 226.783 287.013 226.783 285.552C226.783 284.773 226.948 284.075 227.279 283.456C227.61 282.827 228.047 282.325 228.591 281.952C229.135 281.579 229.732 281.296 230.383 281.104C231.034 280.912 231.711 280.816 232.415 280.816C233.3 280.816 234.127 280.955 234.895 281.232C235.663 281.509 236.319 281.957 236.863 282.576C237.418 283.184 237.727 283.92 237.791 284.784H235.567C235.546 284.027 235.236 283.408 234.639 282.928C234.052 282.448 233.274 282.208 232.303 282.208C231.268 282.208 230.474 282.485 229.919 283.04C229.364 283.584 229.05 284.293 228.975 285.168H233.455V286.096H228.991C229.087 287.024 229.434 287.717 230.031 288.176C230.628 288.635 231.386 288.864 232.303 288.864C233.284 288.864 234.106 288.619 234.767 288.128C235.439 287.627 235.818 287.008 235.903 286.272ZM255.579 285.632L253.211 290H249.451L247.067 285.616C246.961 285.243 246.865 284.816 246.779 284.336C246.694 283.845 246.614 283.301 246.539 282.704C246.465 282.096 246.406 281.659 246.363 281.392L245.835 281.456C245.878 281.691 245.958 282.117 246.075 282.736C246.193 283.355 246.289 283.904 246.363 284.384C246.438 284.864 246.481 285.296 246.491 285.68L246.507 290H244.107V280.992H247.819L251.179 289.376H251.483L254.843 280.992H258.555V290H256.155V285.696C256.166 285.312 256.209 284.88 256.283 284.4C256.358 283.909 256.454 283.365 256.571 282.768C256.699 282.16 256.785 281.728 256.827 281.472L256.299 281.424C256.257 281.68 256.193 282.112 256.107 282.72C256.033 283.317 255.953 283.861 255.867 284.352C255.782 284.832 255.686 285.259 255.579 285.632ZM271.397 280.992V290H269.205V286.48H263.525L265.093 290.016H260.437V288.224H262.245C262.053 287.275 261.957 286.715 261.957 286.544C261.978 286.128 262.213 285.872 262.661 285.776C262.778 285.755 262.922 285.739 263.093 285.728V285.296C262.325 285.2 261.712 284.976 261.253 284.624C260.794 284.272 260.565 283.792 260.565 283.184C260.565 281.723 261.941 280.992 264.693 280.992H271.397ZM269.205 285.056V282.464H264.709C264.144 282.464 263.669 282.576 263.285 282.8C262.912 283.013 262.725 283.328 262.725 283.744C262.725 284.171 262.917 284.501 263.301 284.736C263.685 284.971 264.165 285.088 264.741 285.088L269.205 285.056ZM282.45 286.272H284.69C284.508 287.509 283.852 288.48 282.722 289.184C281.602 289.888 280.322 290.24 278.882 290.24C277.324 290.24 276.007 289.824 274.93 288.992C273.863 288.16 273.33 287.013 273.33 285.552C273.33 284.773 273.495 284.075 273.826 283.456C274.156 282.827 274.594 282.325 275.138 281.952C275.682 281.579 276.279 281.296 276.93 281.104C277.58 280.912 278.258 280.816 278.962 280.816C279.847 280.816 280.674 280.955 281.442 281.232C282.21 281.509 282.866 281.957 283.41 282.576C283.964 283.184 284.274 283.92 284.338 284.784H282.114C282.092 284.027 281.783 283.408 281.186 282.928C280.599 282.448 279.82 282.208 278.85 282.208C277.74 282.208 276.903 282.523 276.338 283.152C275.783 283.781 275.506 284.581 275.506 285.552C275.506 286.651 275.81 287.477 276.418 288.032C277.036 288.587 277.847 288.864 278.85 288.864C279.831 288.864 280.652 288.619 281.314 288.128C281.986 287.627 282.364 287.008 282.45 286.272ZM291.89 280.816C292.583 280.816 293.255 280.917 293.906 281.12C294.567 281.312 295.17 281.595 295.714 281.968C296.269 282.341 296.711 282.843 297.042 283.472C297.373 284.091 297.538 284.784 297.538 285.552C297.538 286.981 296.978 288.123 295.858 288.976C294.738 289.829 293.389 290.256 291.81 290.256C290.221 290.256 288.85 289.824 287.698 288.96C286.557 288.096 285.986 286.96 285.986 285.552C285.986 284.571 286.285 283.712 286.882 282.976C287.49 282.229 288.231 281.685 289.106 281.344C289.991 280.992 290.919 280.816 291.89 280.816ZM288.37 285.52C288.37 286.501 288.69 287.323 289.33 287.984C289.97 288.645 290.786 288.976 291.778 288.976C292.759 288.976 293.565 288.651 294.194 288C294.823 287.339 295.138 286.512 295.138 285.52C295.138 284.571 294.839 283.781 294.242 283.152C293.655 282.512 292.85 282.192 291.826 282.192C290.749 282.192 289.901 282.533 289.282 283.216C288.674 283.888 288.37 284.656 288.37 285.52Z" fill="black"/>
<g clip-path="url(#clip1_349_3020)">
<path d="M71.5846 253.355C71.2101 252.98 70.7854 252.687 70.3325 252.471C69.8796 252.687 69.4549 252.981 69.0797 253.355C67.3238 255.111 67.3238 257.958 69.0797 259.714C69.4549 260.089 69.8796 260.383 70.3325 260.598C70.7854 260.383 71.2101 260.089 71.5846 259.714C73.3411 257.958 73.3411 255.111 71.5846 253.355Z" fill="#FF5D5D"/>
<path d="M16.9993 310.51C16.6241 310.136 16.1994 309.841 15.7465 309.627C15.2936 309.841 14.8689 310.136 14.4944 310.51C12.7379 312.267 12.7379 315.113 14.4944 316.869C14.8689 317.244 15.2936 317.538 15.7465 317.753C16.1994 317.538 16.6241 317.244 16.9993 316.869C18.7552 315.113 18.7552 312.267 16.9993 310.51Z" fill="#FF5D5D"/>
<path d="M13.8193 307.587C12.8532 307.587 11.9223 307.812 11.0836 308.234C6.00036 301.635 3.2119 293.473 3.2119 285.112C3.2119 264.214 20.2136 247.212 41.1123 247.212C43.7753 247.212 46.4339 247.489 49.0147 248.037C49.8829 248.221 50.7348 247.666 50.9186 246.799C51.1031 245.931 50.5485 245.079 49.6809 244.895C46.8818 244.301 43.9986 244 41.1123 244C30.131 244 19.8065 248.276 12.0415 256.041C4.27647 263.807 0 274.131 0 285.112C0 294.262 3.07891 303.195 8.68781 310.387C8.05672 311.363 7.71671 312.5 7.71671 313.69C7.71671 315.32 8.35157 316.852 9.50459 318.005C10.657 319.158 12.1895 319.793 13.8193 319.793C15.4497 319.793 16.9823 319.158 18.1347 318.005C19.2877 316.852 19.9219 315.32 19.9219 313.69C19.9219 312.06 19.2871 310.528 18.1347 309.375C16.9823 308.222 15.4497 307.587 13.8193 307.587ZM15.8638 315.734C14.7365 316.861 12.9028 316.861 11.7755 315.734C11.2297 315.188 10.9286 314.462 10.9286 313.69C10.9286 312.918 11.2297 312.192 11.7755 311.646C12.3388 311.082 13.0791 310.801 13.8193 310.801C14.5596 310.801 15.2998 311.082 15.8638 311.646C16.4095 312.191 16.71 312.918 16.71 313.69C16.71 314.462 16.4095 315.188 15.8638 315.734Z" fill="#3B3B3B"/>
<path d="M73.5368 259.837C74.1679 258.861 74.5079 257.725 74.5079 256.535C74.5079 254.905 73.8731 253.372 72.7201 252.219C71.5677 251.067 70.0351 250.432 68.4053 250.432C66.7749 250.432 65.2424 251.067 64.09 252.219C62.9376 253.372 62.3027 254.905 62.3027 256.535C62.3027 258.164 62.9376 259.697 64.09 260.85C65.2424 262.002 66.7749 262.637 68.4053 262.637C69.3714 262.637 70.3024 262.413 71.1417 261.991C76.2243 268.589 79.0127 276.751 79.0127 285.112C79.0127 306.011 62.011 323.013 41.1123 323.013C38.864 323.013 36.6119 322.814 34.4175 322.424C33.5449 322.268 32.71 322.85 32.555 323.723C32.3988 324.596 32.981 325.43 33.8542 325.585C36.2336 326.009 38.6758 326.225 41.1123 326.225C52.0936 326.225 62.4181 321.948 70.1832 314.183C77.9482 306.418 82.2247 296.094 82.2247 285.112C82.2247 275.962 79.1457 267.03 73.5368 259.837ZM66.3615 258.578C65.2342 257.452 65.2342 255.618 66.3615 254.491C66.9073 253.944 67.6331 253.644 68.4053 253.644C69.1776 253.644 69.9034 253.944 70.4491 254.491C70.9955 255.037 71.296 255.762 71.296 256.535C71.296 257.307 70.9955 258.033 70.4491 258.578C69.9034 259.125 69.1776 259.425 68.4053 259.425C67.6331 259.425 66.9073 259.125 66.3615 258.578Z" fill="#3B3B3B"/>
<path d="M27.0012 320.299L26.3952 321.786L26.9968 320.297C26.1744 319.965 25.2385 320.362 24.906 321.184C24.5735 322.007 24.9706 322.942 25.793 323.275L25.8426 323.295C26.032 323.367 26.2271 323.402 26.4191 323.402C27.0659 323.402 27.6769 323.01 27.9215 322.372C28.2389 321.543 27.8299 320.616 27.0012 320.299Z" fill="#3B3B3B"/>
<path d="M55.2798 249.948L55.298 249.956C55.495 250.035 55.6988 250.073 55.8989 250.073C56.5344 250.073 57.136 249.694 57.3888 249.069C57.7207 248.246 57.3236 247.31 56.5012 246.978L56.4723 246.967C55.6493 246.637 54.7146 247.038 54.3852 247.861C54.0552 248.685 54.4561 249.619 55.2798 249.948Z" fill="#3B3B3B"/>
<g clip-path="url(#clip2_349_3020)">
<path d="M24.4732 273.231C18.9377 273.231 14.45 277.767 14.45 283.363V289.195L20.6921 284.626V279.735C20.6921 278.314 21.8315 277.162 23.2371 277.162C24.6427 277.162 25.782 278.314 25.782 279.735V281.459C26.4273 281.851 26.8858 282.524 26.9934 283.31L33.2603 282.782V279.431C33.2603 279.08 33.2427 278.733 33.2078 278.391C31.4886 275.311 28.2213 273.231 24.4732 273.231Z" fill="#FFB9B7"/>
<path d="M58.3453 265.477C57.4972 265.323 56.6699 265.519 55.9961 265.961C55.9483 265.906 55.8986 265.853 55.8477 265.801C55.1038 266.332 54.5576 267.157 54.3877 268.149C54.3744 268.227 54.3677 268.304 54.3595 268.382C53.3752 268.72 52.5964 269.59 52.4034 270.718C52.2284 271.74 52.5753 272.732 53.2468 273.405C54.2068 272.225 55.6613 271.471 57.2913 271.471C58.2564 271.471 59.1597 271.736 59.9361 272.197C60.2849 272.067 60.6514 271.973 61.0304 271.921V269.437C61.3487 267.578 60.1463 265.805 58.3453 265.477Z" fill="#FF5D5D"/>
<path d="M62.5281 276.765C62.5281 276.692 62.5257 276.621 62.5226 276.549C60.0923 277.007 58.2521 279.161 58.2521 281.751V288.399H31.9796V293.091C31.9796 296.65 33.1425 299.934 35.1048 302.578C37.0398 303.443 39.1803 303.925 41.4324 303.925H45.0759C53.7194 303.925 60.7262 296.842 60.7262 288.105V279.289H62.5281V276.765Z" fill="#FFC448"/>
<path d="M39.385 288.023H32.7365C32.7365 294.103 37.613 299.032 43.6281 299.032H44.2169C45.1124 299.032 45.9569 298.812 46.7024 298.425C42.4429 296.93 39.385 292.838 39.385 288.023Z" fill="white"/>
<path d="M49.6623 293.527C49.6623 290.487 47.2242 288.022 44.2165 288.022H39.385C39.385 292.838 42.4429 296.93 46.7023 298.425C48.4595 297.512 49.6623 295.662 49.6623 293.527Z" fill="#FF5D5D"/>
<path d="M45.0716 284.129C45.258 283.94 45.3652 283.679 45.3652 283.413C45.3652 283.146 45.258 282.885 45.0716 282.697C44.8852 282.507 44.6276 282.4 44.3629 282.4C44.0994 282.4 43.8406 282.507 43.6542 282.697C43.4679 282.884 43.3606 283.146 43.3606 283.413C43.3606 283.679 43.4679 283.941 43.6542 284.129C43.8406 284.317 44.0994 284.425 44.3629 284.425C44.6276 284.425 44.8852 284.318 45.0716 284.129Z" fill="#3B3B3B"/>
<path d="M61.4701 272.086L62.0084 269.659C62.0124 269.642 62.0155 269.626 62.0182 269.61C62.4293 267.207 60.8617 264.906 58.523 264.48C57.7251 264.334 56.9119 264.424 56.1692 264.731C55.5916 264.263 54.9151 263.951 54.1774 263.816C53.0021 263.602 51.8138 263.867 50.8314 264.562C49.9101 265.214 49.2708 266.168 49.0084 267.274C47.9388 267.847 47.1753 268.901 46.9623 270.145C46.6444 272.003 47.6424 273.856 49.3381 274.567L51.147 275.458C51.1591 275.464 51.1716 275.468 51.1842 275.473C51.098 275.89 51.0522 276.322 51.0522 276.765V282.399H48.1948C47.6412 282.399 47.1925 282.853 47.1925 283.412C47.1925 283.972 47.6412 284.426 48.1948 284.426H52.0542C52.6078 284.426 53.0565 283.972 53.0565 283.412V276.765C53.0565 274.404 54.9562 272.484 57.2913 272.484C59.626 272.484 61.5257 274.404 61.5257 276.765V278.275H60.7262C60.1726 278.275 59.7239 278.729 59.7239 279.289V288.105C59.7239 296.269 53.1528 302.912 45.0759 302.912H41.4323C33.3554 302.912 26.7843 296.269 26.7843 288.105V284.426H40.3074C40.8611 284.426 41.3098 283.972 41.3098 283.412C41.3098 282.853 40.8611 282.399 40.3074 282.399H34.2626V279.431C34.2626 273.286 29.3164 268.286 23.2371 268.286C17.1578 268.286 12.2115 273.286 12.2115 279.431V285.591C12.2115 286.15 12.6602 286.604 13.2139 286.604C13.7675 286.604 14.2162 286.15 14.2162 285.591V279.431C14.2162 274.403 18.2631 270.313 23.2371 270.313C28.2111 270.313 32.2579 274.403 32.2579 279.431V282.399H30.5693V279.692C30.5693 275.605 27.28 272.28 23.2371 272.28C19.1941 272.28 15.9049 275.605 15.9049 279.692V286.739C15.9049 287.299 16.3536 287.752 16.9072 287.752C17.4608 287.752 17.9095 287.299 17.9095 286.739V279.692C17.9095 276.723 20.2994 274.307 23.2371 274.307C26.1747 274.307 28.5646 276.723 28.5646 279.692V282.399H26.7843V279.735C26.7843 277.758 25.1932 276.149 23.2371 276.149C21.281 276.149 19.6898 277.758 19.6898 279.735V284.626C19.6898 285.186 20.1385 285.639 20.6921 285.639C21.2457 285.639 21.6944 285.186 21.6944 284.626V279.735C21.6944 278.875 22.3863 278.175 23.2371 278.175C24.0879 278.175 24.7797 278.875 24.7797 279.735V288.105C24.7797 296.345 30.6672 303.22 38.4128 304.661V309.739C38.4128 310.299 38.8619 310.752 39.4151 310.752H41.1993C41.753 310.752 42.2017 310.299 42.2017 309.739C42.2017 309.18 41.753 308.726 41.1993 308.726H40.4175V304.906C40.7534 304.927 41.0917 304.938 41.4323 304.938H44.3112V309.739C44.3112 310.299 44.7599 310.752 45.3136 310.752H47.0974C47.651 310.752 48.0997 310.299 48.0997 309.739C48.0997 309.18 47.651 308.726 47.0974 308.726H46.3159V304.892C54.9213 304.248 61.7285 296.965 61.7285 288.105V280.302H62.528C63.0816 280.302 63.5303 279.848 63.5303 279.289V276.765C63.5303 274.91 62.7343 273.241 61.4701 272.086ZM51.9097 273.579L50.1869 272.731C50.1658 272.721 50.1447 272.711 50.1235 272.703C49.2762 272.357 48.7774 271.426 48.9376 270.49C49.0617 269.765 49.5566 269.172 50.2284 268.941C50.5977 268.814 50.8608 268.483 50.9027 268.091L50.9081 268.038C50.9121 268 50.9156 267.96 50.9222 267.921C51.0417 267.224 51.4175 266.621 51.9805 266.222C52.5224 265.839 53.1763 265.693 53.8215 265.81C54.3732 265.911 54.865 266.194 55.2436 266.629C55.5721 267.007 56.1245 267.084 56.5415 266.811C57.0286 266.491 57.6065 266.372 58.1675 266.474C59.4185 266.702 60.2575 267.941 60.0469 269.242L59.671 270.935C58.9373 270.628 58.1339 270.458 57.2913 270.458C55 270.458 52.9946 271.713 51.9097 273.579Z" fill="#3B3B3B"/>
<path d="M13.2139 289.087C12.9504 289.087 12.6916 289.194 12.5052 289.384C12.3188 289.572 12.2115 289.834 12.2115 290.1C12.2115 290.367 12.3188 290.628 12.5052 290.816C12.6916 291.005 12.9504 291.114 13.2139 291.114C13.4774 291.114 13.7362 291.005 13.9225 290.816C14.1089 290.628 14.2162 290.367 14.2162 290.1C14.2162 289.833 14.1089 289.572 13.9225 289.384C13.7362 289.194 13.4774 289.087 13.2139 289.087Z" fill="#3B3B3B"/>
<path d="M32.7365 287.01C32.1828 287.01 31.7341 287.463 31.7341 288.023C31.7341 294.652 37.0695 300.046 43.6281 300.046H44.2165C47.772 300.046 50.6647 297.122 50.6647 293.527C50.6647 289.933 47.772 287.01 44.2165 287.01H32.7365ZM48.66 293.527C48.66 296.004 46.6667 298.019 44.2165 298.019H43.6281C39.9167 298.019 36.6772 295.942 34.9858 292.878C35.8252 293.387 36.8064 293.68 37.8542 293.68H40.3075C40.8611 293.68 41.3098 293.226 41.3098 292.667C41.3098 292.107 40.8611 291.653 40.3075 291.653H37.8542C36.2219 291.653 34.8409 290.546 34.4059 289.036H44.2165C46.6667 289.036 48.66 291.051 48.66 293.527Z" fill="#3B3B3B"/>
<path d="M57.5916 277.173C57.778 276.985 57.8853 276.723 57.8853 276.457C57.8853 276.19 57.778 275.929 57.5916 275.74C57.4052 275.552 57.1464 275.444 56.8829 275.444C56.6194 275.444 56.3606 275.552 56.1743 275.74C55.9879 275.929 55.8806 276.19 55.8806 276.457C55.8806 276.723 55.9879 276.985 56.1743 277.173C56.3606 277.362 56.6194 277.47 56.8829 277.47C57.1464 277.47 57.4052 277.362 57.5916 277.173Z" fill="#3B3B3B"/>
</g>
</g>
<path d="M148.184 34.8V36.704H140.888V39.792H145.656C146.765 39.792 147.629 40.0587 148.248 40.592C148.877 41.1253 149.192 41.856 149.192 42.784C149.192 43.7867 148.84 44.576 148.136 45.152C147.443 45.7173 146.483 46 145.256 46H138.488V34.8H148.184ZM144.92 44.416C145.485 44.416 145.944 44.2773 146.296 44C146.648 43.712 146.824 43.3013 146.824 42.768C146.824 42.2027 146.627 41.7813 146.232 41.504C145.837 41.216 145.293 41.072 144.6 41.072H140.888V44.416H144.92ZM161.234 41.632H153.026V42.016C153.037 42.8907 153.346 43.5787 153.954 44.08C154.562 44.5707 155.341 44.816 156.29 44.816C157.026 44.816 157.72 44.6507 158.37 44.32C159.032 43.9787 159.464 43.4773 159.666 42.816H161.778C161.512 43.9253 160.856 44.7733 159.81 45.36C158.776 45.9467 157.586 46.24 156.242 46.24C154.642 46.24 153.309 45.8293 152.242 45.008C151.186 44.176 150.658 43.024 150.658 41.552C150.658 40.5387 150.92 39.664 151.442 38.928C151.965 38.192 152.632 37.6587 153.442 37.328C154.264 36.9867 155.165 36.816 156.146 36.816C157.714 36.816 158.962 37.248 159.89 38.112C160.829 38.976 161.277 40.1493 161.234 41.632ZM153.122 40.704H158.898C158.877 39.936 158.632 39.328 158.162 38.88C157.693 38.432 157.016 38.208 156.13 38.208C154.434 38.208 153.432 39.04 153.122 40.704ZM171.252 41.76C172.82 41.7707 173.604 42.3307 173.604 43.44C173.604 44.0907 173.348 44.6347 172.836 45.072C172.335 45.5093 171.721 45.8187 170.996 46C170.271 46.1707 169.476 46.256 168.612 46.256C167.631 46.256 166.751 46.1493 165.972 45.936C165.193 45.7227 164.543 45.36 164.02 44.848C163.497 44.336 163.236 43.696 163.236 42.928H165.444C165.444 43.3227 165.609 43.6693 165.94 43.968C166.281 44.256 166.687 44.464 167.156 44.592C167.625 44.72 168.121 44.784 168.644 44.784C169.423 44.784 170.073 44.672 170.596 44.448C171.129 44.224 171.396 43.8667 171.396 43.376C171.396 42.9067 171.241 42.5707 170.932 42.368C170.633 42.1547 170.143 42.048 169.46 42.048H167.108V41.024H169.46C170.751 41.024 171.396 40.5813 171.396 39.696C171.396 39.2267 171.124 38.88 170.58 38.656C170.047 38.4213 169.396 38.304 168.628 38.304C167.785 38.304 167.039 38.464 166.388 38.784C165.748 39.104 165.433 39.5627 165.444 40.16H163.236C163.236 39.3813 163.492 38.736 164.004 38.224C164.527 37.7013 165.172 37.3387 165.94 37.136C166.719 36.9227 167.604 36.816 168.596 36.816C169.46 36.816 170.255 36.9067 170.98 37.088C171.705 37.2587 172.324 37.568 172.836 38.016C173.348 38.4533 173.604 38.992 173.604 39.632C173.604 40.1227 173.401 40.528 172.996 40.848C172.591 41.1573 172.009 41.3173 171.252 41.328V41.76ZM179.14 43.152C179.14 42.2773 179.497 41.616 180.212 41.168C180.937 40.72 181.828 40.496 182.884 40.496C184.388 40.496 185.977 41.0507 187.652 42.16V40.976C187.652 40.176 187.433 39.6 186.996 39.248C186.559 38.896 185.828 38.72 184.804 38.72H180.132L180.116 36.992H185.652C187.177 36.992 188.292 37.328 188.996 38C189.7 38.6613 190.052 39.728 190.052 41.2V44.224H191.636V46.016H188.82V46L188.516 46.016C188.281 46.016 188.1 45.92 187.972 45.728C187.844 45.5253 187.78 45.312 187.78 45.088C187.78 44.8533 187.833 44.544 187.94 44.16C188.057 43.776 188.159 43.52 188.244 43.392L187.764 43.136C187.508 43.712 187.183 44.208 186.788 44.624C186.404 45.0293 185.988 45.3387 185.54 45.552C185.103 45.7653 184.676 45.92 184.26 46.016C183.855 46.112 183.444 46.16 183.028 46.16C181.983 46.16 181.071 45.888 180.292 45.344C179.524 44.8 179.14 44.0693 179.14 43.152ZM181.54 43.184C181.54 43.6853 181.775 44.08 182.244 44.368C182.724 44.6453 183.289 44.784 183.94 44.784C184.367 44.784 184.772 44.72 185.156 44.592C185.54 44.4533 185.849 44.2933 186.084 44.112C186.319 43.92 186.527 43.7333 186.708 43.552C186.889 43.3707 187.017 43.216 187.092 43.088L187.204 42.88C187.065 42.7947 186.879 42.688 186.644 42.56C186.409 42.4213 185.988 42.24 185.38 42.016C184.772 41.792 184.228 41.68 183.748 41.68C183.449 41.68 183.151 41.712 182.852 41.776C182.553 41.84 182.26 41.9947 181.972 42.24C181.684 42.4747 181.54 42.7893 181.54 43.184ZM201.668 36.992H204.068V46H201.668V42.384H195.492V46H193.092V36.992H195.492V40.656H201.668V36.992ZM215.187 36.992V38.88H211.475V46H209.283V38.88H205.475V36.992H215.187ZM224.476 46V42.464C224.476 41.344 224.817 39.712 225.5 37.568L224.988 37.472C224.316 39.584 223.639 41.1413 222.956 42.144L219.692 46H216.748V36.992H219.116L219.132 41.168C219.132 41.9467 218.849 43.3387 218.284 45.344L218.812 45.44C218.823 45.408 218.892 45.1627 219.02 44.704C219.148 44.2347 219.233 43.92 219.276 43.76C219.329 43.6 219.415 43.344 219.532 42.992C219.649 42.6293 219.761 42.3253 219.868 42.08C219.985 41.8347 220.108 41.6 220.236 41.376L223.772 36.992H226.876L226.844 46H224.476ZM234.429 46.16C232.786 46.16 231.48 45.712 230.509 44.816C229.538 43.9093 229.053 42.6027 229.053 40.896C229.053 40.2027 229.101 39.5893 229.197 39.056C229.304 38.5227 229.474 38.0587 229.709 37.664C229.944 37.2587 230.205 36.912 230.493 36.624C230.781 36.3253 231.154 36.0587 231.613 35.824C232.082 35.5787 232.546 35.376 233.005 35.216C233.464 35.0453 234.034 34.864 234.717 34.672C236.562 34.1173 237.741 33.7707 238.253 33.632V35.472C237.368 35.7387 236.216 36.0853 234.797 36.512C233.645 36.8107 232.76 37.232 232.141 37.776C231.522 38.32 231.005 39.0507 230.589 39.968L230.973 40.352C231.869 39.3067 233.181 38.784 234.909 38.784C236.178 38.784 237.24 39.088 238.093 39.696C238.957 40.304 239.389 41.1787 239.389 42.32C239.389 43.1413 239.133 43.856 238.621 44.464C238.109 45.0613 237.485 45.4933 236.749 45.76C236.024 46.0267 235.25 46.16 234.429 46.16ZM234.221 40.064C233.176 40.064 232.189 40.368 231.261 40.976V41.312C231.261 42.304 231.554 43.0507 232.141 43.552C232.738 44.0533 233.506 44.304 234.445 44.304C235.213 44.304 235.864 44.1067 236.397 43.712C236.93 43.3067 237.197 42.752 237.197 42.048C237.197 41.3653 236.909 40.864 236.333 40.544C235.757 40.224 235.053 40.064 234.221 40.064ZM243.276 35.232C242.999 34.9653 242.86 34.6187 242.86 34.192C242.86 33.7653 242.999 33.424 243.276 33.168C243.553 32.912 243.921 32.784 244.38 32.784C244.839 32.784 245.207 32.912 245.484 33.168C245.761 33.424 245.9 33.7653 245.9 34.192C245.9 34.6187 245.761 34.9653 245.484 35.232C245.207 35.488 244.839 35.616 244.38 35.616C243.921 35.616 243.553 35.488 243.276 35.232ZM240.572 46V44.208H243.308V38.72H240.572V36.992H244.028C245.148 36.992 245.708 37.552 245.708 38.672V44.208H248.412V46H240.572ZM255.312 36.816C256.005 36.816 256.677 36.9173 257.328 37.12C257.989 37.312 258.592 37.5947 259.136 37.968C259.691 38.3413 260.133 38.8427 260.464 39.472C260.795 40.0907 260.96 40.784 260.96 41.552C260.96 42.9813 260.4 44.1227 259.28 44.976C258.16 45.8293 256.811 46.256 255.232 46.256C253.643 46.256 252.272 45.824 251.12 44.96C249.979 44.096 249.408 42.96 249.408 41.552C249.408 40.5707 249.707 39.712 250.304 38.976C250.912 38.2293 251.653 37.6853 252.528 37.344C253.413 36.992 254.341 36.816 255.312 36.816ZM251.792 41.52C251.792 42.5013 252.112 43.3227 252.752 43.984C253.392 44.6453 254.208 44.976 255.2 44.976C256.181 44.976 256.987 44.6507 257.616 44C258.245 43.3387 258.56 42.512 258.56 41.52C258.56 40.5707 258.261 39.7813 257.664 39.152C257.077 38.512 256.272 38.192 255.248 38.192C254.171 38.192 253.323 38.5333 252.704 39.216C252.096 39.888 251.792 40.656 251.792 41.52ZM271.687 36.992V38.88H267.975V46H265.783V38.88H261.975V36.992H271.687ZM280.976 46V42.464C280.976 41.344 281.317 39.712 282 37.568L281.488 37.472C280.816 39.584 280.139 41.1413 279.456 42.144L276.192 46H273.248V36.992H275.616L275.632 41.168C275.632 41.9467 275.349 43.3387 274.784 45.344L275.312 45.44C275.323 45.408 275.392 45.1627 275.52 44.704C275.648 44.2347 275.733 43.92 275.776 43.76C275.829 43.6 275.915 43.344 276.032 42.992C276.149 42.6293 276.261 42.3253 276.368 42.08C276.485 41.8347 276.608 41.6 276.736 41.376L280.272 36.992H283.376L283.344 46H280.976ZM295.121 41.792C295.388 41.8453 295.526 42.032 295.537 42.352C295.548 42.6613 295.478 43.104 295.329 43.68C295.276 43.904 295.238 44.08 295.217 44.208H296.913V46.032H292.145L293.729 42.656H288.161V46H285.969V37.008H288.161V40.752H288.865L293.969 36.992H296.833L292.257 40.432C291.788 40.8267 290.828 41.168 289.377 41.456V41.968C290.486 41.6907 291.094 41.5413 291.201 41.52C291.969 41.4027 292.641 41.344 293.217 41.344C294.198 41.344 294.833 41.4933 295.121 41.792ZM300.167 35.232C299.889 34.9653 299.751 34.6187 299.751 34.192C299.751 33.7653 299.889 33.424 300.167 33.168C300.444 32.912 300.812 32.784 301.271 32.784C301.729 32.784 302.097 32.912 302.375 33.168C302.652 33.424 302.791 33.7653 302.791 34.192C302.791 34.6187 302.652 34.9653 302.375 35.232C302.097 35.488 301.729 35.616 301.271 35.616C300.812 35.616 300.444 35.488 300.167 35.232ZM297.463 46V44.208H300.199V38.72H297.463V36.992H300.919C302.039 36.992 302.599 37.552 302.599 38.672V44.208H305.303V46H297.463ZM314.091 41.68C314.517 41.712 314.869 41.7493 315.147 41.792C315.435 41.824 315.739 41.8827 316.059 41.968C316.389 42.0533 316.645 42.1653 316.827 42.304C317.019 42.4427 317.179 42.6293 317.307 42.864C317.435 43.088 317.499 43.3547 317.499 43.664C317.499 44.496 317.131 45.0933 316.395 45.456C315.659 45.8187 314.715 46 313.562 46H307.051V36.88H312.843C315.797 36.88 317.275 37.6267 317.275 39.12C317.275 40.4107 316.213 41.1253 314.091 41.264V41.68ZM312.715 38.528H309.451V40.96H312.923C313.531 40.96 314.027 40.848 314.411 40.624C314.795 40.3893 314.987 40.0747 314.987 39.68C314.987 39.2853 314.779 38.9973 314.363 38.816C313.957 38.624 313.408 38.528 312.715 38.528ZM313.227 44.512C313.781 44.512 314.235 44.4053 314.587 44.192C314.949 43.968 315.131 43.6533 315.131 43.248C315.131 42.8213 314.928 42.496 314.523 42.272C314.128 42.048 313.589 41.936 312.907 41.936H309.451V44.512H313.227Z" fill="black"/>
<g clip-path="url(#clip3_349_3020)">
<path d="M71.5846 9.35527C71.2101 8.98013 70.7854 8.68655 70.3325 8.47137C69.8796 8.68655 69.4549 8.98076 69.0797 9.35527C67.3238 11.1112 67.3238 13.958 69.0797 15.7145C69.4549 16.089 69.8796 16.3832 70.3325 16.5977C70.7854 16.3832 71.2101 16.089 71.5846 15.7145C73.3411 13.958 73.3411 11.1112 71.5846 9.35527Z" fill="#FF5D5D"/>
<path d="M16.9993 66.5102C16.6241 66.1357 16.1994 65.8414 15.7465 65.6269C15.2936 65.8414 14.8689 66.1357 14.4944 66.5102C12.7379 68.2667 12.7379 71.1135 14.4944 72.8693C14.8689 73.2445 15.2936 73.5381 15.7465 73.7532C16.1994 73.5381 16.6241 73.2439 16.9993 72.8693C18.7552 71.1135 18.7552 68.2667 16.9993 66.5102Z" fill="#FF5D5D"/>
<path d="M13.8193 63.5875C12.8532 63.5875 11.9223 63.812 11.0836 64.2336C6.00036 57.6354 3.2119 49.4733 3.2119 41.1123C3.2119 20.2136 20.2136 3.2119 41.1123 3.2119C43.7753 3.2119 46.4339 3.48918 49.0147 4.03683C49.8829 4.22064 50.7348 3.66608 50.9186 2.79912C51.1031 1.9309 50.5485 1.079 49.6809 0.894564C46.8818 0.301116 43.9986 0 41.1123 0C30.131 0 19.8065 4.27647 12.0415 12.0415C4.27647 19.8065 0 30.131 0 41.1123C0 50.2625 3.07891 59.1949 8.68781 66.3872C8.05672 67.3633 7.71671 68.5 7.71671 69.6901C7.71671 71.3198 8.35157 72.8524 9.50459 74.0054C10.657 75.1578 12.1895 75.7927 13.8193 75.7927C15.4497 75.7927 16.9823 75.1578 18.1347 74.0054C19.2877 72.8524 19.9219 71.3198 19.9219 69.6901C19.9219 68.0603 19.2871 66.5277 18.1347 65.3747C16.9823 64.2223 15.4497 63.5875 13.8193 63.5875ZM15.8638 71.7339C14.7365 72.8612 12.9028 72.8612 11.7755 71.7339C11.2297 71.1881 10.9286 70.4623 10.9286 69.6901C10.9286 68.9178 11.2297 68.192 11.7755 67.6456C12.3388 67.0823 13.0791 66.8006 13.8193 66.8006C14.5596 66.8006 15.2998 67.0823 15.8638 67.6456C16.4095 68.1914 16.71 68.9178 16.71 69.6901C16.71 70.4623 16.4095 71.1881 15.8638 71.7339Z" fill="#3B3B3B"/>
<path d="M73.5368 15.8374C74.1679 14.8613 74.5079 13.7246 74.5079 12.5346C74.5079 10.9048 73.8731 9.37221 72.7201 8.21919C71.5677 7.0668 70.0351 6.43195 68.4053 6.43195C66.7749 6.43195 65.2424 7.0668 64.09 8.21919C62.9376 9.37221 62.3027 10.9048 62.3027 12.5346C62.3027 14.1643 62.9376 15.6969 64.09 16.8499C65.2424 18.0023 66.7749 18.6372 68.4053 18.6372C69.3714 18.6372 70.3024 18.4126 71.1417 17.991C76.2243 24.5892 79.0127 32.7513 79.0127 41.1123C79.0127 62.011 62.011 79.0127 41.1123 79.0127C38.864 79.0127 36.6119 78.8145 34.4175 78.4237C33.5449 78.2681 32.71 78.8496 32.555 79.7228C32.3988 80.5961 32.981 81.4298 33.8542 81.5854C36.2336 82.0094 38.6758 82.2246 41.1123 82.2246C52.0936 82.2246 62.4181 77.9482 70.1832 70.1831C77.9482 62.4181 82.2247 52.0936 82.2247 41.1123C82.2247 31.9622 79.1457 23.0297 73.5368 15.8374ZM66.3615 14.5784C65.2342 13.4517 65.2342 11.618 66.3615 10.4907C66.9073 9.94433 67.6331 9.64385 68.4053 9.64385C69.1776 9.64385 69.9034 9.94433 70.4491 10.4907C70.9955 11.0365 71.296 11.7623 71.296 12.5346C71.296 13.3068 70.9955 14.0326 70.4491 14.5784C69.9034 15.1248 69.1776 15.4253 68.4053 15.4253C67.6331 15.4253 66.9073 15.1248 66.3615 14.5784Z" fill="#3B3B3B"/>
<path d="M27.0012 76.299L26.3952 77.7863L26.9968 76.2971C26.1744 75.9652 25.2385 76.3617 24.906 77.1841C24.5735 78.0065 24.9706 78.9425 25.793 79.275L25.8426 79.2951C26.032 79.3672 26.2271 79.4017 26.4191 79.4017C27.0659 79.4017 27.6769 79.0102 27.9215 78.3716C28.2389 77.5429 27.8299 76.6164 27.0012 76.299Z" fill="#3B3B3B"/>
<path d="M55.2798 5.94829L55.298 5.95582C55.495 6.03549 55.6988 6.07313 55.8989 6.07313C56.5344 6.07313 57.136 5.6936 57.3888 5.06878C57.7207 4.24636 57.3236 3.31039 56.5012 2.97791L56.4723 2.96662C55.6493 2.63727 54.7146 3.03751 54.3852 3.86118C54.0552 4.68486 54.4561 5.61895 55.2798 5.94829Z" fill="#3B3B3B"/>
<path d="M41.1123 67.0945H55.1563C58.1301 67.0945 60.1534 64.0773 59.025 61.3263L47.5897 33.4528C46.906 31.7868 46.5545 30.0037 46.5545 28.2032V20.8359C46.5545 19.7677 46.9791 18.7437 47.7341 17.9883C48.2156 17.5073 48.4858 16.8541 48.4858 16.1738V15.13H33.7392V16.1738C33.7392 16.8541 34.0094 17.5073 34.4909 17.9883C35.2459 18.7437 35.67 19.7677 35.67 20.8359V28.2032C35.67 30.0037 35.3185 31.7872 34.6353 33.4528L23.2 61.3263C22.0712 64.0773 24.0945 67.0945 27.0683 67.0945H41.1123Z" fill="white"/>
<path d="M50.8618 41.4291H38.1467L29.854 61.6432C28.9438 63.8616 30.0834 66.2516 32.1178 67.0945H55.1563C58.1301 67.0945 60.1534 64.0774 59.025 61.3263L50.8618 41.4291Z" fill="#FFC448"/>
<path d="M60.002 60.9253L48.5667 33.0523C47.9325 31.506 47.6107 29.8747 47.6107 28.2033V20.8356C47.6107 20.0422 47.9198 19.2963 48.4809 18.7352C49.1649 18.0511 49.542 17.1414 49.542 16.1739V15.1301C49.542 14.5467 49.0688 14.0739 48.4858 14.0739H33.7392C33.1558 14.0739 32.683 14.5467 32.683 15.1301V16.1739C32.683 17.1414 33.0597 18.0511 33.7437 18.7352C34.3048 19.2963 34.6138 20.0422 34.6138 20.836V28.2033C34.6138 29.8747 34.2924 31.506 33.6579 33.0523L30.5158 40.7113C30.5145 40.7142 30.5133 40.7171 30.512 40.72L22.2226 60.9253C21.5588 62.5439 21.744 64.3778 22.7185 65.8304C23.693 67.2835 25.319 68.1507 27.0683 68.1507H55.1563C56.9056 68.1507 58.532 67.2835 59.5065 65.8304C60.4805 64.3773 60.6658 62.5439 60.002 60.9253ZM35.6123 33.8539C36.3516 32.0522 36.7262 30.1511 36.7262 28.2033V20.8356C36.7262 19.4782 36.1977 18.2017 35.2377 17.2417C34.9555 16.9595 34.7987 16.5848 34.7954 16.1863H47.4296C47.4263 16.5848 47.2695 16.959 46.9869 17.2417C46.0273 18.2017 45.4984 19.4778 45.4984 20.8356V28.2029C45.4984 30.1507 45.8734 32.0518 46.6123 33.8535L49.1624 40.0693H33.0622L35.6123 33.8539ZM57.7518 64.6538C57.1618 65.5338 56.2158 66.0384 55.1563 66.0384H27.0683C26.0092 66.0384 25.0632 65.5338 24.4728 64.6538C24.0276 63.9899 23.8576 63.2201 23.9732 62.4609H25.7134C26.2964 62.4609 26.7696 61.9877 26.7696 61.4048C26.7696 60.8214 26.2964 60.3486 25.7134 60.3486H24.743L25.956 57.3912H27.7375C28.3209 57.3912 28.7937 56.918 28.7937 56.335C28.7937 55.7517 28.3209 55.2789 27.7375 55.2789H26.8228L28.0358 52.3215H29.8676C30.451 52.3215 30.9238 51.8483 30.9238 51.2653C30.9238 50.682 30.451 50.2092 29.8676 50.2092H28.9026L30.116 47.2518H31.9973C32.5807 47.2518 33.0535 46.7786 33.0535 46.1956C33.0535 45.6123 32.5807 45.1395 31.9973 45.1395H30.9824L32.1958 42.1821H50.0288L58.0476 61.7274C58.4494 62.7072 58.3418 63.7742 57.7518 64.6538Z" fill="#3B3B3B"/>
<path d="M54.7862 60.9913C54.5651 60.4513 53.9487 60.193 53.4086 60.4137C52.869 60.6349 52.6103 61.2512 52.831 61.7913L52.8368 61.8045C53.0043 62.2134 53.3983 62.4609 53.8146 62.4609C53.9479 62.4609 54.0832 62.4357 54.2144 62.3821C54.754 62.161 55.0127 61.5442 54.7916 61.0045L54.7862 60.9913Z" fill="#3B3B3B"/>
<path d="M53.2936 57.3524L49.5111 48.133C49.2899 47.5934 48.6732 47.3351 48.1331 47.5567C47.5934 47.7778 47.3356 48.395 47.5567 48.9346L51.3392 58.154C51.5067 58.5629 51.9007 58.8096 52.317 58.8096C52.4503 58.8096 52.586 58.7844 52.7172 58.7304C53.2568 58.5092 53.5151 57.892 53.2936 57.3524Z" fill="#3B3B3B"/>
<path fill-rule="evenodd" clip-rule="evenodd" d="M60.6544 55.2987C61.1908 54.5769 62.2107 54.4266 62.9325 54.963L73.8731 63.0929C74.5948 63.6292 74.7452 64.6491 74.2088 65.3709C73.6725 66.0927 72.6526 66.243 71.9308 65.7067L60.9902 57.5767C60.2684 57.0404 60.1181 56.0205 60.6544 55.2987Z" fill="#3B3B3B"/>
<path fill-rule="evenodd" clip-rule="evenodd" d="M7.59639 20.6077C8.14263 19.8934 9.16451 19.7572 9.87883 20.3034L29.0181 34.9394C29.7325 35.4857 29.8687 36.5075 29.3225 37.2218C28.7762 37.9362 27.7543 38.0724 27.04 37.5262L7.90071 22.8902C7.1864 22.3439 7.05015 21.3221 7.59639 20.6077Z" fill="#3B3B3B"/>
</g>
<defs>
<clipPath id="clip0_349_3020">
<rect width="82.2246" height="82.2246" fill="white" transform="translate(0 122)"/>
</clipPath>
<clipPath id="clip1_349_3020">
<rect width="82.2246" height="82.2246" fill="white" transform="translate(0 244)"/>
</clipPath>
<clipPath id="clip2_349_3020">
<rect width="56.1733" height="50.4745" fill="white" transform="translate(12.2115 260.278)"/>
</clipPath>
<clipPath id="clip3_349_3020">
<rect width="82.2246" height="82.2246" fill="white"/>
</clipPath>
</defs>
</svg>
