<svg width="56" height="221" viewBox="0 0 56 221" fill="none" xmlns="http://www.w3.org/2000/svg">
<g clip-path="url(#clip0_508_7000)">
<path d="M30.0783 113.458C28.3173 115.219 27.7723 117.163 27.6829 118.714C29.3059 118.905 32.0369 118.756 34.4294 116.364C36.1963 114.597 36.7404 112.656 36.8273 111.108C35.2048 110.917 32.4721 111.064 30.0783 113.458Z" fill="#FFC448"/>
<path d="M30.0783 103.401C28.3173 105.162 27.7723 107.106 27.6829 108.657C29.3059 108.847 32.0369 108.699 34.4294 106.306C36.1963 104.54 36.7404 102.599 36.8273 101.05C35.2048 100.859 32.4721 101.006 30.0783 103.401Z" fill="#FFC448"/>
<path d="M29.5069 92.1877C28.3238 93.316 27.0051 95.2185 27.0051 98.0934C27.0051 100.968 28.3229 102.87 29.5061 103.998C30.6888 102.87 32.0066 100.968 32.0066 98.0934C32.0066 95.2087 30.6897 93.3118 29.5069 92.1877Z" fill="#FFC448"/>
<path d="M18.3008 111.133C18.4321 112.636 19.0095 114.463 20.6806 116.134C23.1731 118.627 26.0329 118.684 27.6247 118.459C27.4917 116.953 26.9138 115.123 25.2478 113.458C22.7536 110.963 19.8917 110.908 18.3008 111.133Z" fill="#FFC448"/>
<path d="M18.3008 101.076C18.4321 102.579 19.0095 104.406 20.6806 106.077C23.1731 108.57 26.0329 108.626 27.6247 108.402C27.4917 106.896 26.9138 105.066 25.2478 103.401C22.7536 100.906 19.8917 100.851 18.3008 101.076Z" fill="#FFC448"/>
<path d="M48.1668 89.0638C47.9148 88.8114 47.629 88.6138 47.3243 88.4691C47.0195 88.6138 46.7337 88.8118 46.4813 89.0638C45.2998 90.2453 45.2998 92.1608 46.4813 93.3427C46.7337 93.5947 47.0195 93.7926 47.3243 93.937C47.629 93.7926 47.9148 93.5947 48.1668 93.3427C49.3487 92.1608 49.3487 90.2453 48.1668 89.0638Z" fill="#FF5D5D"/>
<path d="M11.4381 127.521C11.1857 127.269 10.8999 127.071 10.5952 126.927C10.2904 127.071 10.0046 127.269 9.75263 127.521C8.57074 128.703 8.57074 130.619 9.75263 131.8C10.0046 132.053 10.2904 132.25 10.5952 132.395C10.8999 132.25 11.1857 132.052 11.4381 131.8C12.6196 130.619 12.6196 128.703 11.4381 127.521Z" fill="#FF5D5D"/>
<path d="M16.0316 111.109C15.7501 111.985 14.5395 116.546 18.3498 120.356C20.5549 122.561 23.0018 123.087 24.8355 123.087C25.5142 123.087 26.1077 123.015 26.575 122.929V130C26.575 130.596 27.0587 131.081 27.6556 131.081C28.2524 131.081 28.7361 130.596 28.7361 130V122.927C29.2055 123.013 29.8045 123.087 30.4908 123.087C32.324 123.087 34.7718 122.561 36.9765 120.356C40.7868 116.546 39.5762 111.985 39.2947 111.109C39.1993 110.783 38.954 110.517 38.6286 110.398C38.5627 110.374 38.0301 110.185 37.2027 110.065C40.7374 106.304 39.5703 101.91 39.2947 101.052C39.1993 100.726 38.954 100.46 38.6286 100.341C38.4766 100.285 35.8313 99.3526 32.8175 100.402C32.9876 99.7033 33.0872 98.9355 33.0872 98.0934C33.0872 92.7048 29.0067 90.3364 28.1878 89.916C27.8898 89.7526 27.5281 89.7379 27.214 89.8839C27.0114 89.978 22.2509 92.2561 22.2509 98.0934C22.2509 98.9372 22.351 99.7063 22.5215 100.406C19.5022 99.3496 16.8497 100.285 16.6977 100.341C16.3723 100.46 16.1274 100.726 16.032 101.052C15.756 101.91 14.5893 106.304 18.1236 110.065C17.2963 110.185 16.7636 110.374 16.6977 110.398C16.3723 110.517 16.127 110.784 16.0316 111.109ZM35.4485 118.828C32.9547 121.322 30.0645 121.016 28.9122 120.761C28.661 119.611 28.3571 116.707 30.8424 114.222C31.6373 113.427 32.4726 112.917 33.2793 112.599C33.4329 112.549 33.5878 112.495 33.7436 112.434C35.2809 111.955 36.6595 112.13 37.3745 112.288C37.6464 113.527 37.9055 116.371 35.4485 118.828ZM37.3745 102.231C37.6464 103.47 37.9055 106.314 35.4485 108.771C34.6553 109.564 33.8225 110.073 33.018 110.391C32.8614 110.442 32.7035 110.497 32.5444 110.559C31.0041 111.039 29.6234 110.862 28.9105 110.703C28.8307 110.343 28.7459 109.814 28.7425 109.181C28.7425 109.172 28.7429 109.163 28.7429 109.153C28.7412 107.885 29.0696 106.206 30.4132 104.629C30.5723 104.471 30.7323 104.301 30.891 104.118C33.3704 101.679 36.2268 101.977 37.3745 102.231ZM27.6636 92.1071C28.7319 92.7905 30.926 94.6182 30.926 98.0934C30.926 100.158 30.151 101.64 29.3089 102.642C29.1338 102.817 28.97 102.994 28.8155 103.172C28.3837 103.592 27.97 103.891 27.6708 104.082C27.3322 103.864 26.8443 103.507 26.3483 102.989C26.2976 102.934 26.2466 102.878 26.1942 102.823C25.2913 101.82 24.4117 100.282 24.4117 98.0934C24.4117 94.571 26.6661 92.7433 27.6636 92.1071ZM17.9514 102.233C19.1054 101.982 22.0031 101.684 24.4839 104.165C24.4999 104.181 24.5138 104.196 24.5294 104.212C24.6244 104.318 24.7194 104.42 24.8144 104.518C26.1077 105.978 26.5125 107.536 26.575 108.782V109.503C26.5509 109.994 26.4821 110.406 26.4163 110.703C25.7008 110.862 24.3188 111.039 22.7786 110.557C22.6224 110.497 22.467 110.443 22.3126 110.393C21.5068 110.074 20.6722 109.565 19.8778 108.771C17.422 106.315 17.6795 103.473 17.9514 102.233ZM17.9514 112.29C18.6778 112.132 20.0948 111.956 21.6638 112.466C21.7672 112.504 21.8702 112.541 21.9728 112.575C22.8035 112.89 23.6662 113.404 24.4839 114.222C26.0418 115.78 26.5074 117.493 26.575 118.84V119.561C26.5509 120.051 26.4821 120.463 26.4163 120.76C25.2614 121.016 22.3712 121.321 19.8778 118.828C17.422 116.372 17.6795 113.53 17.9514 112.29Z" fill="#3B3B3B"/>
<path d="M9.29855 125.555C8.64851 125.555 8.02211 125.706 7.45775 125.99C4.03743 121.55 2.16118 116.058 2.16118 110.432C2.16118 96.37 13.6011 84.9301 27.6631 84.9301C29.4549 84.9301 31.2438 85.1167 32.9803 85.4852C33.5645 85.6088 34.1377 85.2357 34.2614 84.6524C34.3855 84.0682 34.0124 83.4949 33.4286 83.3708C31.5452 82.9715 29.6052 82.7689 27.6631 82.7689C20.2741 82.7689 13.3271 85.6464 8.10231 90.8712C2.87749 96.096 0 103.043 0 110.432C0 116.589 2.07169 122.599 5.84573 127.439C5.42109 128.095 5.19231 128.86 5.19231 129.661C5.19231 130.758 5.61948 131.789 6.39531 132.565C7.17072 133.34 8.20192 133.767 9.29855 133.767C10.3956 133.767 11.4268 133.34 12.2022 132.565C12.978 131.789 13.4048 130.758 13.4048 129.661C13.4048 128.564 12.9776 127.533 12.2022 126.757C11.4268 125.982 10.3956 125.555 9.29855 125.555ZM10.6742 131.036C9.91567 131.795 8.68186 131.795 7.92333 131.036C7.5561 130.669 7.35349 130.181 7.35349 129.661C7.35349 129.141 7.5561 128.653 7.92333 128.285C8.30238 127.906 8.80047 127.717 9.29855 127.717C9.79664 127.717 10.2947 127.906 10.6742 128.285C11.0414 128.653 11.2436 129.141 11.2436 129.661C11.2436 130.181 11.0414 130.669 10.6742 131.036Z" fill="#3B3B3B"/>
<path d="M49.4805 93.4254C49.9051 92.7686 50.1339 92.0037 50.1339 91.203C50.1339 90.1063 49.7068 89.0751 48.9309 88.2993C48.1555 87.5239 47.1243 87.0967 46.0277 87.0967C44.9306 87.0967 43.8994 87.5239 43.124 88.2993C42.3486 89.0751 41.9215 90.1063 41.9215 91.203C41.9215 92.2996 42.3486 93.3308 43.124 94.1066C43.8994 94.882 44.9306 95.3092 46.0277 95.3092C46.6777 95.3092 47.3041 95.1581 47.8689 94.8744C51.2888 99.3141 53.1651 104.806 53.1651 110.432C53.1651 124.494 41.7252 135.934 27.6632 135.934C26.1503 135.934 24.635 135.8 23.1585 135.538C22.5713 135.433 22.0095 135.824 21.9052 136.412C21.8001 136.999 22.1918 137.56 22.7794 137.665C24.3805 137.95 26.0237 138.095 27.6632 138.095C35.0521 138.095 41.9991 135.218 47.2239 129.993C52.4488 124.768 55.3262 117.821 55.3262 110.432C55.3262 104.275 53.2546 98.2648 49.4805 93.4254ZM44.6525 92.5782C43.894 91.8201 43.894 90.5863 44.6525 89.8278C45.0197 89.4601 45.5081 89.2579 46.0277 89.2579C46.5473 89.2579 47.0357 89.4601 47.4029 89.8278C47.7706 90.195 47.9728 90.6834 47.9728 91.203C47.9728 91.7226 47.7706 92.211 47.4029 92.5782C47.0357 92.9458 46.5473 93.148 46.0277 93.148C45.5081 93.148 45.0197 92.9458 44.6525 92.5782Z" fill="#3B3B3B"/>
<path d="M18.1681 134.108L17.7604 135.109L18.1652 134.107C17.6118 133.883 16.982 134.15 16.7583 134.703C16.5346 135.257 16.8018 135.887 17.3551 136.11L17.3885 136.124C17.516 136.172 17.6472 136.196 17.7764 136.196C18.2116 136.196 18.6227 135.932 18.7873 135.503C19.0009 134.945 18.7257 134.321 18.1681 134.108Z" fill="#3B3B3B"/>
<path d="M37.1958 86.7713L37.208 86.7764C37.3406 86.83 37.4778 86.8553 37.6124 86.8553C38.04 86.8553 38.4448 86.6 38.6149 86.1796C38.8382 85.6262 38.571 84.9964 38.0176 84.7727L37.9982 84.7651C37.4444 84.5435 36.8155 84.8128 36.5939 85.367C36.3718 85.9212 36.6416 86.5497 37.1958 86.7713Z" fill="#3B3B3B"/>
</g>
<g clip-path="url(#clip1_508_7000)">
<path d="M48.1668 171.154C47.9148 170.901 47.629 170.704 47.3243 170.559C47.0195 170.704 46.7337 170.902 46.4813 171.154C45.2998 172.335 45.2998 174.251 46.4813 175.432C46.7337 175.684 47.0195 175.882 47.3243 176.027C47.629 175.882 47.9148 175.684 48.1668 175.432C49.3487 174.251 49.3487 172.335 48.1668 171.154Z" fill="#FF5D5D"/>
<path d="M11.4381 209.611C11.1857 209.359 10.8999 209.161 10.5952 209.017C10.2904 209.161 10.0046 209.359 9.75263 209.611C8.57074 210.793 8.57074 212.708 9.75263 213.89C10.0046 214.142 10.2904 214.34 10.5952 214.485C10.8999 214.34 11.1857 214.142 11.4381 213.89C12.6196 212.708 12.6196 210.793 11.4381 209.611Z" fill="#FF5D5D"/>
<path d="M9.29855 207.644C8.64851 207.644 8.02211 207.796 7.45775 208.079C4.03743 203.64 2.16118 198.148 2.16118 192.522C2.16118 178.46 13.6011 167.02 27.6631 167.02C29.4549 167.02 31.2438 167.206 32.9803 167.575C33.5645 167.699 34.1377 167.325 34.2614 166.742C34.3855 166.158 34.0124 165.585 33.4286 165.461C31.5452 165.061 29.6052 164.859 27.6631 164.859C20.2741 164.859 13.3271 167.736 8.10231 172.961C2.87749 178.186 0 185.133 0 192.522C0 198.679 2.07169 204.689 5.84573 209.528C5.42109 210.185 5.19231 210.95 5.19231 211.751C5.19231 212.847 5.61948 213.879 6.39531 214.654C7.17072 215.43 8.20192 215.857 9.29855 215.857C10.3956 215.857 11.4268 215.43 12.2022 214.654C12.978 213.879 13.4048 212.847 13.4048 211.751C13.4048 210.654 12.9776 209.623 12.2022 208.847C11.4268 208.072 10.3956 207.644 9.29855 207.644ZM10.6742 213.126C9.91567 213.884 8.68186 213.884 7.92333 213.126C7.5561 212.759 7.35349 212.27 7.35349 211.751C7.35349 211.231 7.5561 210.743 7.92333 210.375C8.30238 209.996 8.80047 209.806 9.29855 209.806C9.79663 209.806 10.2947 209.996 10.6742 210.375C11.0414 210.742 11.2436 211.231 11.2436 211.751C11.2436 212.27 11.0414 212.759 10.6742 213.126Z" fill="#3B3B3B"/>
<path d="M49.4805 175.515C49.9051 174.858 50.1339 174.093 50.1339 173.293C50.1339 172.196 49.7068 171.165 48.9309 170.389C48.1555 169.614 47.1243 169.186 46.0277 169.186C44.9306 169.186 43.8994 169.614 43.124 170.389C42.3486 171.165 41.9215 172.196 41.9215 173.293C41.9215 174.389 42.3486 175.421 43.124 176.196C43.8994 176.972 44.9306 177.399 46.0277 177.399C46.6777 177.399 47.3041 177.248 47.8689 176.964C51.2888 181.404 53.1651 186.896 53.1651 192.522C53.1651 206.584 41.7252 218.024 27.6632 218.024C26.1503 218.024 24.635 217.89 23.1585 217.627C22.5713 217.523 22.0095 217.914 21.9052 218.501C21.8001 219.089 22.1918 219.65 22.7794 219.755C24.3805 220.04 26.0237 220.185 27.6632 220.185C35.0521 220.185 41.9991 217.307 47.2239 212.082C52.4488 206.858 55.3262 199.911 55.3262 192.522C55.3262 186.365 53.2546 180.355 49.4805 175.515ZM44.6525 174.668C43.894 173.91 43.894 172.676 44.6525 171.917C45.0197 171.55 45.5081 171.348 46.0277 171.348C46.5473 171.348 47.0357 171.55 47.4029 171.917C47.7706 172.285 47.9728 172.773 47.9728 173.293C47.9728 173.812 47.7706 174.301 47.4029 174.668C47.0357 175.036 46.5473 175.238 46.0277 175.238C45.5081 175.238 45.0197 175.036 44.6525 174.668Z" fill="#3B3B3B"/>
<path d="M18.1681 216.198L17.7604 217.198L18.1652 216.196C17.6118 215.973 16.982 216.24 16.7583 216.793C16.5346 217.347 16.8018 217.976 17.3551 218.2L17.3885 218.214C17.516 218.262 17.6472 218.285 17.7764 218.285C18.2116 218.285 18.6227 218.022 18.7873 217.592C19.0009 217.035 18.7257 216.411 18.1681 216.198Z" fill="#3B3B3B"/>
<path d="M37.1958 168.861L37.208 168.866C37.3406 168.92 37.4778 168.945 37.6124 168.945C38.04 168.945 38.4448 168.69 38.6149 168.269C38.8382 167.716 38.571 167.086 38.0176 166.862L37.9982 166.855C37.4444 166.633 36.8155 166.903 36.5939 167.457C36.3718 168.011 36.6416 168.639 37.1958 168.861Z" fill="#3B3B3B"/>
<g clip-path="url(#clip2_508_7000)">
<path d="M16.4674 184.527C12.7428 184.527 9.72314 187.579 9.72314 191.345V195.269L13.9233 192.195V188.903C13.9233 187.947 14.6899 187.172 15.6357 187.172C16.5815 187.172 17.3481 187.947 17.3481 188.903V190.064C17.7823 190.328 18.0908 190.78 18.1632 191.309L22.38 190.954V188.699C22.38 188.463 22.3681 188.229 22.3447 187.999C21.1879 185.926 18.9894 184.527 16.4674 184.527Z" fill="#FFB9B7"/>
<path d="M39.2586 179.31C38.688 179.206 38.1313 179.338 37.6779 179.635C37.6458 179.598 37.6123 179.563 37.5781 179.528C37.0775 179.885 36.71 180.44 36.5957 181.108C36.5867 181.16 36.5822 181.212 36.5767 181.265C35.9144 181.492 35.3904 182.077 35.2605 182.836C35.1427 183.524 35.3762 184.192 35.828 184.644C36.4739 183.85 37.4527 183.343 38.5494 183.343C39.1988 183.343 39.8066 183.521 40.329 183.831C40.5637 183.744 40.8103 183.681 41.0653 183.646V181.974C41.2795 180.724 40.4704 179.531 39.2586 179.31Z" fill="#FF5D5D"/>
<path d="M42.0731 186.905C42.0731 186.856 42.0715 186.808 42.0694 186.76C40.4342 187.068 39.196 188.517 39.196 190.26V194.733H21.5181V197.891C21.5181 200.285 22.3005 202.495 23.6209 204.274C24.9229 204.856 26.3631 205.18 27.8785 205.18H30.3301C36.146 205.18 40.8607 200.414 40.8607 194.535V188.603H42.0731V186.905Z" fill="#FFC448"/>
<path d="M26.501 194.48H22.0273C22.0273 198.571 25.3086 201.888 29.3559 201.888H29.7522C30.3547 201.888 30.9229 201.74 31.4245 201.48C28.5585 200.473 26.501 197.72 26.501 194.48Z" fill="white"/>
<path d="M33.4162 198.184C33.4162 196.138 31.7757 194.48 29.7519 194.48H26.501C26.501 197.72 28.5585 200.473 31.4246 201.48C32.6069 200.865 33.4162 199.62 33.4162 198.184Z" fill="#FF5D5D"/>
<path d="M30.3273 191.86C30.4527 191.733 30.5249 191.558 30.5249 191.378C30.5249 191.198 30.4527 191.023 30.3273 190.896C30.2019 190.769 30.0285 190.697 29.8505 190.697C29.6732 190.697 29.499 190.769 29.3736 190.896C29.2482 191.022 29.176 191.198 29.176 191.378C29.176 191.558 29.2482 191.733 29.3736 191.86C29.499 191.987 29.6732 192.059 29.8505 192.059C30.0285 192.059 30.2019 191.987 30.3273 191.86Z" fill="#3B3B3B"/>
<path d="M41.3612 183.757L41.7234 182.123C41.7261 182.113 41.7282 182.102 41.73 182.09C42.0066 180.474 40.9518 178.926 39.3782 178.639C38.8413 178.541 38.2941 178.601 37.7944 178.808C37.4058 178.493 36.9505 178.283 36.4542 178.192C35.6633 178.048 34.8638 178.227 34.2028 178.694C33.5829 179.133 33.1527 179.775 32.9762 180.519C32.2564 180.905 31.7427 181.614 31.5994 182.451C31.3855 183.701 32.057 184.948 33.198 185.426L34.4151 186.025C34.4233 186.029 34.4317 186.032 34.4401 186.036C34.3822 186.317 34.3514 186.607 34.3514 186.905V190.696H32.4287C32.0562 190.696 31.7543 191.002 31.7543 191.378C31.7543 191.754 32.0562 192.06 32.4287 192.06H35.0255C35.398 192.06 35.7 191.754 35.7 191.378V186.905C35.7 185.317 36.9782 184.025 38.5494 184.025C40.1204 184.025 41.3986 185.317 41.3986 186.905V187.921H40.8606C40.4881 187.921 40.1862 188.227 40.1862 188.603V194.535C40.1862 200.029 35.7648 204.498 30.3301 204.498H27.8784C22.4438 204.498 18.0223 200.029 18.0223 194.535V192.06H27.1216C27.4941 192.06 27.796 191.754 27.796 191.378C27.796 191.002 27.4941 190.696 27.1216 190.696H23.0542V188.699C23.0542 184.564 19.7261 181.2 15.6355 181.2C11.5449 181.2 8.2168 184.564 8.2168 188.699V192.844C8.2168 193.22 8.51871 193.526 8.89122 193.526C9.26374 193.526 9.56565 193.22 9.56565 192.844V188.699C9.56565 185.316 12.2886 182.563 15.6355 182.563C18.9823 182.563 21.7053 185.316 21.7053 188.699V190.696H20.5691V188.875C20.5691 186.125 18.3559 183.888 15.6355 183.888C12.9151 183.888 10.7019 186.125 10.7019 188.875V193.616C10.7019 193.993 11.0038 194.298 11.3763 194.298C11.7488 194.298 12.0508 193.993 12.0508 193.616V188.875C12.0508 186.877 13.6588 185.251 15.6355 185.251C17.6121 185.251 19.2202 186.877 19.2202 188.875V190.696H18.0223V188.903C18.0223 187.573 16.9517 186.49 15.6355 186.49C14.3193 186.49 13.2487 187.573 13.2487 188.903V192.195C13.2487 192.571 13.5506 192.876 13.9231 192.876C14.2956 192.876 14.5975 192.571 14.5975 192.195V188.903C14.5975 188.325 15.063 187.854 15.6355 187.854C16.208 187.854 16.6735 188.325 16.6735 188.903V194.535C16.6735 200.08 20.6349 204.706 25.8467 205.675V209.092C25.8467 209.469 26.1489 209.774 26.5212 209.774H27.7217C28.0942 209.774 28.3961 209.469 28.3961 209.092C28.3961 208.716 28.0942 208.411 27.7217 208.411H27.1956V205.84C27.4216 205.854 27.6493 205.862 27.8784 205.862H29.8156V209.092C29.8156 209.469 30.1175 209.774 30.49 209.774H31.6903C32.0628 209.774 32.3647 209.469 32.3647 209.092C32.3647 208.716 32.0628 208.411 31.6903 208.411H31.1644V205.831C36.9548 205.398 41.5351 200.497 41.5351 194.535V189.285H42.073C42.4455 189.285 42.7475 188.979 42.7475 188.603V186.905C42.7475 185.657 42.2119 184.534 41.3612 183.757ZM34.9283 184.761L33.7691 184.191C33.7549 184.184 33.7407 184.178 33.7265 184.172C33.1564 183.939 32.8207 183.313 32.9285 182.683C33.012 182.195 33.345 181.796 33.7971 181.641C34.0455 181.555 34.2225 181.332 34.2507 181.068L34.2544 181.033C34.2571 181.007 34.2594 180.981 34.2639 180.954C34.3443 180.485 34.5972 180.079 34.976 179.811C35.3406 179.554 35.7806 179.455 36.2147 179.534C36.5859 179.602 36.9168 179.792 37.1716 180.085C37.3926 180.339 37.7643 180.391 38.0449 180.207C38.3726 179.992 38.7615 179.912 39.139 179.981C39.9807 180.134 40.5453 180.967 40.4036 181.843L40.1506 182.983C39.6569 182.776 39.1164 182.661 38.5494 182.661C37.0077 182.661 35.6583 183.506 34.9283 184.761Z" fill="#3B3B3B"/>
<path d="M8.89122 195.196C8.71392 195.196 8.53978 195.268 8.41438 195.396C8.28898 195.523 8.2168 195.698 8.2168 195.878C8.2168 196.057 8.28898 196.233 8.41438 196.36C8.53978 196.487 8.71392 196.56 8.89122 196.56C9.06852 196.56 9.24266 196.487 9.36806 196.36C9.49347 196.233 9.56565 196.057 9.56565 195.878C9.56565 195.698 9.49347 195.523 9.36806 195.396C9.24266 195.268 9.06852 195.196 8.89122 195.196Z" fill="#3B3B3B"/>
<path d="M22.0275 193.798C21.6549 193.798 21.353 194.104 21.353 194.48C21.353 198.941 24.943 202.57 29.3561 202.57H29.752C32.1444 202.57 34.0907 200.603 34.0907 198.184C34.0907 195.766 32.1444 193.798 29.752 193.798H22.0275ZM32.7419 198.184C32.7419 199.851 31.4007 201.206 29.752 201.206H29.3561C26.8588 201.206 24.6791 199.809 23.541 197.747C24.1058 198.089 24.766 198.286 25.471 198.286H27.1217C27.4943 198.286 27.7962 197.981 27.7962 197.605C27.7962 197.228 27.4943 196.923 27.1217 196.923H25.471C24.3727 196.923 23.4435 196.178 23.1508 195.162H29.752C31.4007 195.162 32.7419 196.518 32.7419 198.184Z" fill="#3B3B3B"/>
<path d="M38.7516 187.18C38.877 187.053 38.9492 186.877 38.9492 186.698C38.9492 186.518 38.877 186.343 38.7516 186.215C38.6262 186.089 38.4521 186.016 38.2748 186.016C38.0975 186.016 37.9233 186.089 37.7979 186.215C37.6725 186.343 37.6003 186.518 37.6003 186.698C37.6003 186.877 37.6725 187.053 37.7979 187.18C37.9233 187.307 38.0975 187.38 38.2748 187.38C38.4521 187.38 38.6262 187.307 38.7516 187.18Z" fill="#3B3B3B"/>
</g>
</g>
<g clip-path="url(#clip3_508_7000)">
<path d="M47.93 7.07223C47.6793 6.82105 47.3949 6.62448 47.0916 6.48041C46.7884 6.62448 46.504 6.82147 46.2528 7.07223C45.0772 8.24789 45.0772 10.154 46.2528 11.3301C46.504 11.5808 46.7884 11.7778 47.0916 11.9215C47.3949 11.7778 47.6793 11.5808 47.93 11.3301C49.1061 10.154 49.1061 8.24789 47.93 7.07223Z" fill="#FF5D5D"/>
<path d="M11.382 45.3407C11.1308 45.09 10.8465 44.893 10.5432 44.7493C10.2399 44.893 9.95557 45.09 9.70482 45.3407C8.52873 46.5168 8.52873 48.4229 9.70482 49.5986C9.95557 49.8497 10.2399 50.0463 10.5432 50.1904C10.8465 50.0463 11.1308 49.8493 11.382 49.5986C12.5577 48.4229 12.5577 46.5168 11.382 45.3407Z" fill="#FF5D5D"/>
<path d="M9.25283 43.3838C8.60598 43.3838 7.98266 43.5342 7.42108 43.8164C4.01758 39.3985 2.15055 33.9335 2.15055 28.3354C2.15055 14.3425 13.5342 2.9589 27.527 2.9589C29.3101 2.9589 31.0902 3.14455 32.8182 3.51124C33.3995 3.63431 33.9699 3.263 34.0929 2.68252C34.2164 2.1012 33.8451 1.5308 33.2642 1.40731C31.3901 1.00996 29.4596 0.80835 27.527 0.80835C20.1744 0.80835 13.2616 3.67169 8.06246 8.87081C2.86334 14.0699 0 20.9828 0 28.3354C0 34.4619 2.0615 40.4427 5.81699 45.2584C5.39444 45.9119 5.16678 46.673 5.16678 47.4698C5.16678 48.5611 5.59185 49.5872 6.36387 50.3592C7.13546 51.1308 8.16159 51.5559 9.25283 51.5559C10.3445 51.5559 11.3706 51.1308 12.1422 50.3592C12.9142 49.5872 13.3389 48.5611 13.3389 47.4698C13.3389 46.3786 12.9138 45.3525 12.1422 44.5804C11.3706 43.8089 10.3445 43.3838 9.25283 43.3838ZM10.6217 48.8383C9.86691 49.5931 8.63916 49.5931 7.88437 48.8383C7.51895 48.4729 7.31733 47.9869 7.31733 47.4698C7.31733 46.9528 7.51895 46.4668 7.88437 46.101C8.26156 45.7238 8.75719 45.5352 9.25283 45.5352C9.74846 45.5352 10.2441 45.7238 10.6217 46.101C10.9871 46.4664 11.1883 46.9528 11.1883 47.4698C11.1883 47.9869 10.9871 48.4729 10.6217 48.8383Z" fill="#3B3B3B"/>
<path d="M49.2369 11.4124C49.6595 10.7589 49.8871 9.99777 49.8871 9.20097C49.8871 8.10974 49.4621 7.08361 48.69 6.31159C47.9184 5.54 46.8923 5.11493 45.8011 5.11493C44.7094 5.11493 43.6833 5.54 42.9117 6.31159C42.1401 7.08361 41.715 8.10974 41.715 9.20097C41.715 10.2922 42.1401 11.3183 42.9117 12.0904C43.6833 12.862 44.7094 13.287 45.8011 13.287C46.4479 13.287 47.0712 13.1367 47.6332 12.8544C51.0363 17.2723 52.9034 22.7373 52.9034 28.3354C52.9034 42.3283 41.5197 53.7119 27.5269 53.7119C26.0215 53.7119 24.5136 53.5792 23.0443 53.3175C22.46 53.2133 21.901 53.6027 21.7972 54.1874C21.6927 54.7721 22.0824 55.3303 22.6671 55.4344C24.2603 55.7184 25.8955 55.8625 27.5269 55.8625C34.8795 55.8625 41.7923 52.9991 46.9914 47.8C52.1906 42.6009 55.0539 35.688 55.0539 28.3354C55.0539 22.2089 52.9924 16.2281 49.2369 11.4124ZM44.4326 10.5694C43.6778 9.81506 43.6778 8.58731 44.4326 7.83252C44.798 7.46667 45.284 7.26548 45.8011 7.26548C46.3181 7.26548 46.8041 7.46667 47.1695 7.83252C47.5354 8.19794 47.7366 8.68392 47.7366 9.20097C47.7366 9.71803 47.5354 10.204 47.1695 10.5694C46.8041 10.9353 46.3181 11.1365 45.8011 11.1365C45.284 11.1365 44.798 10.9353 44.4326 10.5694Z" fill="#3B3B3B"/>
<path d="M18.0788 51.8948L17.673 52.8907L18.0758 51.8936C17.5252 51.6714 16.8985 51.9368 16.6759 52.4875C16.4532 53.0382 16.7191 53.6648 17.2698 53.8875L17.303 53.9009C17.4298 53.9492 17.5604 53.9723 17.689 53.9723C18.122 53.9723 18.5311 53.7102 18.6949 53.2826C18.9075 52.7278 18.6336 52.1074 18.0788 51.8948Z" fill="#3B3B3B"/>
<path d="M37.013 4.79107L37.0252 4.79611C37.1571 4.84945 37.2936 4.87466 37.4276 4.87466C37.8531 4.87466 38.2559 4.62054 38.4251 4.20219C38.6473 3.65153 38.3815 3.02485 37.8308 2.80223L37.8115 2.79467C37.2604 2.57415 36.6346 2.84213 36.414 3.39363C36.1931 3.94513 36.4615 4.57055 37.013 4.79107Z" fill="#3B3B3B"/>
<path d="M27.527 45.7319H36.9302C38.9214 45.7319 40.2761 43.7117 39.5205 41.8698L31.864 23.2069C31.4062 22.0914 31.1709 20.8975 31.1709 19.692V14.7591C31.1709 14.044 31.4551 13.3583 31.9606 12.8525C32.283 12.5304 32.4639 12.0931 32.4639 11.6376V10.9387H22.5902V11.6376C22.5902 12.0931 22.7712 12.5304 23.0936 12.8525C23.5991 13.3583 23.8831 14.044 23.8831 14.7591V19.692C23.8831 20.8975 23.6477 22.0917 23.1902 23.2069L15.5337 41.8698C14.7779 43.7117 16.1325 45.7319 18.1237 45.7319H27.527Z" fill="white"/>
<path d="M34.0551 28.5475H25.5416L19.9892 42.082C19.3798 43.5673 20.1428 45.1676 21.5049 45.732H36.9305C38.9217 45.732 40.2764 43.7118 39.5208 41.8698L34.0551 28.5475Z" fill="#FFC448"/>
<path d="M40.1747 41.6013L32.5181 22.9387C32.0935 21.9034 31.8781 20.8111 31.8781 19.6921V14.759C31.8781 14.2277 32.085 13.7283 32.4607 13.3526C32.9187 12.8946 33.1712 12.2855 33.1712 11.6377V10.9388C33.1712 10.5482 32.8543 10.2316 32.464 10.2316H22.5903C22.1997 10.2316 21.8831 10.5482 21.8831 10.9388V11.6377C21.8831 12.2855 22.1353 12.8946 22.5933 13.3526C22.969 13.7283 23.1759 14.2277 23.1759 14.7592V19.6921C23.1759 20.8111 22.9607 21.9034 22.5359 22.9387L20.432 28.0669C20.4312 28.0688 20.4304 28.0708 20.4295 28.0727L14.8793 41.6013C14.4348 42.685 14.5588 43.9129 15.2113 44.8856C15.8638 45.8585 16.9525 46.4392 18.1237 46.4392H36.9303C38.1015 46.4392 39.1905 45.8585 39.843 44.8856C40.4952 43.9127 40.6192 42.685 40.1747 41.6013ZM23.8444 23.4755C24.3394 22.2691 24.5903 20.9962 24.5903 19.6921V14.759C24.5903 13.8501 24.2364 12.9954 23.5936 12.3526C23.4046 12.1637 23.2997 11.9128 23.2975 11.646H31.7568C31.7546 11.9128 31.6496 12.1634 31.4604 12.3526C30.8179 12.9954 30.4637 13.8498 30.4637 14.759V19.6918C30.4637 20.9959 30.7148 22.2689 31.2096 23.4752L32.917 27.6371H22.137L23.8444 23.4755ZM38.6681 44.0977C38.2731 44.687 37.6396 45.0248 36.9303 45.0248H18.1237C17.4146 45.0248 16.7812 44.687 16.3859 44.0977C16.0878 43.6533 15.974 43.1378 16.0514 42.6295H17.2166C17.6069 42.6295 17.9237 42.3127 17.9237 41.9223C17.9237 41.5317 17.6069 41.2152 17.2166 41.2152H16.5668L17.379 39.2351H18.5718C18.9624 39.2351 19.279 38.9182 19.279 38.5279C19.279 38.1373 18.9624 37.8207 18.5718 37.8207H17.9594L18.7715 35.8406H19.998C20.3886 35.8406 20.7052 35.5237 20.7052 35.1334C20.7052 34.7428 20.3886 34.4262 19.998 34.4262H19.3519L20.1643 32.4461H21.424C21.8146 32.4461 22.1312 32.1293 22.1312 31.739C22.1312 31.3484 21.8146 31.0318 21.424 31.0318H20.7444L21.5569 29.0517H33.4971L38.8662 42.1384C39.1352 42.7944 39.0631 43.5088 38.6681 44.0977Z" fill="#3B3B3B"/>
<path d="M36.6824 41.6456C36.5344 41.284 36.1217 41.111 35.7601 41.2588C35.3988 41.4069 35.2255 41.8196 35.3733 42.1812L35.3772 42.19C35.4894 42.4638 35.7532 42.6295 36.0319 42.6295C36.1211 42.6295 36.2117 42.6127 36.2996 42.5768C36.6609 42.4287 36.8341 42.0157 36.686 41.6544L36.6824 41.6456Z" fill="#3B3B3B"/>
<path d="M35.683 39.209L33.1504 33.0362C33.0023 32.6748 32.5893 32.5019 32.2277 32.6502C31.8664 32.7983 31.6938 33.2116 31.8418 33.5729L34.3744 39.7458C34.4866 40.0195 34.7504 40.1847 35.0291 40.1847C35.1183 40.1847 35.2092 40.1679 35.2971 40.1317C35.6584 39.9836 35.8313 39.5704 35.683 39.209Z" fill="#3B3B3B"/>
<path fill-rule="evenodd" clip-rule="evenodd" d="M40.6117 37.834C40.9708 37.3507 41.6537 37.2501 42.137 37.6092L49.4623 43.0526C49.9456 43.4118 50.0462 44.0946 49.6871 44.5779C49.328 45.0612 48.6451 45.1618 48.1619 44.8027L40.8365 39.3593C40.3532 39.0002 40.2526 38.3173 40.6117 37.834Z" fill="#3B3B3B"/>
<path fill-rule="evenodd" clip-rule="evenodd" d="M5.08606 14.6064C5.4518 14.1281 6.13601 14.0369 6.61428 14.4027L19.4291 24.2023C19.9074 24.568 19.9986 25.2522 19.6329 25.7305C19.2672 26.2088 18.583 26.3 18.1047 25.9343L5.28982 16.1346C4.81155 15.7689 4.72032 15.0847 5.08606 14.6064Z" fill="#3B3B3B"/>
</g>
<defs>
<clipPath id="clip0_508_7000">
<rect width="55.3261" height="55.3261" fill="white" transform="translate(0 82.7689)"/>
</clipPath>
<clipPath id="clip1_508_7000">
<rect width="55.3261" height="55.3261" fill="white" transform="translate(0 164.859)"/>
</clipPath>
<clipPath id="clip2_508_7000">
<rect width="37.7971" height="33.9626" fill="white" transform="translate(8.2168 175.812)"/>
</clipPath>
<clipPath id="clip3_508_7000">
<rect width="55.0541" height="55.0541" fill="white" transform="translate(0 0.80835)"/>
</clipPath>
</defs>
</svg>
