<svg width="23" height="24" viewBox="0 0 23 24" fill="none" xmlns="http://www.w3.org/2000/svg">
<path d="M7.333 22.1602C2.39501 20.0967 -0.819352 14.2161 1.22488 8.24353C3.24707 2.33537 9.78865 -0.758625 15.6788 1.42868C21.5857 3.62222 24.5073 10.14 22.2174 15.9828C19.8466 22.0318 13.4909 24.1719 8.72548 22.6628C9.08173 21.7829 9.48711 20.9147 9.78407 20.011C10.0823 19.1033 10.2724 18.1601 10.4961 17.2865C10.6886 17.4485 10.8821 17.6203 11.0847 17.7804C12.1377 18.6126 13.3291 18.6934 14.5772 18.3933C15.9035 18.0744 16.9516 17.3224 17.7278 16.217C19.0405 14.3475 19.5038 12.2323 19.1865 10.0065C18.8584 7.70483 17.4956 6.03923 15.3591 5.20052C12.14 3.93684 9.0883 4.36227 6.4449 6.6783C4.41189 8.45956 3.72846 11.4793 4.70633 13.8302C5.04525 14.645 5.58089 15.2846 6.39125 15.6688C6.80195 15.8636 6.97629 15.7842 7.09513 15.3552C7.10396 15.3233 7.11471 15.2918 7.1264 15.2608C7.35398 14.6606 7.30087 14.1672 6.89582 13.5878C6.15769 12.5318 6.28934 11.3094 6.64546 10.1381C7.32079 7.91702 9.3052 6.43505 11.6325 6.41354C12.2559 6.40776 12.8976 6.46121 13.5013 6.60853C15.2971 7.04664 16.4566 8.43546 16.5728 10.2768C16.666 11.7535 16.4353 13.188 15.7933 14.5363C15.4754 15.2039 15.0559 15.7975 14.4315 16.2177C13.8449 16.6124 13.2035 16.7715 12.5075 16.5896C11.5487 16.339 11.0043 15.4643 11.2469 14.5045C11.4982 13.5096 11.8235 12.5333 12.07 11.5375C12.1743 11.1163 12.229 10.6589 12.1863 10.2299C12.0696 9.06132 10.9656 8.51639 9.93345 9.08689C9.21053 9.48649 8.86244 10.1544 8.70098 10.9272C8.53467 11.7233 8.6152 12.508 8.87426 13.28C8.92631 13.4351 8.93401 13.6268 8.89729 13.7868C8.42838 15.8316 7.92687 17.8692 7.48278 19.9192C7.35318 20.5175 7.37722 21.1492 7.33413 21.7659C7.32596 21.8839 7.333 22.0032 7.333 22.1602Z" fill="#FFC448"/>
</svg>
