<svg width="269" height="263" viewBox="0 0 269 263" fill="none" xmlns="http://www.w3.org/2000/svg">
<g clip-path="url(#clip0_455_7579)">
<path d="M36.0587 135.046C33.9476 137.157 33.2943 139.488 33.187 141.348C35.1327 141.577 38.4067 141.399 41.2749 138.53C43.3931 136.412 44.0454 134.085 44.1496 132.229C42.2044 132 38.9284 132.177 36.0587 135.046V135.046Z" fill="#FFC448"/>
<path d="M36.0587 122.99C33.9476 125.101 33.2943 127.432 33.187 129.291C35.1327 129.519 38.4067 129.342 41.2749 126.473C43.3931 124.355 44.0454 122.028 44.1496 120.172C42.2044 119.943 38.9284 120.12 36.0587 122.99V122.99Z" fill="#FFC448"/>
<path d="M35.3735 109.548C33.9551 110.9 32.3743 113.181 32.3743 116.627C32.3743 120.073 33.9541 122.353 35.3725 123.706C36.7904 122.353 38.3702 120.073 38.3702 116.627C38.3702 113.169 36.7914 110.895 35.3735 109.548Z" fill="#FFC448"/>
<path d="M21.9395 132.26C22.0968 134.062 22.7891 136.252 24.7924 138.255C27.7805 141.243 31.2089 141.311 33.1171 141.042C32.9577 139.237 32.265 137.043 30.2677 135.046C27.2775 132.056 23.8467 131.99 21.9395 132.26V132.26Z" fill="#FFC448"/>
<path d="M21.9395 120.203C22.0968 122.004 22.7891 124.195 24.7924 126.198C27.7805 129.187 31.2089 129.254 33.1171 128.985C32.9577 127.18 32.265 124.986 30.2677 122.99C27.2775 120 23.8467 119.933 21.9395 120.203Z" fill="#FFC448"/>
<path d="M57.7435 105.802C57.4414 105.5 57.0988 105.263 56.7335 105.089C56.3681 105.263 56.0255 105.5 55.7229 105.802C54.3066 107.219 54.3066 109.515 55.7229 110.932C56.0255 111.234 56.3681 111.472 56.7335 111.645C57.0988 111.472 57.4414 111.234 57.7435 110.932C59.1604 109.515 59.1604 107.219 57.7435 105.802Z" fill="#FF5D5D"/>
<path d="M13.7124 151.906C13.4098 151.604 13.0672 151.367 12.7018 151.194C12.3365 151.367 11.9939 151.604 11.6918 151.906C10.2749 153.323 10.2749 155.619 11.6918 157.036C11.9939 157.338 12.3365 157.575 12.7018 157.749C13.0672 157.575 13.4098 157.338 13.7124 157.036C15.1288 155.619 15.1288 153.323 13.7124 151.906V151.906Z" fill="#FF5D5D"/>
<path d="M19.219 132.231C18.8814 133.281 17.4302 138.748 21.9981 143.316C24.6416 145.96 27.575 146.59 29.7732 146.59C30.5869 146.59 31.2984 146.504 31.8585 146.401V154.878C31.8585 155.593 32.4385 156.173 33.154 156.173C33.8695 156.173 34.4494 155.593 34.4494 154.878V146.398C35.0121 146.502 35.7302 146.59 36.553 146.59C38.7507 146.59 41.6851 145.959 44.3281 143.316C48.896 138.748 47.4447 133.281 47.1072 132.231C46.9928 131.84 46.6988 131.521 46.3087 131.379C46.2298 131.35 45.5911 131.124 44.5993 130.979C48.8368 126.47 47.4376 121.203 47.1072 120.174C46.9928 119.784 46.6988 119.464 46.3087 119.322C46.1265 119.255 42.9552 118.137 39.3422 119.394C39.5461 118.557 39.6656 117.637 39.6656 116.627C39.6656 110.167 34.7738 107.328 33.7921 106.824C33.4348 106.628 33.0012 106.611 32.6247 106.786C32.3818 106.899 26.6748 109.63 26.6748 116.627C26.6748 117.639 26.7947 118.561 26.9992 119.399C23.3795 118.133 20.1997 119.255 20.0175 119.322C19.6273 119.464 19.3338 119.784 19.2195 120.174C18.8885 121.203 17.4899 126.47 21.7268 130.979C20.735 131.124 20.0964 131.35 20.0175 131.379C19.6273 131.521 19.3333 131.841 19.219 132.231V132.231ZM42.4963 141.485C39.5067 144.474 36.0419 144.108 34.6604 143.802C34.3593 142.423 33.995 138.942 36.9745 135.962C37.9273 135.009 38.9288 134.398 39.8958 134.017C40.08 133.957 40.2657 133.892 40.4524 133.82C42.2954 133.245 43.9481 133.455 44.8053 133.644C45.1312 135.129 45.4419 138.539 42.4963 141.485V141.485ZM44.8053 121.588C45.1312 123.073 45.4419 126.482 42.4963 129.427C41.5454 130.378 40.5471 130.989 39.5826 131.371C39.3948 131.431 39.2056 131.498 39.0148 131.571C37.1683 132.147 35.5131 131.934 34.6584 131.744C34.5628 131.312 34.4611 130.678 34.457 129.919C34.457 129.908 34.4575 129.898 34.4575 129.886C34.4555 128.365 34.8492 126.353 36.4599 124.463C36.6506 124.273 36.8424 124.069 37.0327 123.85C40.0051 120.926 43.4294 121.283 44.8053 121.588V121.588ZM33.1636 109.451C34.4444 110.27 37.0747 112.461 37.0747 116.627C37.0747 119.103 36.1456 120.879 35.1361 122.08C34.9261 122.29 34.7298 122.502 34.5445 122.715C34.0269 123.219 33.531 123.578 33.1722 123.806C32.7664 123.546 32.1814 123.117 31.5868 122.496C31.5261 122.43 31.4649 122.364 31.4021 122.297C30.3197 121.095 29.2652 119.251 29.2652 116.627C29.2652 112.405 31.9678 110.214 33.1636 109.451V109.451ZM21.5204 121.59C22.9039 121.289 26.3778 120.932 29.3517 123.906C29.3709 123.925 29.3876 123.944 29.4063 123.962C29.5202 124.09 29.634 124.212 29.7479 124.329C31.2984 126.079 31.7837 127.948 31.8585 129.442V130.306C31.8297 130.894 31.7472 131.388 31.6683 131.744C30.8106 131.934 29.1538 132.146 27.3073 131.569C27.1201 131.498 26.9339 131.432 26.7487 131.373C25.7827 130.991 24.7822 130.38 23.8299 129.427C20.8858 126.483 21.1945 123.077 21.5204 121.59ZM21.5204 133.647C22.3913 133.457 24.09 133.246 25.9709 133.857C26.0949 133.903 26.2184 133.947 26.3413 133.988C27.3372 134.366 28.3715 134.983 29.3517 135.962C31.2194 137.831 31.7776 139.883 31.8585 141.499V142.363C31.8297 142.951 31.7472 143.445 31.6683 143.8C30.2838 144.108 26.819 144.474 23.8299 141.485C20.8858 138.541 21.1945 135.133 21.5204 133.647Z" fill="#3B3B3B"/>
<path d="M11.1473 149.549C10.368 149.549 9.61707 149.73 8.94051 150.07C4.84016 144.747 2.59087 138.164 2.59087 131.419C2.59087 114.561 16.3052 100.847 33.1631 100.847C35.3112 100.847 37.4557 101.071 39.5375 101.512C40.2379 101.661 40.925 101.213 41.0733 100.514C41.2221 99.8137 40.7748 99.1265 40.0749 98.9777C37.817 98.499 35.4913 98.2561 33.1631 98.2561C24.305 98.2561 15.9768 101.706 9.71321 107.969C3.4496 114.233 0 122.561 0 131.419C0 138.8 2.48359 146.005 7.00799 151.807C6.49892 152.594 6.22465 153.511 6.22465 154.471C6.22465 155.786 6.73676 157.022 7.66684 157.952C8.59641 158.882 9.83264 159.394 11.1473 159.394C12.4625 159.394 13.6987 158.882 14.6283 157.952C15.5583 157.022 16.0699 155.786 16.0699 154.471C16.0699 153.157 15.5578 151.92 14.6283 150.99C13.6987 150.061 12.4625 149.549 11.1473 149.549V149.549ZM12.7964 156.12C11.8871 157.029 10.408 157.029 9.49866 156.12C9.05841 155.68 8.81552 155.094 8.81552 154.471C8.81552 153.848 9.05841 153.263 9.49866 152.822C9.95307 152.368 10.5502 152.141 11.1473 152.141C11.7444 152.141 12.3415 152.368 12.7964 152.822C13.2367 153.262 13.4791 153.848 13.4791 154.471C13.4791 155.094 13.2367 155.68 12.7964 156.12V156.12Z" fill="#3B3B3B"/>
<path d="M59.3183 111.031C59.8273 110.244 60.1016 109.327 60.1016 108.367C60.1016 107.052 59.5895 105.816 58.6594 104.886C57.7298 103.957 56.4936 103.444 55.1789 103.444C53.8638 103.444 52.6275 103.957 51.698 104.886C50.7684 105.816 50.2563 107.052 50.2563 108.367C50.2563 109.682 50.7684 110.918 51.698 111.848C52.6275 112.778 53.8638 113.29 55.1789 113.29C55.9582 113.29 56.7092 113.109 57.3862 112.769C61.4861 118.091 63.7354 124.675 63.7354 131.419C63.7354 148.277 50.021 161.991 33.1632 161.991C31.3496 161.991 29.5329 161.832 27.7628 161.516C27.0589 161.391 26.3854 161.86 26.2604 162.564C26.1344 163.269 26.604 163.941 27.3084 164.067C29.2278 164.409 31.1978 164.582 33.1632 164.582C42.0212 164.582 50.3494 161.133 56.613 154.869C62.8766 148.605 66.3262 140.277 66.3262 131.419C66.3262 124.038 63.8427 116.833 59.3183 111.031V111.031ZM53.5303 110.016C52.621 109.107 52.621 107.628 53.5303 106.718C53.9705 106.278 54.556 106.035 55.1789 106.035C55.8019 106.035 56.3873 106.278 56.8276 106.718C57.2683 107.159 57.5107 107.744 57.5107 108.367C57.5107 108.99 57.2683 109.575 56.8276 110.016C56.3873 110.456 55.8019 110.699 55.1789 110.699C54.556 110.699 53.9705 110.456 53.5303 110.016Z" fill="#3B3B3B"/>
<path d="M21.7805 159.802L21.2917 161.002L21.777 159.801C21.1136 159.533 20.3586 159.853 20.0904 160.516C19.8222 161.18 20.1425 161.935 20.8059 162.203L20.8459 162.219C20.9987 162.277 21.1561 162.305 21.3109 162.305C21.8327 162.305 22.3255 161.989 22.5229 161.474C22.7789 160.806 22.449 160.058 21.7805 159.802V159.802Z" fill="#3B3B3B"/>
<path d="M44.5912 103.054L44.6059 103.06C44.7647 103.125 44.9292 103.155 45.0906 103.155C45.6032 103.155 46.0885 102.849 46.2924 102.345C46.5601 101.681 46.2398 100.926 45.5764 100.658L45.5531 100.649C44.8892 100.383 44.1352 100.706 43.8696 101.371C43.6034 102.035 43.9268 102.789 44.5912 103.054Z" fill="#3B3B3B"/>
</g>
<g clip-path="url(#clip1_455_7579)">
<path d="M57.7435 204.213C57.4414 203.911 57.0988 203.674 56.7335 203.5C56.3681 203.674 56.0255 203.911 55.7229 204.213C54.3066 205.63 54.3066 207.926 55.7229 209.343C56.0255 209.645 56.3681 209.882 56.7335 210.055C57.0988 209.882 57.4414 209.645 57.7435 209.343C59.1604 207.926 59.1604 205.63 57.7435 204.213Z" fill="#FF5D5D"/>
<path d="M13.7124 250.317C13.4098 250.015 13.0672 249.778 12.7018 249.605C12.3365 249.778 11.9939 250.015 11.6918 250.317C10.2749 251.734 10.2749 254.03 11.6918 255.447C11.9939 255.749 12.3365 255.986 12.7018 256.16C13.0672 255.986 13.4098 255.749 13.7124 255.447C15.1288 254.03 15.1288 251.734 13.7124 250.317V250.317Z" fill="#FF5D5D"/>
<path d="M11.1473 247.96C10.368 247.96 9.61707 248.141 8.94051 248.481C4.84016 243.158 2.59086 236.574 2.59086 229.83C2.59086 212.972 16.3052 199.258 33.1631 199.258C35.3112 199.258 37.4557 199.482 39.5375 199.923C40.2379 200.072 40.925 199.624 41.0733 198.925C41.2221 198.225 40.7747 197.537 40.0749 197.389C37.817 196.91 35.4913 196.667 33.1631 196.667C24.305 196.667 15.9768 200.117 9.71321 206.38C3.4496 212.644 0 220.972 0 229.83C0 237.211 2.48359 244.416 7.00799 250.218C6.49892 251.005 6.22465 251.922 6.22465 252.882C6.22465 254.197 6.73675 255.433 7.66683 256.363C8.59641 257.293 9.83264 257.805 11.1473 257.805C12.4625 257.805 13.6987 257.293 14.6283 256.363C15.5583 255.433 16.0699 254.197 16.0699 252.882C16.0699 251.568 15.5578 250.331 14.6283 249.401C13.6987 248.472 12.4625 247.96 11.1473 247.96V247.96ZM12.7964 254.531C11.8871 255.44 10.408 255.44 9.49866 254.531C9.05841 254.091 8.81552 253.505 8.81552 252.882C8.81552 252.259 9.05841 251.674 9.49866 251.233C9.95307 250.779 10.5502 250.551 11.1473 250.551C11.7444 250.551 12.3415 250.779 12.7964 251.233C13.2367 251.673 13.4791 252.259 13.4791 252.882C13.4791 253.505 13.2367 254.091 12.7964 254.531V254.531Z" fill="#3B3B3B"/>
<path d="M59.3183 209.442C59.8273 208.655 60.1016 207.738 60.1016 206.778C60.1016 205.463 59.5895 204.227 58.6594 203.297C57.7298 202.367 56.4936 201.855 55.1789 201.855C53.8638 201.855 52.6275 202.367 51.698 203.297C50.7684 204.227 50.2563 205.463 50.2563 206.778C50.2563 208.093 50.7684 209.329 51.698 210.259C52.6275 211.189 53.8638 211.701 55.1789 211.701C55.9582 211.701 56.7092 211.519 57.3862 211.179C61.4861 216.502 63.7354 223.086 63.7354 229.83C63.7354 246.688 50.021 260.402 33.1632 260.402C31.3496 260.402 29.5329 260.242 27.7628 259.927C27.0589 259.802 26.3854 260.271 26.2604 260.975C26.1344 261.68 26.604 262.352 27.3084 262.478C29.2278 262.82 31.1978 262.993 33.1632 262.993C42.0212 262.993 50.3494 259.544 56.613 253.28C62.8766 247.016 66.3262 238.688 66.3262 229.83C66.3262 222.449 63.8427 215.244 59.3183 209.442ZM53.5303 208.427C52.621 207.518 52.621 206.039 53.5303 205.129C53.9705 204.689 54.556 204.446 55.1789 204.446C55.8019 204.446 56.3873 204.689 56.8276 205.129C57.2683 205.57 57.5107 206.155 57.5107 206.778C57.5107 207.401 57.2683 207.986 56.8276 208.427C56.3873 208.867 55.8019 209.11 55.1789 209.11C54.556 209.11 53.9705 208.867 53.5303 208.427Z" fill="#3B3B3B"/>
<path d="M21.7805 258.213L21.2917 259.413L21.777 258.212C21.1136 257.944 20.3586 258.264 20.0904 258.927C19.8222 259.591 20.1425 260.346 20.8059 260.614L20.8459 260.63C20.9987 260.688 21.1561 260.716 21.3109 260.716C21.8327 260.716 22.3255 260.4 22.5229 259.885C22.7789 259.217 22.449 258.469 21.7805 258.213V258.213Z" fill="#3B3B3B"/>
<path d="M44.5912 201.465L44.6059 201.471C44.7647 201.536 44.9292 201.566 45.0906 201.566C45.6032 201.566 46.0885 201.26 46.2924 200.756C46.5601 200.092 46.2398 199.337 45.5764 199.069L45.5531 199.06C44.8892 198.794 44.1352 199.117 43.8696 199.782C43.6034 200.446 43.9268 201.2 44.5912 201.465Z" fill="#3B3B3B"/>
<g clip-path="url(#clip2_455_7579)">
<path d="M19.7412 220.246C15.276 220.246 11.656 223.905 11.656 228.419V233.123L16.6912 229.438V225.492C16.6912 224.346 17.6103 223.417 18.7441 223.417C19.8779 223.417 20.797 224.346 20.797 225.492V226.883C21.3175 227.2 21.6873 227.742 21.7742 228.376L26.8293 227.95V225.248C26.8293 224.964 26.8151 224.684 26.787 224.408C25.4002 221.923 22.7646 220.246 19.7412 220.246V220.246Z" fill="#FFB9B7"/>
<path d="M47.0639 213.991C46.3798 213.867 45.7125 214.025 45.1689 214.381C45.1304 214.337 45.0903 214.294 45.0492 214.253C44.4492 214.681 44.0086 215.347 43.8715 216.146C43.8608 216.209 43.8554 216.272 43.8488 216.335C43.0548 216.607 42.4266 217.309 42.2709 218.219C42.1297 219.043 42.4096 219.844 42.9512 220.386C43.7256 219.434 44.8989 218.826 46.2137 218.826C46.9922 218.826 47.7208 219.04 48.3471 219.412C48.6285 219.307 48.9241 219.231 49.2298 219.189V217.186C49.4866 215.686 48.5167 214.256 47.0639 213.991V213.991Z" fill="#FF5D5D"/>
<path d="M50.4379 223.096C50.4379 223.038 50.436 222.98 50.4335 222.922C48.4732 223.292 46.9888 225.03 46.9888 227.118V232.481H25.7961V236.266C25.7961 239.137 26.7341 241.786 28.3171 243.919C29.8779 244.617 31.6045 245.005 33.4212 245.005H36.3602C43.3324 245.005 48.9845 239.292 48.9845 232.244V225.132H50.4379V223.096Z" fill="#FFC448"/>
<path d="M31.7698 232.178H26.4067C26.4067 237.083 30.3404 241.059 35.1924 241.059H35.6674C36.3897 241.059 37.071 240.881 37.6723 240.569C34.2364 239.362 31.7698 236.062 31.7698 232.178V232.178Z" fill="white"/>
<path d="M40.0599 236.618C40.0599 234.166 38.0933 232.177 35.6671 232.177H31.7698C31.7698 236.062 34.2364 239.362 37.6723 240.569C39.0897 239.832 40.0599 238.34 40.0599 236.618V236.618Z" fill="#FF5D5D"/>
<path d="M36.3567 229.037C36.5071 228.884 36.5936 228.674 36.5936 228.459C36.5936 228.244 36.5071 228.034 36.3567 227.882C36.2064 227.729 35.9986 227.642 35.7851 227.642C35.5725 227.642 35.3638 227.729 35.2134 227.882C35.0631 228.033 34.9766 228.244 34.9766 228.459C34.9766 228.674 35.0631 228.885 35.2134 229.037C35.3638 229.189 35.5725 229.276 35.7851 229.276C35.9986 229.276 36.2064 229.189 36.3567 229.037Z" fill="#3B3B3B"/>
<path d="M49.5845 219.322L50.0188 217.364C50.022 217.351 50.0245 217.338 50.0267 217.325C50.3583 215.387 49.0937 213.531 47.2073 213.187C46.5637 213.069 45.9077 213.142 45.3086 213.389C44.8427 213.012 44.297 212.76 43.7019 212.652C42.7538 212.479 41.7953 212.693 41.0029 213.253C40.2597 213.779 39.744 214.549 39.5324 215.44C38.6696 215.903 38.0537 216.753 37.8819 217.756C37.6254 219.255 38.4305 220.75 39.7983 221.324L41.2574 222.042C41.2672 222.047 41.2773 222.05 41.2874 222.055C41.218 222.391 41.181 222.739 41.181 223.096V227.641H38.8761C38.4295 227.641 38.0676 228.008 38.0676 228.459C38.0676 228.91 38.4295 229.276 38.8761 229.276H41.9892C42.4358 229.276 42.7977 228.91 42.7977 228.459V223.096C42.7977 221.192 44.3301 219.644 46.2137 219.644C48.097 219.644 49.6294 221.192 49.6294 223.096V224.315H48.9845C48.5379 224.315 48.1759 224.681 48.1759 225.132V232.244C48.1759 238.83 42.8754 244.188 36.3602 244.188H33.4211C26.9059 244.188 21.6054 238.83 21.6054 232.244V229.276H32.5138C32.9604 229.276 33.3223 228.91 33.3223 228.459C33.3223 228.008 32.9604 227.641 32.5138 227.641H27.6377V225.248C27.6377 220.29 23.6479 216.257 18.744 216.257C13.8402 216.257 9.85034 220.29 9.85034 225.248V230.216C9.85034 230.667 10.2123 231.033 10.6589 231.033C11.1054 231.033 11.4674 230.667 11.4674 230.216V225.248C11.4674 221.192 14.7318 217.892 18.744 217.892C22.7563 217.892 26.0207 221.192 26.0207 225.248V227.641H24.6585V225.458C24.6585 222.161 22.0053 219.479 18.744 219.479C15.4828 219.479 12.8295 222.161 12.8295 225.458V231.142C12.8295 231.594 13.1915 231.96 13.6381 231.96C14.0846 231.96 14.4466 231.594 14.4466 231.142V225.458C14.4466 223.063 16.3744 221.114 18.744 221.114C21.1137 221.114 23.0415 223.063 23.0415 225.458V227.641H21.6054V225.492C21.6054 223.897 20.3219 222.6 18.744 222.6C17.1662 222.6 15.8826 223.897 15.8826 225.492V229.438C15.8826 229.889 16.2446 230.255 16.6912 230.255C17.1377 230.255 17.4997 229.889 17.4997 229.438V225.492C17.4997 224.799 18.0577 224.234 18.744 224.234C19.4303 224.234 19.9884 224.799 19.9884 225.492V232.244C19.9884 238.891 24.7375 244.437 30.9855 245.598V249.695C30.9855 250.147 31.3477 250.512 31.794 250.512H33.2332C33.6798 250.512 34.0417 250.147 34.0417 249.695C34.0417 249.244 33.6798 248.878 33.2332 248.878H32.6025V245.797C32.8735 245.813 33.1464 245.823 33.4211 245.823H35.7434V249.695C35.7434 250.147 36.1054 250.512 36.5519 250.512H37.9908C38.4374 250.512 38.7994 250.147 38.7994 249.695C38.7994 249.244 38.4374 248.878 37.9908 248.878H37.3605V245.785C44.302 245.266 49.793 239.391 49.793 232.244V225.95H50.4379C50.8845 225.95 51.2464 225.583 51.2464 225.132V223.096C51.2464 221.601 50.6043 220.254 49.5845 219.322ZM41.8727 220.527L40.483 219.843C40.466 219.834 40.4489 219.827 40.4319 219.82C39.7484 219.541 39.3461 218.79 39.4752 218.035C39.5753 217.45 39.9746 216.972 40.5165 216.786C40.8143 216.683 41.0266 216.416 41.0604 216.099L41.0648 216.057C41.0679 216.026 41.0708 215.994 41.0762 215.963C41.1725 215.401 41.4757 214.914 41.9298 214.593C42.3669 214.283 42.8944 214.165 43.4149 214.26C43.8599 214.341 44.2565 214.57 44.5619 214.921C44.8269 215.225 45.2726 215.288 45.6089 215.067C46.0018 214.809 46.468 214.713 46.9205 214.796C47.9296 214.979 48.6064 215.978 48.4365 217.028L48.1333 218.394C47.5415 218.147 46.8934 218.009 46.2137 218.009C44.3655 218.009 42.7478 219.022 41.8727 220.527Z" fill="#3B3B3B"/>
<path d="M10.6589 233.036C10.4463 233.036 10.2375 233.123 10.0872 233.276C9.93688 233.428 9.85034 233.638 9.85034 233.854C9.85034 234.068 9.93688 234.279 10.0872 234.431C10.2375 234.583 10.4463 234.671 10.6589 234.671C10.8714 234.671 11.0802 234.583 11.2305 234.431C11.3808 234.279 11.4674 234.068 11.4674 233.854C11.4674 233.638 11.3808 233.428 11.2305 233.276C11.0802 233.123 10.8714 233.036 10.6589 233.036Z" fill="#3B3B3B"/>
<path d="M26.4067 231.36C25.9601 231.36 25.5981 231.726 25.5981 232.178C25.5981 237.525 29.9019 241.876 35.1923 241.876H35.667C38.5351 241.876 40.8684 239.518 40.8684 236.618C40.8684 233.719 38.5351 231.36 35.667 231.36H26.4067ZM39.2513 236.618C39.2513 238.616 37.6435 240.241 35.667 240.241H35.1923C32.1986 240.241 29.5855 238.566 28.2211 236.094C28.8982 236.504 29.6897 236.741 30.5348 236.741H32.5138C32.9604 236.741 33.3223 236.375 33.3223 235.924C33.3223 235.472 32.9604 235.106 32.5138 235.106H30.5348C29.2182 235.106 28.1042 234.213 27.7533 232.995H35.667C37.6435 232.995 39.2513 234.62 39.2513 236.618V236.618Z" fill="#3B3B3B"/>
<path d="M46.4561 223.426C46.6064 223.274 46.693 223.063 46.693 222.848C46.693 222.632 46.6064 222.422 46.4561 222.27C46.3058 222.118 46.097 222.031 45.8844 222.031C45.6719 222.031 45.4631 222.118 45.3128 222.27C45.1625 222.422 45.0759 222.632 45.0759 222.848C45.0759 223.063 45.1625 223.274 45.3128 223.426C45.4631 223.578 45.6719 223.666 45.8844 223.666C46.097 223.666 46.3058 223.578 46.4561 223.426Z" fill="#3B3B3B"/>
</g>
</g>
<path d="M117.219 126.14H119.156V135.183H117.219V131.333H111.937V135.183H110V126.14H111.937V129.938H117.219V126.14Z" fill="black"/>
<path d="M120.855 132.884C120.855 132.177 121.144 131.643 121.72 131.282C122.306 130.92 123.025 130.739 123.877 130.739C125.091 130.739 126.374 131.187 127.726 132.083V131.127C127.726 130.481 127.549 130.016 127.196 129.731C126.843 129.447 126.253 129.305 125.427 129.305H121.656L121.643 127.91H126.111C127.342 127.91 128.242 128.181 128.81 128.724C129.379 129.258 129.663 130.119 129.663 131.307V133.749H130.941V135.196H128.668V135.183L128.423 135.196C128.233 135.196 128.087 135.119 127.984 134.964C127.88 134.8 127.829 134.628 127.829 134.447C127.829 134.257 127.872 134.008 127.958 133.698C128.053 133.388 128.134 133.181 128.203 133.077L127.816 132.871C127.609 133.336 127.347 133.736 127.028 134.072C126.718 134.4 126.382 134.649 126.021 134.822C125.668 134.994 125.323 135.119 124.988 135.196C124.661 135.274 124.329 135.313 123.993 135.313C123.15 135.313 122.413 135.093 121.785 134.654C121.165 134.214 120.855 133.624 120.855 132.884ZM122.792 132.91C122.792 133.314 122.982 133.633 123.36 133.866C123.748 134.089 124.204 134.201 124.729 134.201C125.074 134.201 125.401 134.15 125.711 134.046C126.021 133.934 126.271 133.805 126.46 133.659C126.649 133.504 126.817 133.353 126.964 133.207C127.11 133.06 127.213 132.935 127.274 132.832L127.364 132.664C127.252 132.595 127.101 132.509 126.912 132.406C126.723 132.294 126.382 132.147 125.892 131.966C125.401 131.785 124.962 131.695 124.574 131.695C124.333 131.695 124.092 131.721 123.851 131.773C123.61 131.824 123.373 131.949 123.141 132.147C122.908 132.337 122.792 132.591 122.792 132.91Z" fill="black"/>
<path d="M139.167 127.91V129.434H136.171V135.183H134.402V129.434H131.328V127.91H139.167Z" fill="black"/>
<path d="M147.104 127.91H149.054L145.954 135.287L147.207 138.413H142.403V136.979H144.753L144.069 135.17C143.699 135.153 143.402 135.076 143.178 134.938C142.954 134.791 142.773 134.555 142.636 134.227L139.652 127.91H141.693L144.237 133.517L143.966 134.253H144.405L147.104 127.91Z" fill="black"/>
<path d="M155.946 135.313C155.059 135.313 154.271 135.093 153.582 134.654C152.902 134.206 152.39 133.637 152.045 132.948H151.645L152.252 134.253V138.413H150.315V127.91H152.252V128.749L151.671 129.615H152.11C152.429 129.107 152.954 128.676 153.686 128.323C154.426 127.97 155.197 127.793 155.997 127.793C157.082 127.793 157.999 128.121 158.748 128.775C159.497 129.43 159.871 130.351 159.871 131.54C159.871 132.737 159.488 133.667 158.722 134.331C157.956 134.985 157.03 135.313 155.946 135.313ZM155.261 128.917C154.348 128.917 153.621 129.141 153.079 129.589C152.536 130.028 152.265 130.614 152.265 131.346C152.265 132.078 152.536 132.703 153.079 133.22C153.621 133.728 154.366 133.982 155.313 133.982C156.191 133.982 156.845 133.754 157.276 133.297C157.715 132.841 157.934 132.216 157.934 131.424C157.934 130.623 157.711 130.007 157.263 129.576C156.815 129.137 156.148 128.917 155.261 128.917Z" fill="black"/>
<path d="M161.036 132.884C161.036 132.177 161.324 131.643 161.901 131.282C162.486 130.92 163.205 130.739 164.058 130.739C165.271 130.739 166.554 131.187 167.906 132.083V131.127C167.906 130.481 167.729 130.016 167.376 129.731C167.023 129.447 166.434 129.305 165.607 129.305H161.836L161.823 127.91H166.292C167.523 127.91 168.423 128.181 168.991 128.724C169.559 129.258 169.843 130.119 169.843 131.307V133.749H171.122V135.196H168.849V135.183L168.603 135.196C168.414 135.196 168.268 135.119 168.164 134.964C168.061 134.8 168.009 134.628 168.009 134.447C168.009 134.257 168.052 134.008 168.138 133.698C168.233 133.388 168.315 133.181 168.384 133.077L167.996 132.871C167.79 133.336 167.527 133.736 167.209 134.072C166.899 134.4 166.563 134.649 166.201 134.822C165.848 134.994 165.504 135.119 165.168 135.196C164.841 135.274 164.51 135.313 164.174 135.313C163.33 135.313 162.594 135.093 161.965 134.654C161.346 134.214 161.036 133.624 161.036 132.884ZM162.973 132.91C162.973 133.314 163.162 133.633 163.541 133.866C163.928 134.089 164.385 134.201 164.91 134.201C165.254 134.201 165.581 134.15 165.891 134.046C166.201 133.934 166.451 133.805 166.64 133.659C166.83 133.504 166.998 133.353 167.144 133.207C167.29 133.06 167.394 132.935 167.454 132.832L167.544 132.664C167.432 132.595 167.282 132.509 167.092 132.406C166.903 132.294 166.563 132.147 166.072 131.966C165.581 131.785 165.142 131.695 164.755 131.695C164.514 131.695 164.273 131.721 164.032 131.773C163.791 131.824 163.554 131.949 163.321 132.147C163.089 132.337 162.973 132.591 162.973 132.91Z" fill="black"/>
<path d="M180.975 135.183H179.038V129.344H176.158C176.098 129.86 176.037 130.304 175.977 130.674C175.926 131.036 175.852 131.445 175.758 131.902C175.663 132.358 175.564 132.742 175.461 133.052C175.357 133.362 175.228 133.676 175.073 133.995C174.918 134.313 174.746 134.568 174.557 134.757C174.367 134.938 174.143 135.08 173.885 135.183C173.635 135.295 173.356 135.338 173.046 135.313L172.064 135.261L172.09 133.762L172.684 133.788C172.882 133.797 173.059 133.754 173.214 133.659C173.368 133.564 173.506 133.383 173.627 133.116C173.747 132.849 173.851 132.587 173.937 132.328C174.023 132.061 174.109 131.661 174.195 131.127C174.29 130.593 174.367 130.123 174.427 129.718C174.488 129.314 174.565 128.728 174.66 127.961V127.91H180.949L180.975 135.183Z" fill="black"/>
<path d="M185.046 127.91V130.829H187.849C190.311 130.829 191.542 131.57 191.542 133.052C191.542 133.706 191.254 134.227 190.677 134.615C190.1 134.994 189.33 135.183 188.365 135.183H183.109V127.91H185.046ZM188.094 133.904C188.55 133.904 188.921 133.822 189.205 133.659C189.489 133.495 189.631 133.263 189.631 132.961C189.631 132.324 189.028 132.005 187.823 132.005H185.046V133.904H188.094Z" fill="black"/>
<path d="M199.876 127.91H201.814V135.183H199.876V132.264H194.892V135.183H192.954V127.91H194.892V130.868H199.876V127.91Z" fill="black"/>
<path d="M205.235 126.488C205.011 126.273 204.9 125.993 204.9 125.649C204.9 125.304 205.011 125.029 205.235 124.822C205.459 124.615 205.756 124.512 206.126 124.512C206.497 124.512 206.794 124.615 207.017 124.822C207.241 125.029 207.353 125.304 207.353 125.649C207.353 125.993 207.241 126.273 207.017 126.488C206.794 126.695 206.497 126.799 206.126 126.799C205.756 126.799 205.459 126.695 205.235 126.488ZM203.053 135.183V133.736H205.261V129.305H203.053V127.91H205.842C206.746 127.91 207.198 128.362 207.198 129.266V133.736H209.381V135.183H203.053Z" fill="black"/>
<path d="M221.417 131.785C221.632 131.829 221.744 131.979 221.753 132.238C221.761 132.487 221.705 132.845 221.585 133.31C221.542 133.491 221.512 133.633 221.495 133.736H222.863V135.209H219.015L220.294 132.483H215.799V135.183H214.03V127.923H215.799V130.946H216.368L220.487 127.91H222.799L219.105 130.687C218.727 131.006 217.952 131.282 216.781 131.514V131.928C217.676 131.704 218.167 131.583 218.253 131.566C218.873 131.471 219.415 131.424 219.88 131.424C220.672 131.424 221.185 131.544 221.417 131.785Z" fill="black"/>
<path d="M228.344 127.768C228.903 127.768 229.446 127.849 229.971 128.013C230.505 128.168 230.991 128.396 231.43 128.698C231.878 128.999 232.235 129.404 232.502 129.912C232.769 130.412 232.902 130.972 232.902 131.592C232.902 132.746 232.45 133.667 231.546 134.356C230.642 135.046 229.553 135.39 228.279 135.39C226.996 135.39 225.89 135.041 224.96 134.344C224.039 133.646 223.578 132.729 223.578 131.592C223.578 130.799 223.819 130.106 224.301 129.512C224.792 128.909 225.39 128.469 226.096 128.194C226.811 127.91 227.56 127.768 228.344 127.768ZM225.502 131.566C225.502 132.358 225.761 133.021 226.277 133.555C226.794 134.089 227.452 134.356 228.253 134.356C229.045 134.356 229.695 134.094 230.203 133.568C230.711 133.034 230.965 132.367 230.965 131.566C230.965 130.799 230.724 130.162 230.242 129.654C229.768 129.137 229.118 128.879 228.292 128.879C227.422 128.879 226.738 129.154 226.239 129.705C225.748 130.248 225.502 130.868 225.502 131.566Z" fill="black"/>
<path d="M240.153 135.313C239.266 135.313 238.478 135.093 237.79 134.654C237.11 134.206 236.597 133.637 236.253 132.948H235.853L236.46 134.253V138.413H234.522V127.91H236.46V128.749L235.878 129.615H236.317C236.636 129.107 237.161 128.676 237.893 128.323C238.633 127.97 239.404 127.793 240.205 127.793C241.289 127.793 242.206 128.121 242.955 128.775C243.704 129.43 244.079 130.351 244.079 131.54C244.079 132.737 243.696 133.667 242.93 134.331C242.163 134.985 241.238 135.313 240.153 135.313ZM239.469 128.917C238.556 128.917 237.828 129.141 237.286 129.589C236.744 130.028 236.472 130.614 236.472 131.346C236.472 132.078 236.744 132.703 237.286 133.22C237.828 133.728 238.573 133.982 239.52 133.982C240.398 133.982 241.053 133.754 241.483 133.297C241.922 132.841 242.142 132.216 242.142 131.424C242.142 130.623 241.918 130.007 241.47 129.576C241.023 129.137 240.355 128.917 239.469 128.917Z" fill="black"/>
<path d="M254.993 131.656L253.082 135.183H250.047L248.123 131.643C248.037 131.342 247.959 130.997 247.89 130.61C247.822 130.214 247.757 129.774 247.697 129.292C247.636 128.801 247.589 128.448 247.555 128.233L247.129 128.284C247.163 128.474 247.228 128.818 247.322 129.318C247.417 129.817 247.494 130.261 247.555 130.649C247.615 131.036 247.649 131.385 247.658 131.695L247.671 135.183H245.734V127.91H248.73L251.442 134.679H251.687L254.399 127.91H257.395V135.183H255.458V131.708C255.467 131.398 255.501 131.049 255.562 130.661C255.622 130.265 255.699 129.826 255.794 129.344C255.897 128.853 255.966 128.504 256.001 128.297L255.574 128.258C255.54 128.465 255.488 128.814 255.419 129.305C255.359 129.787 255.295 130.227 255.226 130.623C255.157 131.01 255.079 131.355 254.993 131.656Z" fill="black"/>
<path d="M258.914 132.884C258.914 132.177 259.202 131.643 259.779 131.282C260.365 130.92 261.084 130.739 261.936 130.739C263.15 130.739 264.433 131.187 265.784 132.083V131.127C265.784 130.481 265.608 130.016 265.255 129.731C264.902 129.447 264.312 129.305 263.486 129.305H259.715L259.702 127.91H264.17C265.401 127.91 266.301 128.181 266.869 128.724C267.437 129.258 267.721 130.119 267.721 131.307V133.749H269V135.196H266.727V135.183L266.482 135.196C266.292 135.196 266.146 135.119 266.043 134.964C265.939 134.8 265.888 134.628 265.888 134.447C265.888 134.257 265.931 134.008 266.017 133.698C266.112 133.388 266.193 133.181 266.262 133.077L265.875 132.871C265.668 133.336 265.406 133.736 265.087 134.072C264.777 134.4 264.441 134.649 264.08 134.822C263.727 134.994 263.382 135.119 263.047 135.196C262.719 135.274 262.388 135.313 262.052 135.313C261.208 135.313 260.472 135.093 259.844 134.654C259.224 134.214 258.914 133.624 258.914 132.884ZM260.851 132.91C260.851 133.314 261.041 133.633 261.419 133.866C261.807 134.089 262.263 134.201 262.788 134.201C263.133 134.201 263.46 134.15 263.77 134.046C264.08 133.934 264.329 133.805 264.519 133.659C264.708 133.504 264.876 133.353 265.022 133.207C265.169 133.06 265.272 132.935 265.332 132.832L265.423 132.664C265.311 132.595 265.16 132.509 264.971 132.406C264.781 132.294 264.441 132.147 263.951 131.966C263.46 131.785 263.021 131.695 262.633 131.695C262.392 131.695 262.151 131.721 261.91 131.773C261.669 131.824 261.432 131.949 261.2 132.147C260.967 132.337 260.851 132.591 260.851 132.91Z" fill="black"/>
<path d="M120.415 235V233.695H114.359V235H112.421L112.447 232.261H112.925C113.579 232.261 114.169 231.602 114.694 230.284C115.228 228.967 115.659 227.106 115.986 224.703V224.651H121.087L121.1 232.261H122.34L122.352 235H120.415ZM116.593 232.261H119.163V226.085H117.419C116.92 229.608 115.865 231.792 114.255 232.636L114.436 232.997C114.453 232.989 114.531 232.946 114.669 232.868C114.806 232.791 114.892 232.748 114.927 232.739C114.961 232.722 115.039 232.683 115.159 232.623C115.288 232.554 115.379 232.511 115.43 232.494C115.482 232.476 115.564 232.446 115.676 232.403C115.796 232.36 115.895 232.334 115.973 232.326C116.059 232.308 116.154 232.296 116.257 232.287C116.369 232.27 116.481 232.261 116.593 232.261Z" fill="black"/>
<path d="M127.955 226.279C128.515 226.279 129.057 226.361 129.583 226.525C130.116 226.68 130.603 226.908 131.042 227.21C131.49 227.511 131.847 227.916 132.114 228.424C132.381 228.924 132.514 229.483 132.514 230.103C132.514 231.258 132.062 232.179 131.158 232.868C130.254 233.557 129.165 233.902 127.891 233.902C126.608 233.902 125.502 233.553 124.572 232.855C123.651 232.158 123.19 231.24 123.19 230.103C123.19 229.311 123.431 228.618 123.913 228.023C124.404 227.421 125.002 226.981 125.708 226.706C126.423 226.421 127.172 226.279 127.955 226.279ZM125.114 230.078C125.114 230.87 125.373 231.533 125.889 232.067C126.406 232.601 127.064 232.868 127.865 232.868C128.657 232.868 129.307 232.606 129.815 232.08C130.323 231.546 130.577 230.879 130.577 230.078C130.577 229.311 130.336 228.674 129.854 228.166C129.38 227.649 128.73 227.39 127.904 227.39C127.034 227.39 126.35 227.666 125.85 228.217C125.36 228.76 125.114 229.38 125.114 230.078Z" fill="black"/>
<path d="M143.381 230.168L141.47 233.695H138.435L136.511 230.155C136.424 229.854 136.347 229.509 136.278 229.122C136.209 228.725 136.145 228.286 136.084 227.804C136.024 227.313 135.977 226.96 135.942 226.744L135.516 226.796C135.551 226.986 135.615 227.33 135.71 227.83C135.805 228.329 135.882 228.773 135.942 229.16C136.003 229.548 136.037 229.897 136.046 230.207L136.059 233.695H134.121V226.421H137.117L139.829 233.191H140.075L142.787 226.421H145.783V233.695H143.846V230.22C143.854 229.91 143.889 229.561 143.949 229.173C144.009 228.777 144.087 228.338 144.182 227.855C144.285 227.365 144.354 227.016 144.388 226.809L143.962 226.77C143.928 226.977 143.876 227.326 143.807 227.817C143.747 228.299 143.682 228.738 143.613 229.135C143.544 229.522 143.467 229.867 143.381 230.168Z" fill="black"/>
<path d="M147.302 231.395C147.302 230.689 147.59 230.155 148.167 229.793C148.752 229.432 149.471 229.251 150.324 229.251C151.537 229.251 152.82 229.699 154.172 230.594V229.638C154.172 228.992 153.995 228.527 153.642 228.243C153.289 227.959 152.7 227.817 151.873 227.817H148.102L148.089 226.421H152.558C153.789 226.421 154.689 226.693 155.257 227.235C155.825 227.769 156.109 228.631 156.109 229.819V232.261H157.388V233.708H155.115V233.695L154.869 233.708C154.68 233.708 154.534 233.631 154.43 233.475C154.327 233.312 154.275 233.14 154.275 232.959C154.275 232.769 154.318 232.519 154.404 232.209C154.499 231.899 154.581 231.693 154.65 231.589L154.262 231.383C154.056 231.848 153.793 232.248 153.475 232.584C153.165 232.911 152.829 233.161 152.467 233.333C152.114 233.506 151.77 233.631 151.434 233.708C151.107 233.786 150.776 233.824 150.44 233.824C149.596 233.824 148.86 233.605 148.231 233.165C147.612 232.726 147.302 232.136 147.302 231.395ZM149.239 231.421C149.239 231.826 149.428 232.145 149.807 232.377C150.194 232.601 150.651 232.713 151.176 232.713C151.52 232.713 151.847 232.662 152.157 232.558C152.467 232.446 152.717 232.317 152.906 232.171C153.096 232.016 153.264 231.865 153.41 231.718C153.556 231.572 153.66 231.447 153.72 231.344L153.81 231.176C153.698 231.107 153.548 231.021 153.358 230.917C153.169 230.805 152.829 230.659 152.338 230.478C151.847 230.297 151.408 230.207 151.021 230.207C150.78 230.207 150.539 230.233 150.298 230.284C150.057 230.336 149.82 230.461 149.587 230.659C149.355 230.849 149.239 231.103 149.239 231.421Z" fill="black"/>
<path d="M158.563 226.421H160.5V232.261H163.56V226.421H165.498V232.261H168.558V226.421H170.495V233.695H158.563V226.421Z" fill="black"/>
<path d="M179.433 226.421H181.37V233.695H179.433V230.775H174.448V233.695H172.511V226.421H174.448V229.38H179.433V226.421Z" fill="black"/>
<path d="M190.242 230.685H192.05C191.903 231.684 191.374 232.468 190.461 233.036C189.557 233.605 188.524 233.889 187.362 233.889C186.105 233.889 185.042 233.553 184.172 232.881C183.311 232.209 182.881 231.283 182.881 230.103C182.881 229.475 183.014 228.911 183.281 228.411C183.548 227.903 183.901 227.498 184.34 227.197C184.779 226.895 185.261 226.667 185.786 226.512C186.312 226.357 186.858 226.279 187.426 226.279C188.141 226.279 188.808 226.391 189.428 226.615C190.048 226.839 190.578 227.201 191.017 227.7C191.464 228.191 191.714 228.786 191.766 229.483H189.971C189.953 228.872 189.704 228.372 189.222 227.985C188.748 227.597 188.12 227.403 187.336 227.403C186.501 227.403 185.86 227.627 185.412 228.075C184.964 228.514 184.71 229.087 184.65 229.793H188.266V230.543H184.663C184.74 231.292 185.02 231.852 185.502 232.222C185.984 232.593 186.596 232.778 187.336 232.778C188.128 232.778 188.791 232.58 189.325 232.184C189.867 231.779 190.173 231.279 190.242 230.685Z" fill="black"/>
<path d="M206.123 230.168L204.212 233.695H201.177L199.253 230.155C199.167 229.854 199.089 229.509 199.021 229.122C198.952 228.725 198.887 228.286 198.827 227.804C198.767 227.313 198.719 226.96 198.685 226.744L198.259 226.796C198.293 226.986 198.358 227.33 198.452 227.83C198.547 228.329 198.625 228.773 198.685 229.16C198.745 229.548 198.78 229.897 198.788 230.207L198.801 233.695H196.864V226.421H199.86L202.572 233.191H202.817L205.529 226.421H208.526V233.695H206.588V230.22C206.597 229.91 206.631 229.561 206.692 229.173C206.752 228.777 206.829 228.338 206.924 227.855C207.027 227.365 207.096 227.016 207.131 226.809L206.705 226.77C206.67 226.977 206.619 227.326 206.55 227.817C206.489 228.299 206.425 228.738 206.356 229.135C206.287 229.522 206.21 229.867 206.123 230.168Z" fill="black"/>
<path d="M218.89 226.421V233.695H217.121V230.853H212.537L213.802 233.708H210.044V232.261H211.503C211.348 231.495 211.271 231.042 211.271 230.904C211.288 230.569 211.478 230.362 211.839 230.284C211.934 230.267 212.05 230.254 212.188 230.246V229.897C211.568 229.819 211.073 229.638 210.703 229.354C210.333 229.07 210.147 228.682 210.147 228.191C210.147 227.011 211.258 226.421 213.479 226.421H218.89ZM217.121 229.703V227.61H213.492C213.036 227.61 212.653 227.7 212.343 227.881C212.042 228.054 211.891 228.308 211.891 228.644C211.891 228.988 212.046 229.255 212.356 229.445C212.666 229.634 213.053 229.729 213.518 229.729L217.121 229.703Z" fill="black"/>
<path d="M227.812 230.685H229.62C229.473 231.684 228.944 232.468 228.031 233.036C227.127 233.605 226.094 233.889 224.932 233.889C223.675 233.889 222.611 233.553 221.742 232.881C220.881 232.209 220.451 231.283 220.451 230.103C220.451 229.475 220.584 228.911 220.851 228.411C221.118 227.903 221.471 227.498 221.91 227.197C222.349 226.895 222.831 226.667 223.356 226.512C223.881 226.357 224.428 226.279 224.996 226.279C225.711 226.279 226.378 226.391 226.998 226.615C227.618 226.839 228.147 227.201 228.586 227.7C229.034 228.191 229.284 228.786 229.336 229.483H227.54C227.523 228.872 227.274 228.372 226.791 227.985C226.318 227.597 225.689 227.403 224.906 227.403C224.011 227.403 223.335 227.657 222.878 228.166C222.431 228.674 222.207 229.32 222.207 230.103C222.207 230.991 222.452 231.658 222.943 232.106C223.442 232.554 224.097 232.778 224.906 232.778C225.698 232.778 226.361 232.58 226.895 232.184C227.437 231.779 227.743 231.279 227.812 230.685Z" fill="black"/>
<path d="M235.431 226.279C235.991 226.279 236.533 226.361 237.058 226.525C237.592 226.68 238.079 226.908 238.518 227.21C238.965 227.511 239.323 227.916 239.59 228.424C239.857 228.924 239.99 229.483 239.99 230.103C239.99 231.258 239.538 232.179 238.634 232.868C237.73 233.557 236.641 233.902 235.367 233.902C234.084 233.902 232.978 233.553 232.048 232.855C231.126 232.158 230.666 231.24 230.666 230.103C230.666 229.311 230.907 228.618 231.389 228.023C231.88 227.421 232.478 226.981 233.184 226.706C233.899 226.421 234.648 226.279 235.431 226.279ZM232.59 230.078C232.59 230.87 232.848 231.533 233.365 232.067C233.882 232.601 234.54 232.868 235.341 232.868C236.133 232.868 236.783 232.606 237.291 232.08C237.799 231.546 238.053 230.879 238.053 230.078C238.053 229.311 237.812 228.674 237.33 228.166C236.856 227.649 236.206 227.39 235.38 227.39C234.51 227.39 233.826 227.666 233.326 228.217C232.835 228.76 232.59 229.38 232.59 230.078Z" fill="black"/>
<path d="M119.44 27.6279V29.1653H113.551V31.6588H117.4C118.295 31.6588 118.993 31.8741 119.492 32.3048C120 32.7354 120.254 33.3254 120.254 34.0747C120.254 34.8844 119.97 35.5217 119.402 35.9868C118.842 36.4433 118.067 36.6716 117.077 36.6716H111.614V27.6279H119.44ZM116.806 35.3925C117.262 35.3925 117.632 35.2806 117.916 35.0566C118.201 34.8241 118.343 34.4925 118.343 34.0618C118.343 33.6053 118.183 33.2651 117.865 33.0412C117.546 32.8086 117.107 32.6923 116.548 32.6923H113.551V35.3925H116.806Z" fill="black"/>
<path d="M129.974 33.1445H123.349V33.4546C123.357 34.1609 123.607 34.7164 124.098 35.1212C124.588 35.5174 125.217 35.7155 125.983 35.7155C126.577 35.7155 127.137 35.582 127.662 35.315C128.196 35.0394 128.545 34.6346 128.708 34.1006H130.413C130.198 34.9963 129.668 35.6811 128.824 36.1548C127.989 36.6285 127.029 36.8654 125.944 36.8654C124.653 36.8654 123.577 36.5338 122.716 35.8706C121.864 35.1987 121.437 34.2685 121.437 33.0799C121.437 32.2617 121.648 31.5554 122.07 30.9611C122.492 30.3668 123.03 29.9362 123.684 29.6692C124.347 29.3935 125.075 29.2557 125.867 29.2557C127.133 29.2557 128.14 29.6046 128.889 30.3022C129.647 30.9999 130.008 31.9473 129.974 33.1445ZM123.426 32.3952H128.088C128.071 31.7751 127.873 31.2841 127.494 30.9224C127.115 30.5606 126.569 30.3797 125.854 30.3797C124.485 30.3797 123.676 31.0516 123.426 32.3952Z" fill="black"/>
<path d="M138.059 33.2479C139.325 33.2565 139.958 33.7087 139.958 34.6044C139.958 35.1298 139.751 35.5691 139.338 35.9222C138.933 36.2754 138.438 36.5251 137.853 36.6716C137.267 36.8094 136.626 36.8783 135.929 36.8783C135.137 36.8783 134.426 36.7922 133.798 36.6199C133.169 36.4476 132.644 36.1548 132.222 35.7414C131.8 35.3279 131.589 34.8112 131.589 34.191H133.372C133.372 34.5097 133.505 34.7896 133.772 35.0308C134.047 35.2633 134.375 35.4313 134.753 35.5346C135.132 35.638 135.533 35.6897 135.954 35.6897C136.583 35.6897 137.108 35.5992 137.53 35.4184C137.96 35.2375 138.176 34.949 138.176 34.5528C138.176 34.1738 138.051 33.9025 137.801 33.7388C137.56 33.5666 137.164 33.4804 136.613 33.4804H134.715V32.6536H136.613C137.655 32.6536 138.176 32.2961 138.176 31.5813C138.176 31.2023 137.956 30.9224 137.517 30.7415C137.087 30.552 136.561 30.4573 135.941 30.4573C135.261 30.4573 134.659 30.5864 134.133 30.8448C133.617 31.1032 133.363 31.4736 133.372 31.9559H131.589C131.589 31.3272 131.796 30.8061 132.209 30.3927C132.631 29.9706 133.152 29.6778 133.772 29.5141C134.4 29.3419 135.115 29.2557 135.916 29.2557C136.613 29.2557 137.254 29.3289 137.84 29.4754C138.425 29.6132 138.925 29.863 139.338 30.2247C139.751 30.5778 139.958 31.0128 139.958 31.5296C139.958 31.9258 139.794 32.2531 139.467 32.5115C139.14 32.7612 138.671 32.8904 138.059 32.8991V33.2479Z" fill="black"/>
<path d="M144.426 34.3719C144.426 33.6656 144.715 33.1316 145.291 32.7699C145.877 32.4081 146.596 32.2272 147.448 32.2272C148.662 32.2272 149.945 32.6751 151.297 33.5709V32.6148C151.297 31.9688 151.12 31.5037 150.767 31.2195C150.414 30.9353 149.824 30.7932 148.998 30.7932H145.227L145.214 29.3978H149.682C150.913 29.3978 151.813 29.6692 152.381 30.2118C152.95 30.7458 153.234 31.6071 153.234 32.7957V35.2375H154.512V36.6845H152.239V36.6716L151.994 36.6845C151.804 36.6845 151.658 36.607 151.555 36.4519C151.452 36.2883 151.4 36.116 151.4 35.9352C151.4 35.7457 151.443 35.4959 151.529 35.1858C151.624 34.8757 151.705 34.669 151.774 34.5657L151.387 34.359C151.18 34.8241 150.918 35.2246 150.599 35.5605C150.289 35.8878 149.953 36.1376 149.592 36.3098C149.239 36.4821 148.894 36.607 148.559 36.6845C148.232 36.762 147.9 36.8008 147.564 36.8008C146.721 36.8008 145.984 36.5811 145.356 36.1419C144.736 35.7026 144.426 35.1126 144.426 34.3719ZM146.363 34.3977C146.363 34.8025 146.553 35.1212 146.932 35.3538C147.319 35.5777 147.775 35.6897 148.3 35.6897C148.645 35.6897 148.972 35.638 149.282 35.5346C149.592 35.4227 149.842 35.2935 150.031 35.1471C150.22 34.992 150.388 34.8413 150.535 34.6949C150.681 34.5485 150.784 34.4236 150.845 34.3202L150.935 34.1523C150.823 34.0833 150.672 33.9972 150.483 33.8939C150.294 33.7819 149.953 33.6355 149.463 33.4546C148.972 33.2737 148.533 33.1833 148.145 33.1833C147.904 33.1833 147.663 33.2091 147.422 33.2608C147.181 33.3125 146.944 33.4374 146.712 33.6355C146.48 33.825 146.363 34.079 146.363 34.3977Z" fill="black"/>
<path d="M162.609 29.3978H164.546V36.6716H162.609V33.7517H157.624V36.6716H155.687V29.3978H157.624V32.3564H162.609V29.3978Z" fill="black"/>
<path d="M173.521 29.3978V30.9224H170.525V36.6716H168.756V30.9224H165.682V29.3978H173.521Z" fill="black"/>
<path d="M181.019 36.6716V33.8163C181.019 32.912 181.294 31.5942 181.845 29.863L181.432 29.7854C180.89 31.4908 180.343 32.7483 179.792 33.558L177.157 36.6716H174.781V29.3978H176.692L176.705 32.7699C176.705 33.3986 176.477 34.5226 176.021 36.1419L176.447 36.2194C176.456 36.1935 176.512 35.9954 176.615 35.6251C176.718 35.2461 176.787 34.992 176.822 34.8628C176.865 34.7336 176.933 34.5269 177.028 34.2427C177.123 33.9498 177.213 33.7044 177.299 33.5063C177.394 33.3082 177.493 33.1187 177.596 32.9378L180.45 29.3978H182.956L182.93 36.6716H181.019Z" fill="black"/>
<path d="M189.052 36.8008C187.726 36.8008 186.672 36.439 185.888 35.7155C185.105 34.9834 184.713 33.9283 184.713 32.5502C184.713 31.9904 184.752 31.4951 184.829 31.0645C184.915 30.6338 185.053 30.2592 185.242 29.9405C185.432 29.6132 185.643 29.3333 185.875 29.1007C186.108 28.8595 186.409 28.6442 186.779 28.4547C187.158 28.2566 187.533 28.093 187.903 27.9638C188.273 27.826 188.734 27.6795 189.285 27.5245C190.774 27.0766 191.725 26.7967 192.139 26.6847V28.1705C191.424 28.3858 190.494 28.6657 189.349 29.0103C188.419 29.2514 187.705 29.5916 187.205 30.0309C186.706 30.4702 186.288 31.0602 185.953 31.8009L186.263 32.111C186.986 31.2669 188.045 30.8448 189.44 30.8448C190.464 30.8448 191.321 31.0903 192.01 31.5813C192.707 32.0722 193.056 32.7785 193.056 33.7001C193.056 34.3633 192.849 34.9403 192.436 35.4313C192.022 35.9136 191.519 36.2625 190.925 36.4778C190.339 36.6931 189.715 36.8008 189.052 36.8008ZM188.884 31.8784C188.041 31.8784 187.244 32.1239 186.495 32.6148V32.8861C186.495 33.6871 186.732 34.2901 187.205 34.6949C187.688 35.0997 188.307 35.3021 189.065 35.3021C189.685 35.3021 190.21 35.1428 190.641 34.8241C191.071 34.4968 191.286 34.0489 191.286 33.4804C191.286 32.9292 191.054 32.5244 190.589 32.266C190.124 32.0076 189.556 31.8784 188.884 31.8784Z" fill="black"/>
<path d="M196.193 27.9767C195.969 27.7614 195.857 27.4814 195.857 27.1369C195.857 26.7924 195.969 26.5168 196.193 26.3101C196.417 26.1034 196.714 26 197.084 26C197.454 26 197.751 26.1034 197.975 26.3101C198.199 26.5168 198.311 26.7924 198.311 27.1369C198.311 27.4814 198.199 27.7614 197.975 27.9767C197.751 28.1834 197.454 28.2868 197.084 28.2868C196.714 28.2868 196.417 28.1834 196.193 27.9767ZM194.01 36.6716V35.2246H196.219V30.7932H194.01V29.3978H196.8C197.704 29.3978 198.156 29.85 198.156 30.7544V35.2246H200.338V36.6716H194.01Z" fill="black"/>
<path d="M205.908 29.2557C206.467 29.2557 207.01 29.3376 207.535 29.5012C208.069 29.6562 208.555 29.8845 208.994 30.1859C209.442 30.4874 209.799 30.8922 210.066 31.4004C210.333 31.8999 210.466 32.4598 210.466 33.0799C210.466 34.2341 210.014 35.1557 209.11 35.8447C208.206 36.5338 207.117 36.8783 205.843 36.8783C204.56 36.8783 203.454 36.5295 202.524 35.8318C201.603 35.1341 201.142 34.2169 201.142 33.0799C201.142 32.2875 201.383 31.5942 201.865 30.9999C202.356 30.397 202.954 29.9577 203.66 29.6821C204.375 29.3978 205.124 29.2557 205.908 29.2557ZM203.066 33.0541C203.066 33.8465 203.325 34.5097 203.841 35.0437C204.358 35.5777 205.016 35.8447 205.817 35.8447C206.609 35.8447 207.259 35.582 207.767 35.0566C208.275 34.5226 208.529 33.8551 208.529 33.0541C208.529 32.2875 208.288 31.6502 207.806 31.142C207.332 30.6252 206.682 30.3668 205.856 30.3668C204.986 30.3668 204.302 30.6424 203.803 31.1937C203.312 31.7363 203.066 32.3564 203.066 33.0541Z" fill="black"/>
<path d="M219.125 29.3978V30.9224H216.129V36.6716H214.359V30.9224H211.286V29.3978H219.125Z" fill="black"/>
<path d="M226.622 36.6716V33.8163C226.622 32.912 226.898 31.5942 227.449 29.863L227.035 29.7854C226.493 31.4908 225.946 32.7483 225.395 33.558L222.761 36.6716H220.385V29.3978H222.296L222.309 32.7699C222.309 33.3986 222.081 34.5226 221.624 36.1419L222.05 36.2194C222.059 36.1935 222.115 35.9954 222.218 35.6251C222.322 35.2461 222.391 34.992 222.425 34.8628C222.468 34.7336 222.537 34.5269 222.632 34.2427C222.726 33.9498 222.817 33.7044 222.903 33.5063C222.998 33.3082 223.097 33.1187 223.2 32.9378L226.054 29.3978H228.559L228.533 36.6716H226.622Z" fill="black"/>
<path d="M238.039 33.2737C238.254 33.3168 238.366 33.4675 238.375 33.7259C238.383 33.9757 238.328 34.3331 238.207 34.7982C238.164 34.9791 238.134 35.1212 238.117 35.2246H239.486V36.6974H235.637L236.916 33.9714H232.421V36.6716H230.652V29.4108H232.421V32.4339H232.99L237.109 29.3978H239.421L235.727 32.1756C235.349 32.4942 234.574 32.7699 233.403 33.0024V33.4158C234.298 33.1919 234.789 33.0713 234.875 33.0541C235.495 32.9593 236.037 32.912 236.502 32.912C237.294 32.912 237.807 33.0326 238.039 33.2737Z" fill="black"/>
<path d="M242.112 27.9767C241.888 27.7614 241.776 27.4814 241.776 27.1369C241.776 26.7924 241.888 26.5168 242.112 26.3101C242.335 26.1034 242.632 26 243.003 26C243.373 26 243.67 26.1034 243.894 26.3101C244.118 26.5168 244.229 26.7924 244.229 27.1369C244.229 27.4814 244.118 27.7614 243.894 27.9767C243.67 28.1834 243.373 28.2868 243.003 28.2868C242.632 28.2868 242.335 28.1834 242.112 27.9767ZM239.929 36.6716V35.2246H242.137V30.7932H239.929V29.3978H242.718C243.622 29.3978 244.074 29.85 244.074 30.7544V35.2246H246.257V36.6716H239.929Z" fill="black"/>
<path d="M253.35 33.1833C253.695 33.2091 253.979 33.2393 254.202 33.2737C254.435 33.2996 254.68 33.3469 254.939 33.4158C255.205 33.4847 255.412 33.5752 255.558 33.6871C255.713 33.7991 255.843 33.9498 255.946 34.1393C256.049 34.3202 256.101 34.5355 256.101 34.7853C256.101 35.4571 255.804 35.9395 255.21 36.2323C254.616 36.5252 253.854 36.6716 252.924 36.6716H247.668V29.3074H252.343C254.728 29.3074 255.92 29.9103 255.92 31.1162C255.92 32.1583 255.063 32.7354 253.35 32.8474V33.1833ZM252.24 30.6381H249.605V32.6019H252.407C252.898 32.6019 253.299 32.5115 253.608 32.3306C253.918 32.1411 254.073 31.887 254.073 31.5683C254.073 31.2497 253.905 31.0171 253.57 30.8707C253.243 30.7156 252.799 30.6381 252.24 30.6381ZM252.653 35.4701C253.1 35.4701 253.466 35.3839 253.75 35.2117C254.043 35.0308 254.19 34.7767 254.19 34.4494C254.19 34.1049 254.026 33.8422 253.699 33.6613C253.38 33.4804 252.946 33.39 252.395 33.39H249.605V35.4701H252.653Z" fill="black"/>
<g clip-path="url(#clip3_455_7579)">
<path d="M57.4595 7.50929C57.1589 7.20818 56.818 6.97252 56.4545 6.7998C56.0909 6.97252 55.75 7.20868 55.4489 7.50929C54.0395 8.9187 54.0395 11.2038 55.4489 12.6137C55.75 12.9143 56.0909 13.1505 56.4545 13.3227C56.818 13.1505 57.1589 12.9143 57.4595 12.6137C58.8694 11.2038 58.8694 8.9187 57.4595 7.50929Z" fill="#FF5D5D"/>
<path d="M13.645 53.3864C13.3439 53.0857 13.003 52.8496 12.6394 52.6774C12.2758 52.8496 11.935 53.0857 11.6343 53.3864C10.2244 54.7963 10.2244 57.0813 11.6343 58.4907C11.935 58.7919 12.2758 59.0275 12.6394 59.2002C13.003 59.0275 13.3439 58.7914 13.645 58.4907C15.0544 57.0813 15.0544 54.7963 13.645 53.3864V53.3864Z" fill="#FF5D5D"/>
<path d="M11.0925 51.0403C10.317 51.0403 9.56978 51.2206 8.89655 51.559C4.81636 46.2627 2.57813 39.7112 2.57813 33C2.57813 16.2251 16.2251 2.57812 33 2.57812C35.1375 2.57812 37.2715 2.80069 39.3431 3.24028C40.04 3.38782 40.7238 2.94269 40.8713 2.2468C41.0194 1.5499 40.5742 0.866089 39.8779 0.718048C37.6311 0.241699 35.3168 0 33 0C24.1855 0 15.8983 3.43263 9.66545 9.66545C3.43263 15.8983 0 24.1855 0 33C0 40.3446 2.47137 47.5145 6.97353 53.2876C6.46696 54.0711 6.19405 54.9835 6.19405 55.9388C6.19405 57.247 6.70363 58.4771 7.62914 59.4026C8.55414 60.3276 9.78429 60.8372 11.0925 60.8372C12.4012 60.8372 13.6313 60.3276 14.5563 59.4026C15.4818 58.4771 15.9909 57.247 15.9909 55.9388C15.9909 54.6306 15.4813 53.4004 14.5563 52.4749C13.6313 51.5499 12.4012 51.0403 11.0925 51.0403V51.0403ZM12.7335 57.5793C11.8287 58.4842 10.3568 58.4842 9.45195 57.5793C9.01387 57.1412 8.77217 56.5586 8.77217 55.9388C8.77217 55.3189 9.01387 54.7363 9.45195 54.2977C9.90413 53.8455 10.4983 53.6195 11.0925 53.6195C11.6867 53.6195 12.2808 53.8455 12.7335 54.2977C13.1716 54.7358 13.4128 55.3189 13.4128 55.9388C13.4128 56.5586 13.1716 57.1412 12.7335 57.5793V57.5793Z" fill="#3B3B3B"/>
<path d="M59.0264 12.7124C59.533 11.9289 59.8059 11.0165 59.8059 10.0613C59.8059 8.75308 59.2963 7.52293 58.3708 6.59743C57.4458 5.67242 56.2157 5.16284 54.9075 5.16284C53.5988 5.16284 52.3686 5.67242 51.4436 6.59743C50.5186 7.52293 50.009 8.75308 50.009 10.0613C50.009 11.3695 50.5186 12.5996 51.4436 13.5251C52.3686 14.4501 53.5988 14.9597 54.9075 14.9597C55.6829 14.9597 56.4302 14.7794 57.1039 14.4411C61.1836 19.7373 63.4218 26.2889 63.4218 33C63.4218 49.775 49.7749 63.4219 33 63.4219C31.1953 63.4219 29.3876 63.2628 27.6262 62.9491C26.9258 62.8242 26.2556 63.291 26.1312 63.9919C26.0058 64.6928 26.4731 65.3621 27.174 65.4869C29.0839 65.8273 31.0442 66 33 66C41.8144 66 50.1017 62.5674 56.3345 56.3346C62.5673 50.1018 66 41.8145 66 33C66 25.6554 63.5286 18.4855 59.0264 12.7124ZM53.267 11.7018C52.3621 10.7975 52.3621 9.32561 53.267 8.42075C53.705 7.98216 54.2876 7.74097 54.9075 7.74097C55.5273 7.74097 56.1099 7.98216 56.548 8.42075C56.9866 8.85883 57.2278 9.44142 57.2278 10.0613C57.2278 10.6811 56.9866 11.2637 56.548 11.7018C56.1099 12.1404 55.5273 12.3816 54.9075 12.3816C54.2876 12.3816 53.705 12.1404 53.267 11.7018Z" fill="#3B3B3B"/>
<path d="M21.6734 61.2436L21.187 62.4375L21.6698 61.2421C21.0097 60.9757 20.2584 61.2939 19.9915 61.9541C19.7247 62.6142 20.0434 63.3655 20.7036 63.6324L20.7433 63.6485C20.8954 63.7064 21.052 63.7341 21.2061 63.7341C21.7252 63.7341 22.2157 63.4199 22.4121 62.9073C22.6669 62.2421 22.3385 61.4984 21.6734 61.2436V61.2436Z" fill="#3B3B3B"/>
<path d="M44.3718 4.77457L44.3864 4.78061C44.5446 4.84456 44.7082 4.87478 44.8688 4.87478C45.3789 4.87478 45.8618 4.57014 46.0647 4.06861C46.3311 3.40847 46.0124 2.65719 45.3522 2.39031L45.3291 2.38125C44.6684 2.11689 43.9182 2.43815 43.6538 3.09929C43.3889 3.76044 43.7107 4.51021 44.3718 4.77457Z" fill="#3B3B3B"/>
<path d="M32.9998 53.8553H44.2727C46.6597 53.8553 48.2837 51.4335 47.378 49.2253L38.1991 26.8519C37.6504 25.5146 37.3682 24.0833 37.3682 22.6381V16.7245C37.3682 15.8671 37.709 15.0452 38.315 14.4388C38.7015 14.0527 38.9184 13.5285 38.9184 12.9824V12.1445H27.0816V12.9824C27.0816 13.5285 27.2985 14.0527 27.685 14.4388C28.291 15.0452 28.6315 15.8671 28.6315 16.7245V22.6381C28.6315 24.0833 28.3493 25.515 27.8009 26.8519L18.622 49.2253C17.716 51.4335 19.34 53.8553 21.727 53.8553H32.9998Z" fill="white"/>
<path d="M40.8256 33.2544H30.6194L23.963 49.4798C23.2325 51.2604 24.1472 53.1789 25.7801 53.8554H44.2727C46.6597 53.8554 48.2837 51.4336 47.378 49.2254L40.8256 33.2544Z" fill="#FFC448"/>
<path d="M48.1623 48.9035L38.9834 26.5304C38.4744 25.2892 38.2161 23.9798 38.2161 22.6383V16.7243C38.2161 16.0875 38.4641 15.4888 38.9145 15.0384C39.4636 14.4893 39.7663 13.7591 39.7663 12.9825V12.1447C39.7663 11.6764 39.3864 11.2969 38.9185 11.2969H27.0817C26.6134 11.2969 26.2339 11.6764 26.2339 12.1447V12.9825C26.2339 13.7591 26.5363 14.4893 27.0853 15.0384C27.5357 15.4888 27.7838 16.0875 27.7838 16.7247V22.6383C27.7838 23.9798 27.5258 25.2892 27.0165 26.5304L24.4943 32.6782C24.4933 32.6805 24.4923 32.6828 24.4913 32.6851L17.8376 48.9035C17.3047 50.2027 17.4534 51.6747 18.2356 52.8407C19.0179 54.0071 20.323 54.7032 21.7271 54.7032H44.2728C45.6769 54.7032 46.9824 54.0071 47.7646 52.8407C48.5464 51.6744 48.6951 50.2027 48.1623 48.9035V48.9035ZM28.5852 27.1739C29.1786 25.7277 29.4793 24.2017 29.4793 22.6383V16.7243C29.4793 15.6348 29.0551 14.6102 28.2845 13.8396C28.058 13.613 27.9321 13.3123 27.9295 12.9924H38.0707C38.0681 13.3123 37.9422 13.6127 37.7154 13.8396C36.9451 14.6102 36.5205 15.6345 36.5205 16.7243V22.6379C36.5205 24.2013 36.8216 25.7274 37.4147 27.1735L39.4616 32.1629H26.5383L28.5852 27.1739ZM46.3561 51.8963C45.8826 52.6026 45.1232 53.0077 44.2728 53.0077H21.7271C20.877 53.0077 20.1177 52.6026 19.6438 51.8963C19.2864 51.3634 19.15 50.7455 19.2427 50.1361H20.6396C21.1075 50.1361 21.4873 49.7563 21.4873 49.2884C21.4873 48.8201 21.1075 48.4406 20.6396 48.4406H19.8607L20.8343 46.0668H22.2643C22.7325 46.0668 23.112 45.6869 23.112 45.219C23.112 44.7507 22.7325 44.3712 22.2643 44.3712H21.5301L22.5037 41.9974H23.9741C24.4423 41.9974 24.8218 41.6176 24.8218 41.1497C24.8218 40.6814 24.4423 40.3019 23.9741 40.3019H23.1995L24.1734 37.9281H25.6835C26.1518 37.9281 26.5313 37.5483 26.5313 37.0803C26.5313 36.6121 26.1518 36.2325 25.6835 36.2325H24.8689L25.8428 33.8588H40.1571L46.5936 49.5473C46.9161 50.3338 46.8297 51.1902 46.3561 51.8963V51.8963Z" fill="#3B3B3B"/>
<path d="M43.9757 48.9565C43.7982 48.523 43.3034 48.3157 42.8699 48.4929C42.4368 48.6704 42.2291 49.1651 42.4063 49.5986L42.4109 49.6092C42.5454 49.9374 42.8616 50.1361 43.1958 50.1361C43.3028 50.1361 43.4114 50.1159 43.5167 50.0729C43.9498 49.8954 44.1575 49.4003 43.98 48.9671L43.9757 48.9565Z" fill="#3B3B3B"/>
<path d="M42.7775 46.0357L39.7414 38.6355C39.5639 38.2023 39.0688 37.995 38.6353 38.1728C38.2022 38.3503 37.9952 38.8458 38.1727 39.2789L41.2088 46.6791C41.3433 47.0073 41.6595 47.2053 41.9937 47.2053C42.1006 47.2053 42.2096 47.1851 42.3149 47.1417C42.7481 46.9642 42.9554 46.4688 42.7775 46.0357V46.0357Z" fill="#3B3B3B"/>
<path fill-rule="evenodd" clip-rule="evenodd" d="M48.686 44.3871C49.1165 43.8078 49.9352 43.6871 50.5145 44.1176L59.2963 50.6433C59.8757 51.0739 59.9963 51.8925 59.5658 52.4719C59.1353 53.0512 58.3166 53.1719 57.7373 52.7414L48.9555 46.2156C48.3761 45.7851 48.2555 44.9665 48.686 44.3871Z" fill="#3B3B3B"/>
<path fill-rule="evenodd" clip-rule="evenodd" d="M6.09744 16.5414C6.5359 15.9681 7.35614 15.8587 7.92951 16.2971L23.2922 28.0452C23.8656 28.4836 23.975 29.3039 23.5365 29.8772C23.0981 30.4506 22.2778 30.5599 21.7044 30.1215L6.34172 18.3735C5.76835 17.935 5.65899 17.1148 6.09744 16.5414Z" fill="#3B3B3B"/>
</g>
<defs>
<clipPath id="clip0_455_7579">
<rect width="66.3261" height="66.3261" fill="white" transform="translate(0 98.2561)"/>
</clipPath>
<clipPath id="clip1_455_7579">
<rect width="66.3261" height="66.3261" fill="white" transform="translate(0 196.667)"/>
</clipPath>
<clipPath id="clip2_455_7579">
<rect width="45.3119" height="40.7151" fill="white" transform="translate(9.85034 209.797)"/>
</clipPath>
<clipPath id="clip3_455_7579">
<rect width="66" height="66" fill="white"/>
</clipPath>
</defs>
</svg>
