<svg width="133" height="21" viewBox="0 0 133 21" fill="none" xmlns="http://www.w3.org/2000/svg">
<path d="M56.3559 0.960564V1.93448H62.4121V20.8214H63.3542V1.93448H69.4103V0.960564H56.3559Z" fill="#FFC448"/>
<path d="M111.03 0.960564H110.088V20.8562H111.03V0.960564Z" fill="#FFC448"/>
<path d="M51.7129 11.4301C51.0063 10.9084 50.1652 10.5606 49.2904 10.4562C49.1222 10.4562 48.9876 10.4214 48.8194 10.4214C48.7857 10.4214 48.7857 10.4214 48.7521 10.4214C48.5839 10.4214 48.382 10.4214 48.2138 10.4562H45.3876C43.3352 10.2127 41.7202 8.40404 41.7202 6.21274C41.7202 3.91709 43.4698 2.03882 45.6904 1.93448H53.8662V0.960564H45.8922C44.8156 0.960564 43.8062 1.30839 42.9651 1.93448C41.6866 2.87361 40.8454 4.43883 40.8454 6.21274C40.8454 7.95187 41.6866 9.51709 42.9651 10.4562C43.7053 11.0127 44.5801 11.3606 45.5221 11.4301C45.6231 11.4301 45.7577 11.4301 45.8586 11.4301C45.8922 11.4301 45.8922 11.4301 45.9259 11.4301C46.0605 11.4301 46.195 11.4301 46.3296 11.3953H49.3577C51.4101 11.6736 52.9578 13.4475 52.9578 15.6388C52.9578 17.9345 51.2082 19.8127 48.9876 19.9171H40.8118V20.891H48.7857C49.8624 20.891 50.8717 20.5432 51.7129 19.9171C52.9914 18.978 53.8325 17.4127 53.8325 15.6388C53.7989 13.9345 52.9914 12.3693 51.7129 11.4301Z" fill="#FFC448"/>
<path d="M90.2704 12.0214C89.7321 16.5084 86.0311 19.9867 81.5563 19.9867C77.0815 19.9867 73.3805 16.5084 72.8421 12.0214V0.960564H71.9001V10.8736C71.9001 12.404 72.2365 13.8649 72.8421 15.1519C74.3898 18.5258 77.7207 20.8214 81.5563 20.8214C85.3919 20.8214 88.7227 18.491 90.2704 15.1519C90.876 13.8649 91.2125 12.404 91.2125 10.8736V0.960564H90.2704V12.0214Z" fill="#FFC448"/>
<path d="M102.114 1.93448C101.003 1.37796 99.7921 1.06491 98.5135 0.960564C98.3117 0.960564 93.7022 0.960564 93.7022 0.960564V20.9258H97.9416C99.422 20.9258 100.835 20.578 102.08 19.9519C105.344 18.3519 107.564 14.9084 107.564 10.9432C107.564 6.97796 105.344 3.53448 102.114 1.93448ZM98.9846 19.9519H94.6443V1.93448H99.1528C103.426 2.56056 106.723 6.35187 106.723 10.9084C106.723 15.5693 103.325 19.3953 98.9846 19.9519Z" fill="#FFC448"/>
<path d="M118.835 16.7171C118.734 16.5084 118.6 16.1258 118.432 15.9519C118.432 15.9519 118.061 15.7084 117.759 15.604C117.759 15.604 117.759 15.604 117.759 15.6388C117.523 15.9171 115.168 18.5258 115.134 18.5953C115.134 18.5953 115.37 18.4562 115.706 18.3171C115.067 19.1519 114.461 19.9867 113.856 20.8214C114.663 20.1953 115.437 19.5693 116.278 18.9084C116.11 19.2562 116.009 19.4649 116.009 19.4649C116.043 19.4301 118.331 17.2388 118.802 16.8214C118.768 16.7866 118.802 16.7519 118.835 16.7171Z" fill="#FFC448"/>
<path d="M116.951 17.0301C116.85 17.1693 116.716 17.2736 116.615 17.4127L116.884 17.2736L116.48 17.7953C116.547 17.8649 116.615 17.9345 116.716 18.0388L117.22 17.6214L117.086 17.8649C117.187 17.7606 117.321 17.6214 117.456 17.5171C117.288 17.378 117.119 17.204 116.951 17.0301Z" fill="#FFC448"/>
<path d="M115.067 13.7258C114.697 13.6562 114.461 13.6214 114.461 13.6214L114.125 13.5866C114.495 14.9084 115.101 16.091 115.908 17.1345C116.076 16.9606 116.278 16.7171 116.514 16.4736C115.875 15.6388 115.403 14.7345 115.067 13.7258Z" fill="#FFC448"/>
<path d="M131.049 4.891C130.948 5.20404 130.813 5.55187 130.678 5.89969C131.587 7.32578 132.125 9.03013 132.125 10.8736C132.125 15.8823 128.189 19.9171 123.377 19.9171C122.805 19.9171 122.267 19.8475 121.729 19.7432C121.594 19.9171 121.46 20.091 121.291 20.2649L121.09 20.5084C121.83 20.6823 122.57 20.7867 123.377 20.7867C128.693 20.7867 133 16.3345 133 10.8388C133 8.61274 132.293 6.56056 131.049 4.891Z" fill="#FFC448"/>
<path d="M120.619 19.4649C119.676 19.1519 118.802 18.6301 118.028 18.004C117.792 18.2475 117.557 18.4562 117.389 18.6301C118.364 19.4649 119.508 20.0562 120.753 20.4388L120.719 20.091C120.719 20.091 120.686 19.8475 120.619 19.4649Z" fill="#FFC448"/>
<path d="M114.798 12.5432C114.697 12.0214 114.663 11.4649 114.663 10.8736C114.663 5.86491 118.6 1.83013 123.411 1.83013C125.194 1.83013 126.877 2.38665 128.29 3.36056C128.626 3.22143 128.963 3.0823 129.265 2.97796C127.65 1.691 125.632 0.925781 123.411 0.925781C118.095 0.925781 113.789 5.37796 113.789 10.8736C113.789 11.6736 113.889 12.4388 114.058 13.204L114.293 12.9953C114.428 12.8214 114.596 12.6823 114.798 12.5432Z" fill="#FFC448"/>
<path d="M114.495 13.2736C114.495 13.2736 116.48 13.4823 118.061 14.3867C118.432 13.1693 119.071 11.5345 119.407 10.6997C118.835 10.7345 116.918 11.0127 114.495 13.2736Z" fill="#FFC448"/>
<path d="M121.056 20.0562C123.209 17.5867 123.478 15.604 123.546 14.978C122.705 15.3258 121.157 15.9867 120.013 16.404C120.854 18.0388 121.056 20.0562 121.056 20.0562Z" fill="#FFC448"/>
<path d="M131.89 2.14317C131.822 2.07361 131.755 2.07361 131.688 2.14317C131.621 2.21274 131.621 2.2823 131.688 2.35187C131.385 2.63013 131.15 2.69969 131.049 2.73448C130.88 2.63013 130.645 2.63013 130.544 2.76926C130.477 2.76926 130.376 2.80404 130.308 2.83882C130.308 2.83882 130.207 2.94317 130.275 3.04752C128.189 3.67361 123.411 5.51709 120.316 10.2823C120.316 10.2823 120.181 10.004 119.912 10.2475C119.878 10.3519 118.533 13.7953 118.129 15.2562V15.291C118.129 15.291 118.095 15.3606 118.028 15.4301C118.028 15.4301 118.432 15.5693 118.701 15.8127C118.936 16.091 119.071 16.5084 119.071 16.5084C119.138 16.404 119.205 16.404 119.205 16.404C120.349 16.0562 122.772 15.0475 123.68 14.6649C123.714 14.6649 123.748 14.6301 123.781 14.6301C123.916 14.5606 124.017 14.5258 124.05 14.5258C124.219 14.3519 124.151 14.2127 124.084 14.178C128.66 10.978 130.477 6.03882 131.049 3.8823C131.15 3.91709 131.25 3.81274 131.25 3.81274C131.284 3.70839 131.284 3.63882 131.318 3.56926C131.452 3.43013 131.452 3.22143 131.351 3.04752C131.385 2.94317 131.452 2.69969 131.721 2.38665C131.789 2.42143 131.856 2.42143 131.923 2.38665C131.923 2.2823 131.923 2.17796 131.89 2.14317ZM128.256 7.49969C127.819 7.95187 127.112 7.95187 126.675 7.49969C126.237 7.04752 126.237 6.31709 126.675 5.86491C127.112 5.41274 127.819 5.41274 128.256 5.86491C128.693 6.2823 128.693 7.04752 128.256 7.49969Z" fill="#FFC448"/>
<path d="M15.174 10.9084C15.174 14.0388 12.7179 16.6127 9.65621 16.6127C6.59449 16.6127 4.13838 14.0736 4.13838 10.9084V0.995346L0 5.23882V10.8736C0 14.2475 1.61498 17.2388 4.10473 19.0475C5.65242 20.1953 7.5702 20.8562 9.62257 20.8562C11.6749 20.8562 13.5927 20.1953 15.1404 19.0475C17.6302 17.2388 19.2451 14.2475 19.2451 10.8736V0.995346H15.174V10.9084Z" fill="#FFC448"/>
<path d="M34.15 2.10839C33.1407 1.4823 31.9631 1.09969 30.7518 0.995346H21.8022V20.8214H25.9069V17.9345H29.2041C29.4733 18.004 29.7425 18.004 29.978 18.004C30.2135 18.004 30.4827 18.004 30.7182 17.9693C31.9631 17.8649 33.107 17.4475 34.1164 16.8562C36.5725 15.3606 38.2211 12.6475 38.2211 9.4823C38.2211 6.35187 36.6061 3.60404 34.15 2.10839ZM29.978 13.7258H25.9405V5.23882H29.978C32.2322 5.23882 34.0827 7.11709 34.0827 9.4823C34.0491 11.8127 32.2322 13.7258 29.978 13.7258Z" fill="#FFC448"/>
</svg>
