<svg width="18" height="23" viewBox="0 0 18 23" fill="none" xmlns="http://www.w3.org/2000/svg">
<path d="M17.2956 11.8613C17.0801 10.8915 16.3144 10.1762 15.3929 10.0697C13.211 9.81718 11.0016 9.81599 8.80299 9.81718C6.60345 9.81599 4.39448 9.81718 2.21196 10.0697C1.29084 10.1764 0.525627 10.8917 0.31041 11.8613C0.00367891 13.2422 0 14.7495 0 16.1714C0 17.5933 2.74102e-08 19.1004 0.306731 20.4813C0.521948 21.4508 1.28717 22.1662 2.20874 22.2729C4.3908 22.5256 6.59977 22.5266 8.79908 22.5256C10.9986 22.5268 13.2071 22.5256 15.3899 22.2729C16.311 22.1662 17.0767 21.4508 17.2919 20.4813C17.5984 19.1004 17.6 17.5933 17.6 16.1714C17.5998 14.7493 17.6021 13.2422 17.2956 11.8613ZM5.02013 12.9315H3.7463V19.9439H2.56306V12.9315H1.31246V11.7829H5.02013V12.9315ZM8.2339 19.9442H7.16954V19.2808C6.7467 19.7829 6.34523 20.0278 5.95412 20.0278C5.61129 20.0278 5.37538 19.8839 5.26892 19.5759C5.21097 19.392 5.1751 19.1009 5.1751 18.6717V13.8632H6.23855V18.3403C6.23855 18.5985 6.23855 18.7326 6.2482 18.7688C6.27373 18.9399 6.35443 19.0266 6.49699 19.0266C6.71037 19.0266 6.9334 18.8563 7.16931 18.5106V13.8632H8.23367L8.2339 19.9442ZM12.2745 18.119C12.2745 18.6814 12.238 19.0866 12.1669 19.3444C12.0248 19.7967 11.7404 20.0278 11.3173 20.0278C10.9388 20.0278 10.5737 19.8101 10.218 19.3551V19.9444H9.15456V11.7829H10.218V14.4482C10.5615 14.0101 10.9262 13.7886 11.3173 13.7886C11.7404 13.7886 12.025 14.0194 12.1669 14.4746C12.2384 14.7193 12.2745 15.1214 12.2745 15.6971V18.119ZM14.1613 17.1045V18.1824C14.1613 18.7453 14.3391 19.0264 14.7047 19.0264C14.9666 19.0264 15.119 18.8789 15.1797 18.5845C15.1896 18.5247 15.2036 18.2798 15.2036 17.8379H16.2887V17.9987C16.2887 18.3539 16.2756 18.5985 16.2659 18.7086C16.2303 18.9525 16.1466 19.1738 16.0176 19.3687C15.7231 19.8103 15.2866 20.028 14.7311 20.028C14.1747 20.028 13.7512 19.8205 13.4437 19.4053C13.2182 19.1009 13.1023 18.6216 13.1023 17.9754V15.8455C13.1023 15.1955 13.2051 14.72 13.4311 14.4127C13.7383 13.9966 14.1616 13.7893 14.7049 13.7893C15.2386 13.7893 15.6617 13.9966 15.9597 14.4127C16.1825 14.72 16.2889 15.1955 16.2889 15.8455V17.1045H14.1613Z" fill="#FFC448"/>
<path d="M14.6953 14.7807C14.3398 14.7807 14.1616 15.0621 14.1616 15.6242V16.1869H15.225V15.6242C15.2248 15.0621 15.0471 14.7807 14.6953 14.7807Z" fill="#FFC448"/>
<path d="M10.7482 14.7807C10.573 14.7807 10.3955 14.8665 10.2178 15.0487V18.755C10.3953 18.9394 10.573 19.0266 10.7482 19.0266C11.055 19.0266 11.2108 18.755 11.2108 18.206V15.6104C11.2108 15.0621 11.055 14.7807 10.7482 14.7807Z" fill="#FFC448"/>
<path d="M11.3424 9.25667C11.7344 9.25667 12.1423 9.00989 12.5702 8.50203V9.17235H13.6452V3.02679H12.5702V7.7238C12.332 8.07254 12.1062 8.245 11.8912 8.245C11.7473 8.245 11.6627 8.15686 11.6392 7.98416C11.6261 7.94771 11.6261 7.81217 11.6261 7.55133V3.02679H10.5546V7.88626C10.5546 8.32027 10.5905 8.61399 10.6498 8.80003C10.7579 9.11137 10.9963 9.25667 11.3424 9.25667Z" fill="#FFC448"/>
<path d="M3.8592 5.83242V9.17235H5.05117V5.83242L6.48503 0.925781H5.27972L4.46645 4.16424L3.6203 0.925781H2.36601C2.61733 1.69019 2.87876 2.45842 3.13008 3.22355C3.51246 4.37362 3.75113 5.2407 3.8592 5.83242Z" fill="#FFC448"/>
<path d="M8.08261 9.25667C8.62111 9.25667 9.03959 9.04681 9.33643 8.62756C9.562 8.32004 9.67007 7.83552 9.67007 7.18235V5.03037C9.67007 4.37338 9.56223 3.89315 9.33643 3.58277C9.03959 3.16233 8.62134 2.95247 8.08261 2.95247C7.54686 2.95247 7.12862 3.16233 6.83108 3.58277C6.60276 3.89315 6.49469 4.37338 6.49469 5.03037V7.18235C6.49469 7.83552 6.60276 8.32004 6.83108 8.62756C7.12839 9.04681 7.54686 9.25667 8.08261 9.25667ZM7.56963 4.80716C7.56963 4.23856 7.7361 3.95509 8.08261 3.95509C8.42912 3.95509 8.59513 4.23832 8.59513 4.80716V7.39221C8.59513 7.96082 8.42912 8.24524 8.08261 8.24524C7.7361 8.24524 7.56963 7.96082 7.56963 7.39221V4.80716Z" fill="#FFC448"/>
</svg>
